{"glyphs":{"0":{"ha":847,"x_min":69,"x_max":778,"o":"m 778 388 q 691 62 778 175 q 424 -51 604 -51 q 157 63 244 -51 q 69 388 69 176 l 69 543 q 158 867 69 754 q 424 981 247 981 q 690 867 601 981 q 778 543 778 754 l 778 388 m 638 544 q 622 696 638 636 q 576 790 606 756 q 508 839 547 825 q 424 853 469 853 q 340 839 379 853 q 272 790 301 825 q 226 695 243 754 q 210 544 210 636 l 210 386 q 226 234 210 294 q 272 139 243 174 q 340 90 301 104 q 424 76 379 76 q 508 90 469 76 q 576 139 547 104 q 622 233 606 174 q 638 386 638 293 l 638 544 z "},"1":{"ha":847,"x_min":153,"x_max":590,"o":"m 453 -36 l 453 804 l 218 665 l 153 776 l 475 965 l 590 965 l 590 -36 l 453 -36 z "},"2":{"ha":847,"x_min":89,"x_max":761,"o":"m 463 485 q 531 567 506 532 q 568 628 556 601 q 584 677 581 656 q 588 718 588 699 l 588 729 q 541 823 588 789 q 415 857 494 857 q 359 851 388 857 q 303 828 331 844 q 249 783 275 811 q 197 711 222 754 l 92 779 q 136 847 110 811 q 201 912 163 882 q 291 961 239 942 q 413 981 343 981 q 547 962 489 981 q 645 910 606 943 q 705 830 685 876 q 725 729 725 783 l 725 715 q 682 561 725 633 q 571 417 639 489 l 258 83 l 761 83 l 761 -36 l 89 -36 l 89 79 l 463 485 z "},"3":{"ha":847,"x_min":74,"x_max":744,"o":"m 104 831 q 153 889 126 861 q 216 937 181 917 q 295 969 251 957 q 396 981 339 981 q 521 963 465 981 q 616 912 576 944 q 677 833 656 879 q 699 731 699 786 l 699 717 q 692 654 699 688 q 667 590 685 621 q 618 533 649 560 q 542 490 588 507 q 694 410 643 472 q 744 260 744 347 l 744 239 q 724 131 744 183 q 662 38 704 79 q 553 -27 619 -3 q 394 -51 486 -51 q 226 -24 307 -51 q 74 60 144 3 l 142 169 q 272 95 215 117 q 394 74 329 74 q 489 87 449 74 q 556 122 529 100 q 594 174 582 144 q 607 238 607 204 l 607 256 q 591 338 607 306 q 547 390 575 371 q 481 418 519 410 q 400 426 443 426 l 276 426 l 276 546 l 394 546 q 474 560 442 546 q 525 599 506 575 q 553 653 544 622 q 563 715 563 683 l 563 726 q 549 784 563 760 q 514 825 536 808 q 461 850 492 842 q 397 858 431 858 q 289 835 335 858 q 203 758 243 811 l 104 831 z "},"4":{"ha":847,"x_min":38,"x_max":815,"o":"m 674 603 l 674 296 l 815 296 l 815 179 l 674 179 l 674 -36 l 538 -36 l 538 179 l 38 179 l 38 282 l 508 965 l 660 965 l 199 296 l 538 296 l 538 603 l 674 603 z "},"5":{"ha":847,"x_min":88,"x_max":776,"o":"m 776 265 q 757 153 776 210 q 696 51 738 97 q 588 -23 654 6 q 428 -51 521 -51 q 242 -24 325 -51 q 88 60 158 3 l 156 169 q 294 93 228 113 q 431 74 360 74 q 524 90 485 74 q 590 134 564 107 q 627 196 615 161 q 639 265 639 231 l 639 282 q 586 431 639 382 q 438 481 533 481 q 324 457 374 481 q 242 401 275 433 l 136 401 l 168 965 l 711 965 l 711 847 l 293 847 l 278 535 q 363 578 311 560 q 478 596 415 596 q 604 572 549 596 q 698 505 660 547 q 756 406 736 463 q 776 286 776 350 l 776 265 z "},"6":{"ha":847,"x_min":86,"x_max":776,"o":"m 678 796 q 576 839 631 824 q 463 854 522 854 q 369 837 411 854 q 295 779 326 819 q 245 672 264 739 q 222 507 226 606 q 258 549 235 529 q 312 585 281 569 q 381 611 343 601 q 461 621 419 621 q 585 599 528 621 q 685 535 643 576 q 752 434 728 493 q 776 301 776 375 l 776 271 q 751 140 776 199 q 682 38 726 81 q 574 -28 638 -4 q 435 -51 511 -51 q 176 53 265 -51 q 86 361 86 158 l 86 413 q 115 686 86 576 q 194 861 143 796 q 315 953 244 926 q 471 981 386 981 q 606 964 539 981 q 731 913 674 947 l 678 796 m 226 285 q 281 131 226 188 q 429 74 335 74 q 583 126 526 74 q 639 278 639 179 l 639 296 q 582 447 639 396 q 433 499 525 499 q 349 483 388 499 q 284 442 311 468 q 242 381 257 417 q 226 304 226 346 l 226 285 z "},"7":{"ha":847,"x_min":79,"x_max":772,"o":"m 376 -36 l 226 -36 l 624 846 l 79 846 l 79 965 l 772 965 l 772 860 l 376 -36 z "},"8":{"ha":847,"x_min":89,"x_max":758,"o":"m 257 693 q 305 576 257 618 q 424 535 353 535 q 542 576 494 535 q 590 693 590 618 l 590 708 q 544 819 590 779 q 424 860 499 860 q 303 819 349 860 q 257 708 257 779 l 257 693 m 231 231 q 283 116 231 160 q 425 72 335 72 q 566 116 515 72 q 617 231 617 160 l 617 246 q 563 371 617 328 q 425 414 508 414 q 349 403 385 414 q 288 372 314 393 q 246 319 261 350 q 231 246 231 288 l 231 231 m 89 247 q 102 326 89 289 q 139 392 115 363 q 194 444 163 422 q 261 478 225 467 q 153 574 189 513 q 118 699 118 635 l 118 718 q 138 819 118 772 q 197 903 158 867 q 293 960 236 939 q 424 981 350 981 q 553 960 496 981 q 649 903 610 939 q 708 819 688 867 q 729 718 729 772 l 729 699 q 694 575 729 635 q 586 478 660 515 q 709 393 660 456 q 758 247 758 331 l 758 224 q 735 113 758 164 q 669 26 713 63 q 565 -31 626 -10 q 424 -51 503 -51 q 283 -31 344 -51 q 178 26 221 -10 q 112 113 135 63 q 89 224 89 164 l 89 247 z "},"9":{"ha":847,"x_min":71,"x_max":761,"o":"m 169 136 q 271 92 217 108 q 385 75 325 75 q 480 92 436 75 q 555 148 524 108 q 604 253 586 188 q 625 417 622 318 q 589 374 613 394 q 534 338 565 354 q 465 313 503 322 q 386 303 428 303 q 262 325 319 303 q 162 389 204 347 q 95 490 119 431 q 71 622 71 549 l 71 653 q 96 785 71 725 q 165 888 121 844 q 273 956 210 932 q 413 981 336 981 q 671 878 581 981 q 761 574 761 776 l 761 522 q 736 247 761 357 q 662 71 711 138 q 541 -24 613 4 q 376 -51 469 -51 q 241 -33 308 -51 q 117 19 174 -15 l 169 136 m 621 642 q 567 797 621 739 q 418 856 513 856 q 265 801 321 856 q 208 649 208 747 l 208 631 q 267 478 208 531 q 414 425 325 425 q 498 440 460 425 q 563 483 536 456 q 606 545 590 510 q 621 622 621 581 l 621 642 z "},"\u0000":{"ha":347,"x_min":0,"x_max":0,"o":""},"!":{"ha":417,"x_min":129,"x_max":288,"o":"m 129 67 l 288 67 l 288 -93 l 129 -93 l 129 67 m 150 210 l 131 1019 l 286 1019 l 267 210 l 150 210 z "},"\"":{"ha":538,"x_min":83,"x_max":454,"o":"m 97 678 l 83 1019 l 228 1019 l 214 678 l 97 678 m 324 678 l 310 1019 l 454 1019 l 440 678 l 324 678 z "},"#":{"ha":853,"x_min":56,"x_max":797,"o":"m 754 364 l 754 243 l 597 243 l 558 -36 l 447 -36 l 486 243 l 304 243 l 267 -36 l 154 -36 l 193 243 l 56 243 l 56 364 l 210 364 l 239 572 l 99 572 l 99 693 l 257 693 l 294 965 l 406 965 l 368 693 l 549 693 l 586 965 l 699 965 l 660 693 l 797 693 l 797 572 l 643 572 l 614 364 l 754 364 m 532 572 l 350 572 l 321 364 l 503 364 l 532 572 z "},"$":{"ha":872,"x_min":83,"x_max":789,"o":"m 397 -29 q 224 6 308 -24 q 83 82 140 36 l 153 186 q 266 122 201 149 q 397 88 331 94 l 397 421 q 278 456 332 436 q 185 507 224 476 q 124 581 146 538 q 103 688 103 625 l 103 713 q 121 801 103 760 q 176 876 139 843 q 267 931 213 910 q 397 958 322 953 l 397 1043 l 482 1043 l 482 960 q 633 932 564 956 q 750 871 701 908 l 683 774 q 482 844 589 836 l 482 524 q 628 474 569 500 q 723 416 688 449 q 774 344 758 383 q 789 254 789 304 l 789 233 q 766 124 789 171 q 703 44 743 76 q 606 -6 663 13 q 482 -28 549 -24 l 482 -129 l 397 -129 l 397 -29 m 654 244 q 647 293 654 271 q 621 334 640 315 q 568 369 601 353 q 482 400 535 386 l 482 88 q 611 135 568 97 q 654 224 654 172 l 654 244 m 236 690 q 278 600 236 631 q 397 546 319 569 l 397 843 q 274 797 313 835 q 236 714 236 758 l 236 690 z "},"%":{"ha":1240,"x_min":89,"x_max":1151,"o":"m 258 -35 l 857 965 l 981 965 l 383 -35 l 258 -35 m 315 981 q 481 918 421 981 q 542 746 542 856 l 542 688 q 481 515 542 578 q 315 453 421 453 q 149 515 210 453 q 89 688 89 578 l 89 746 q 149 918 89 856 q 315 981 210 981 m 315 547 q 433 690 433 547 l 433 743 q 315 886 433 886 q 197 743 197 886 l 197 690 q 315 547 197 547 m 925 481 q 1091 418 1031 481 q 1151 246 1151 356 l 1151 188 q 1091 15 1151 78 q 925 -47 1031 -47 q 759 15 819 -47 q 699 188 699 78 l 699 246 q 759 418 699 356 q 925 481 819 481 m 925 47 q 1043 190 1043 47 l 1043 243 q 925 386 1043 386 q 807 243 807 386 l 807 190 q 925 47 807 47 z "},"&":{"ha":940,"x_min":57,"x_max":929,"o":"m 390 68 q 513 91 457 68 q 610 154 568 114 l 375 435 q 290 385 326 408 q 231 339 254 363 q 197 290 208 315 q 186 233 186 264 l 186 211 q 201 156 186 182 q 244 110 217 131 q 309 79 272 90 q 390 68 346 68 m 301 756 q 311 715 301 736 q 335 672 321 694 q 369 627 350 650 q 406 583 388 604 q 479 633 451 610 q 522 677 507 656 q 543 718 538 699 q 549 756 549 738 l 549 771 q 513 837 549 810 q 425 864 476 864 q 334 835 367 864 q 301 771 301 807 l 301 756 m 856 501 q 768 156 856 290 l 929 -35 l 771 -35 l 689 63 q 549 -24 626 4 q 393 -51 471 -51 l 385 -51 q 263 -36 322 -51 q 158 11 204 -21 q 85 92 113 43 q 57 207 57 140 l 57 239 q 72 326 57 286 q 116 401 86 367 q 190 467 146 436 q 296 528 235 497 q 253 578 275 553 q 215 631 232 604 q 188 688 199 658 q 176 751 176 718 l 176 776 q 192 853 176 817 q 240 919 208 890 q 317 964 271 947 q 425 981 364 981 q 529 963 483 981 q 608 915 575 944 q 658 850 640 886 q 675 776 675 814 l 675 750 q 666 685 675 717 q 635 622 657 653 q 575 558 613 590 q 481 493 538 526 l 683 256 q 718 357 707 300 q 729 501 729 414 l 856 501 z "},"'":{"ha":317,"x_min":83,"x_max":233,"o":"m 97 678 l 83 1019 l 233 1019 l 219 678 l 97 678 z "},"(":{"ha":468,"x_min":104,"x_max":436,"o":"m 246 381 q 288 67 246 222 q 436 -236 329 -89 l 308 -236 q 154 44 204 -112 q 104 388 104 201 l 104 443 q 154 785 104 629 q 308 1064 204 940 l 436 1064 q 290 772 333 925 q 246 450 246 618 l 246 381 z "},")":{"ha":468,"x_min":32,"x_max":364,"o":"m 222 450 q 178 772 222 618 q 32 1064 135 925 l 160 1064 q 314 785 264 940 q 364 443 364 629 l 364 388 q 314 44 364 201 q 160 -236 264 -112 l 32 -236 q 181 67 139 -89 q 222 381 222 222 l 222 450 z "},"*":{"ha":651,"x_min":60,"x_max":592,"o":"m 117 556 l 60 663 l 253 744 l 60 825 l 117 932 l 282 817 l 267 1015 l 386 1015 l 369 817 l 536 932 l 592 825 l 399 744 l 592 663 l 536 556 l 369 671 l 386 474 l 267 474 l 283 671 l 117 556 z "},"+":{"ha":833,"x_min":67,"x_max":767,"o":"m 479 793 l 479 500 l 767 500 l 767 383 l 479 383 l 479 71 l 354 71 l 354 383 l 67 383 l 67 500 l 354 500 l 354 793 l 479 793 z "},",":{"ha":408,"x_min":81,"x_max":299,"o":"m 139 74 l 299 74 l 192 -243 l 81 -243 l 139 74 z "},"-":{"ha":583,"x_min":64,"x_max":517,"o":"m 64 522 l 517 522 l 517 406 l 64 406 l 64 522 z "},".":{"ha":408,"x_min":125,"x_max":283,"o":"m 125 67 l 283 67 l 283 -93 l 125 -93 l 125 67 z "},"/":{"ha":607,"x_min":25,"x_max":582,"o":"m 582 1067 l 157 -178 l 25 -178 l 449 1067 l 582 1067 z "},":":{"ha":492,"x_min":167,"x_max":325,"o":"m 167 178 l 325 178 l 325 18 l 167 18 l 167 178 m 167 797 l 325 797 l 325 638 l 167 638 l 167 797 z "},";":{"ha":492,"x_min":122,"x_max":340,"o":"m 167 797 l 325 797 l 325 638 l 167 638 l 167 797 m 181 185 l 340 185 l 233 -132 l 122 -132 l 181 185 z "},"<":{"ha":847,"x_min":96,"x_max":751,"o":"m 249 442 l 751 182 l 751 43 l 96 390 l 96 500 l 751 847 l 751 710 l 249 450 l 249 442 z "},"=":{"ha":847,"x_min":103,"x_max":744,"o":"m 103 650 l 744 650 l 744 532 l 103 532 l 103 650 m 103 357 l 744 357 l 744 239 l 103 239 l 103 357 z "},">":{"ha":847,"x_min":96,"x_max":751,"o":"m 599 450 l 96 710 l 96 847 l 751 500 l 751 390 l 96 43 l 96 182 l 599 442 l 599 450 z "},"?":{"ha":753,"x_min":64,"x_max":676,"o":"m 275 196 l 275 260 q 281 322 275 294 q 301 375 286 349 q 340 431 315 401 q 403 497 365 460 q 466 560 440 535 q 508 608 492 586 q 531 652 524 629 q 538 708 538 675 l 538 726 q 498 819 538 779 q 372 858 458 858 q 248 831 304 858 q 147 758 192 804 l 64 854 q 192 947 118 913 q 369 981 267 981 q 596 911 515 981 q 676 728 676 842 l 676 708 q 662 618 676 657 q 623 546 647 579 q 567 483 599 513 q 504 424 536 454 q 465 383 481 401 q 438 344 449 364 q 422 303 426 325 q 417 256 417 282 l 417 196 l 275 196 m 268 67 l 426 67 l 426 -93 l 268 -93 l 268 67 z "},"@":{"ha":1379,"x_min":69,"x_max":1310,"o":"m 1053 56 q 946 84 997 56 q 874 175 894 113 l 872 175 q 835 119 860 142 q 780 83 810 97 q 719 64 750 69 q 664 58 689 58 q 461 133 531 58 q 392 335 392 208 l 392 443 q 459 645 392 571 q 643 719 526 719 q 767 696 721 719 q 832 639 813 672 l 832 711 l 963 711 l 963 274 q 986 188 963 215 q 1054 161 1010 161 q 1115 174 1089 161 q 1160 217 1142 188 q 1188 295 1178 247 q 1197 413 1197 343 l 1197 428 q 1163 636 1197 544 q 1063 792 1129 728 q 899 891 996 857 q 675 925 801 925 q 476 890 567 925 q 322 790 386 856 q 221 628 257 724 q 185 411 185 532 l 185 388 q 220 159 185 258 q 322 -8 256 60 q 485 -110 389 -75 q 703 -146 582 -146 q 910 -123 807 -146 q 1099 -56 1013 -100 l 1138 -153 q 941 -226 1050 -200 q 707 -251 832 -251 q 439 -207 557 -251 q 239 -79 321 -162 q 113 122 157 4 q 69 386 69 240 l 69 413 q 112 659 69 546 q 233 854 154 772 q 423 983 311 936 q 675 1029 535 1029 q 947 985 829 1029 q 1146 863 1065 942 q 1268 674 1226 783 q 1310 432 1310 564 l 1310 414 q 1298 290 1310 353 q 1257 174 1286 226 q 1178 89 1228 122 q 1053 56 1129 56 m 529 357 q 564 231 529 278 q 674 185 599 185 q 730 192 703 185 q 778 215 757 199 q 813 260 800 232 q 825 329 825 288 l 825 451 q 817 505 825 479 q 792 551 810 531 q 744 583 774 571 q 674 594 715 594 q 567 557 606 594 q 529 421 529 519 l 529 357 z "},"A":{"ha":935,"x_min":28,"x_max":907,"o":"m 907 -36 l 763 -36 l 657 258 l 274 258 l 168 -36 l 28 -36 l 400 965 l 533 965 l 907 -36 m 315 376 l 615 376 l 532 611 q 513 665 521 642 q 497 709 504 688 q 483 754 490 731 q 465 813 475 778 q 447 753 454 778 q 433 708 440 729 q 419 665 426 688 q 400 611 411 642 l 315 376 z "},"B":{"ha":882,"x_min":114,"x_max":833,"o":"m 114 965 l 469 965 q 788 721 788 965 l 788 692 q 779 627 788 658 q 752 569 771 596 q 702 523 733 543 q 626 492 671 503 q 776 422 718 478 q 833 263 833 367 l 833 228 q 755 34 833 104 q 513 -36 676 -36 l 114 -36 l 114 965 m 251 83 l 461 83 q 563 90 519 83 q 635 113 607 96 q 678 158 664 129 q 692 231 692 186 l 692 261 q 679 339 692 307 q 636 392 667 371 q 556 422 606 413 q 431 431 506 431 l 251 431 l 251 83 m 251 847 l 251 543 l 429 543 q 522 549 481 543 q 590 571 563 554 q 633 617 618 588 q 647 693 647 646 l 647 718 q 634 788 647 763 q 592 827 621 814 q 521 844 564 840 q 419 847 478 847 l 251 847 z "},"C":{"ha":894,"x_min":83,"x_max":839,"o":"m 839 76 q 675 -24 764 4 q 485 -51 586 -51 q 321 -24 394 -51 q 194 58 247 3 q 113 196 142 114 q 83 389 83 278 l 83 540 q 113 732 83 650 q 195 869 142 814 q 322 953 249 925 q 485 981 396 981 q 667 955 589 981 q 815 874 744 929 l 744 761 q 615 835 676 817 q 485 853 553 853 q 380 833 428 853 q 297 774 332 814 q 242 671 261 733 q 222 522 222 608 l 222 407 q 242 258 222 321 q 297 156 261 196 q 380 96 332 115 q 485 76 428 76 q 629 99 557 76 q 764 182 701 121 l 839 76 z "},"D":{"ha":956,"x_min":114,"x_max":867,"o":"m 446 965 q 760 855 653 965 q 867 536 867 744 l 867 393 q 763 74 867 185 q 446 -36 658 -36 l 114 -36 l 114 965 l 446 965 m 251 86 l 433 86 q 554 103 500 86 q 647 158 608 121 q 706 256 685 196 q 726 400 726 315 l 726 529 q 706 674 726 614 q 647 772 685 733 q 554 827 608 810 q 433 844 500 844 l 251 844 l 251 86 z "},"E":{"ha":831,"x_min":114,"x_max":747,"o":"m 738 965 l 738 847 l 251 847 l 251 536 l 708 536 l 708 418 l 251 418 l 251 82 l 747 82 l 747 -36 l 114 -36 l 114 965 l 738 965 z "},"F":{"ha":789,"x_min":114,"x_max":733,"o":"m 733 965 l 733 847 l 251 847 l 251 513 l 704 513 l 704 394 l 251 394 l 251 -36 l 114 -36 l 114 965 l 733 965 z "},"G":{"ha":932,"x_min":83,"x_max":851,"o":"m 851 39 q 695 -29 785 -7 q 511 -51 606 -51 q 332 -24 411 -51 q 198 58 253 3 q 113 196 143 114 q 83 389 83 278 l 83 540 q 113 732 83 650 q 196 869 142 814 q 327 953 250 925 q 500 981 404 981 q 679 956 597 981 q 832 875 761 931 l 761 764 q 633 835 696 815 q 500 856 571 856 q 295 776 369 856 q 221 522 221 696 l 221 407 q 301 153 221 233 q 515 74 381 74 q 623 84 572 74 q 714 114 674 94 l 714 396 l 492 396 l 492 514 l 851 514 l 851 39 z "},"H":{"ha":968,"x_min":114,"x_max":854,"o":"m 854 965 l 854 -36 l 717 -36 l 717 425 l 251 425 l 251 -36 l 114 -36 l 114 965 l 251 965 l 251 547 l 717 547 l 717 965 l 854 965 z "},"I":{"ha":365,"x_min":114,"x_max":251,"o":"m 251 965 l 251 -36 l 114 -36 l 114 965 l 251 965 z "},"J":{"ha":656,"x_min":22,"x_max":544,"o":"m 544 239 q 522 100 544 156 q 461 10 500 44 q 369 -37 422 -24 q 254 -51 317 -51 q 135 -32 200 -51 q 22 31 71 -12 l 88 139 q 171 90 132 104 q 258 76 210 76 q 372 120 336 76 q 407 268 407 164 l 407 965 l 544 965 l 544 239 z "},"K":{"ha":910,"x_min":114,"x_max":882,"o":"m 456 532 l 882 -36 l 707 -36 l 361 432 l 251 314 l 251 -36 l 114 -36 l 114 965 l 251 965 l 251 486 l 690 965 l 858 965 l 456 532 z "},"L":{"ha":758,"x_min":114,"x_max":731,"o":"m 251 965 l 251 82 l 731 82 l 731 -36 l 114 -36 l 114 965 l 251 965 z "},"M":{"ha":1181,"x_min":114,"x_max":1067,"o":"m 296 686 q 283 716 289 701 q 272 746 278 731 q 260 781 267 761 q 244 825 253 800 l 244 -36 l 114 -36 l 114 965 l 317 965 l 594 310 l 865 965 l 1067 965 l 1067 -36 l 935 -36 l 935 825 q 922 778 928 797 q 910 744 915 760 q 900 715 906 729 q 888 686 894 701 l 649 131 l 532 131 l 296 686 z "},"N":{"ha":974,"x_min":114,"x_max":860,"o":"m 272 965 l 661 290 q 695 227 676 265 q 732 144 714 189 l 732 965 l 860 965 l 860 -36 l 701 -36 l 313 636 q 278 701 297 664 q 242 783 260 739 l 242 -36 l 114 -36 l 114 965 l 272 965 z "},"O":{"ha":981,"x_min":83,"x_max":897,"o":"m 490 -51 q 326 -24 400 -51 q 197 58 251 3 q 113 196 143 114 q 83 389 83 278 l 83 540 q 113 732 83 650 q 197 869 143 814 q 326 953 251 925 q 490 981 401 981 q 654 953 579 981 q 783 869 729 925 q 867 732 838 814 q 897 540 897 650 l 897 389 q 867 196 897 278 q 783 58 838 114 q 654 -24 729 3 q 490 -51 579 -51 m 490 856 q 383 837 432 856 q 298 778 333 818 q 242 676 263 739 q 222 525 222 613 l 222 404 q 242 253 222 317 q 298 151 263 190 q 383 92 333 111 q 490 74 432 74 q 598 92 549 74 q 683 151 647 111 q 738 253 718 190 q 758 404 758 317 l 758 525 q 738 676 758 613 q 683 778 718 739 q 598 837 647 818 q 490 856 549 856 z "},"P":{"ha":857,"x_min":114,"x_max":804,"o":"m 114 965 l 472 965 q 619 944 557 965 q 723 884 682 922 q 784 793 764 846 q 804 679 804 740 l 804 650 q 783 535 804 589 q 719 442 761 482 q 616 378 678 401 q 472 354 554 354 l 251 354 l 251 -36 l 114 -36 l 114 965 m 251 846 l 251 474 l 449 474 q 665 653 665 474 l 665 678 q 613 805 665 764 q 464 846 561 846 l 251 846 z "},"Q":{"ha":969,"x_min":83,"x_max":914,"o":"m 485 -51 q 321 -24 394 -51 q 194 58 247 3 q 113 196 142 114 q 83 389 83 278 l 83 540 q 113 732 83 650 q 195 869 142 814 q 322 953 249 925 q 485 981 396 981 q 647 953 574 981 q 774 869 721 925 q 857 732 828 814 q 886 540 886 650 l 886 389 q 863 213 886 289 q 796 82 839 136 l 914 -35 l 832 -119 l 707 4 q 485 -51 613 -51 m 485 856 q 379 837 428 856 q 296 778 331 818 q 242 676 261 739 q 222 525 222 613 l 222 404 q 242 253 222 317 q 296 151 261 190 q 379 92 331 111 q 485 74 428 74 q 551 80 519 74 q 610 101 582 86 l 485 226 l 567 311 l 696 182 q 734 276 721 222 q 747 404 747 331 l 747 525 q 728 676 747 613 q 674 778 708 739 q 591 837 639 818 q 485 856 543 856 z "},"R":{"ha":896,"x_min":114,"x_max":826,"o":"m 251 -36 l 114 -36 l 114 965 l 476 965 q 613 944 553 965 q 713 888 672 924 q 774 801 753 851 q 796 692 796 751 l 796 656 q 752 506 796 571 q 628 408 708 440 l 826 -36 l 678 -36 l 497 382 l 475 382 l 251 382 l 251 -36 m 251 499 l 443 499 q 609 542 560 499 q 658 660 658 586 l 658 688 q 610 804 658 761 q 457 847 561 847 l 251 847 l 251 499 z "},"S":{"ha":856,"x_min":81,"x_max":786,"o":"m 433 74 q 594 117 540 74 q 647 219 647 160 l 647 242 q 636 300 647 275 q 599 344 625 325 q 531 380 572 364 q 428 408 489 396 q 296 444 357 424 q 190 495 235 464 q 120 573 146 526 q 94 688 94 619 l 94 713 q 115 812 94 764 q 179 897 136 860 q 287 958 222 935 q 438 981 351 981 q 604 958 529 981 q 743 893 679 936 l 678 786 q 565 840 622 824 q 439 857 508 857 q 288 815 344 857 q 232 714 232 774 l 232 692 q 247 633 232 657 q 292 590 263 608 q 364 559 321 572 q 463 533 407 546 q 617 485 556 513 q 717 424 679 458 q 770 346 754 389 q 786 251 786 303 l 786 226 q 759 106 786 157 q 685 19 732 54 q 572 -34 638 -17 q 429 -51 506 -51 q 233 -17 322 -51 q 81 67 143 17 l 150 179 q 214 139 178 158 q 288 105 250 119 q 363 82 325 90 q 433 74 401 74 z "},"T":{"ha":793,"x_min":22,"x_max":771,"o":"m 328 -36 l 328 847 l 22 847 l 22 965 l 771 965 l 771 847 l 465 847 l 465 -36 l 328 -36 z "},"U":{"ha":950,"x_min":103,"x_max":847,"o":"m 847 965 l 847 365 q 822 172 847 251 q 750 43 797 93 q 633 -29 703 -7 q 475 -51 564 -51 q 317 -29 386 -51 q 200 43 247 -7 q 128 172 153 93 q 103 365 103 251 l 103 965 l 240 965 l 240 382 q 254 238 240 297 q 297 142 268 179 q 371 89 326 106 q 475 72 415 72 q 579 89 535 72 q 653 142 624 106 q 696 238 682 179 q 710 382 710 297 l 710 965 l 847 965 z "},"V":{"ha":935,"x_min":28,"x_max":907,"o":"m 178 965 l 468 138 l 765 965 l 907 965 l 529 -36 l 400 -36 l 28 965 l 178 965 z "},"W":{"ha":1354,"x_min":39,"x_max":1315,"o":"m 1315 965 l 1039 -36 l 901 -36 l 679 782 l 453 -36 l 313 -36 l 39 965 l 183 965 l 389 147 l 613 965 l 746 965 l 969 147 l 1178 965 l 1315 965 z "},"X":{"ha":910,"x_min":42,"x_max":868,"o":"m 544 481 l 868 -36 l 706 -36 l 451 393 l 197 -36 l 42 -36 l 365 486 l 63 965 l 226 965 l 463 571 l 697 965 l 851 965 l 544 481 z "},"Y":{"ha":868,"x_min":22,"x_max":846,"o":"m 504 367 l 504 -36 l 367 -36 l 367 367 l 22 965 l 175 965 l 438 497 l 693 965 l 846 965 l 504 367 z "},"Z":{"ha":851,"x_min":36,"x_max":804,"o":"m 778 864 l 203 83 l 804 83 l 804 -36 l 36 -36 l 36 76 l 604 846 l 69 846 l 69 965 l 778 965 l 778 864 z "},"[":{"ha":540,"x_min":118,"x_max":485,"o":"m 485 -236 l 118 -236 l 118 1064 l 485 1064 l 485 944 l 254 944 l 254 -117 l 485 -117 l 485 -236 z "},"\\":{"ha":1332,"x_min":50,"x_max":1282,"o":"m 50 557 l 192 557 l 92 965 l 229 965 l 318 557 l 508 557 l 611 965 l 735 965 l 832 557 l 1017 557 l 1104 965 l 1236 965 l 1136 557 l 1282 557 l 1282 472 l 1115 472 l 993 -36 l 868 -36 l 749 472 l 593 472 l 468 -36 l 338 -36 l 213 472 l 50 472 l 50 557 m 407 147 l 488 472 l 336 472 l 407 147 m 929 147 l 999 472 l 851 472 l 929 147 m 614 557 l 729 557 l 674 799 l 614 557 z "},"]":{"ha":540,"x_min":56,"x_max":422,"o":"m 56 -117 l 286 -117 l 286 944 l 56 944 l 56 1064 l 422 1064 l 422 -236 l 56 -236 l 56 -117 z "},"^":{"ha":728,"x_min":64,"x_max":664,"o":"m 533 557 l 364 894 l 194 557 l 64 557 l 301 1006 l 428 1006 l 664 557 l 533 557 z "},"_":{"ha":694,"x_min":0,"x_max":694,"o":"m 694 -194 l 0 -194 l 0 -104 l 694 -104 l 694 -194 z "},"`":{"ha":847,"x_min":267,"x_max":579,"o":"m 456 785 l 267 990 l 428 990 l 579 785 l 456 785 z "},"a":{"ha":775,"x_min":69,"x_max":672,"o":"m 319 -47 q 137 10 204 -47 q 69 167 69 67 l 69 204 q 135 363 69 301 q 346 424 200 424 l 539 424 l 539 468 q 502 581 539 544 q 382 618 465 618 q 266 597 315 618 q 164 542 217 576 l 97 642 q 222 709 153 681 q 383 738 292 738 q 500 722 447 738 q 591 674 553 706 q 651 598 629 643 q 672 496 672 553 l 672 -36 l 543 -36 l 543 56 l 542 56 q 512 17 531 35 q 471 -12 493 0 q 405 -38 440 -29 q 319 -47 369 -47 m 539 310 l 349 310 q 235 279 269 310 q 201 194 201 249 l 201 175 q 240 94 201 119 q 333 69 279 69 q 420 81 383 69 q 488 117 457 93 q 527 165 515 138 q 539 235 539 192 l 539 310 z "},"b":{"ha":828,"x_min":108,"x_max":757,"o":"m 243 636 q 338 715 279 693 q 460 738 397 738 q 681 653 604 738 q 757 414 757 569 l 757 279 q 735 141 757 201 q 673 39 713 81 q 578 -25 633 -3 q 456 -47 522 -47 q 318 -17 369 -47 q 242 53 267 13 l 239 53 l 239 -36 l 108 -36 l 108 1014 l 243 1014 l 243 636 m 242 235 q 256 176 242 206 q 298 123 271 146 q 361 85 325 100 q 442 71 397 71 q 576 131 528 71 q 624 299 624 190 l 624 392 q 575 560 624 500 q 442 619 526 619 q 364 606 400 619 q 301 567 328 592 q 258 506 274 542 q 242 426 242 471 l 242 235 z "},"c":{"ha":707,"x_min":69,"x_max":679,"o":"m 397 738 q 552 714 492 738 q 660 654 613 690 l 596 553 q 498 605 543 592 q 397 618 453 618 q 325 606 360 618 q 264 566 290 593 q 222 497 238 539 q 206 397 206 456 l 206 301 q 222 197 206 240 q 265 126 238 153 q 327 86 292 99 q 400 74 363 74 q 524 93 475 74 q 614 143 574 113 l 679 40 q 571 -20 639 7 q 399 -47 503 -47 q 155 44 240 -47 q 69 300 69 136 l 69 396 q 93 541 69 478 q 159 648 117 604 q 262 715 201 692 q 397 738 322 738 z "},"d":{"ha":828,"x_min":71,"x_max":719,"o":"m 588 58 q 497 -24 556 0 q 367 -47 438 -47 q 147 37 222 -47 q 71 276 71 121 l 71 411 q 93 549 71 488 q 155 651 115 610 q 250 715 194 693 q 372 738 306 738 q 510 708 460 738 q 585 644 561 678 l 585 1014 l 719 1014 l 719 -36 l 590 -36 l 590 58 l 588 58 m 586 458 q 572 517 586 488 q 530 569 557 546 q 466 606 503 592 q 386 619 429 619 q 252 560 300 619 q 204 392 204 500 l 204 299 q 253 131 204 190 q 386 71 301 71 q 464 84 428 71 q 527 122 500 97 q 570 183 554 147 q 586 263 586 218 l 586 458 z "},"e":{"ha":772,"x_min":69,"x_max":714,"o":"m 396 622 q 319 608 354 622 q 258 567 283 593 q 217 505 232 542 q 203 425 203 468 l 203 406 l 583 406 l 583 431 q 533 570 583 518 q 396 622 483 622 m 696 36 q 576 -23 646 1 q 403 -47 507 -47 q 272 -27 332 -47 q 166 35 211 -7 q 95 144 121 78 q 69 303 69 211 l 69 389 q 94 540 69 475 q 162 649 118 606 q 265 715 206 693 q 396 738 325 738 q 628 649 542 738 q 714 397 714 560 l 714 296 l 203 296 l 203 290 q 260 126 203 182 q 408 69 317 69 q 537 88 483 69 q 639 138 590 106 l 696 36 z "},"f":{"ha":521,"x_min":31,"x_max":513,"o":"m 156 608 l 31 608 l 31 724 l 156 724 l 156 799 q 212 968 156 914 q 376 1022 268 1022 q 451 1017 413 1022 q 513 1003 489 1011 l 492 893 q 389 907 442 907 q 351 903 369 907 q 320 887 333 899 q 299 853 307 875 q 290 793 290 831 l 290 724 l 490 724 l 490 608 l 290 608 l 290 -36 l 156 -36 l 156 608 z "},"g":{"ha":828,"x_min":71,"x_max":719,"o":"m 719 -26 q 381 -346 719 -346 q 239 -324 303 -346 q 128 -265 175 -301 l 189 -160 q 277 -206 226 -187 q 385 -224 328 -224 q 534 -176 483 -224 q 585 -26 585 -128 l 585 67 q 494 -10 553 13 q 367 -33 436 -33 q 147 51 222 -33 q 71 290 71 135 l 71 411 q 93 549 71 488 q 155 651 115 610 q 250 715 194 693 q 372 738 306 738 q 510 708 460 738 q 585 644 561 678 l 585 724 l 719 724 l 719 -26 m 586 458 q 572 517 586 488 q 530 569 557 546 q 466 606 503 592 q 386 619 429 619 q 252 560 300 619 q 204 392 204 500 l 204 313 q 253 144 204 204 q 386 85 301 85 q 464 98 428 85 q 527 136 500 111 q 570 197 554 161 q 586 276 586 232 l 586 458 z "},"h":{"ha":832,"x_min":108,"x_max":735,"o":"m 735 -36 l 600 -36 l 600 436 q 560 575 600 532 q 435 618 519 618 q 366 606 400 618 q 305 572 332 594 q 260 514 278 549 q 243 435 243 479 l 243 -36 l 108 -36 l 108 1014 l 243 1014 l 243 632 q 334 710 278 683 q 468 738 390 738 q 572 721 524 738 q 657 671 621 704 q 714 586 693 638 q 735 467 735 535 l 735 -36 z "},"i":{"ha":360,"x_min":108,"x_max":251,"o":"m 247 724 l 247 -36 l 113 -36 l 113 724 l 247 724 m 251 996 l 251 849 l 108 849 l 108 996 l 251 996 z "},"j":{"ha":383,"x_min":-86,"x_max":275,"o":"m 275 996 l 275 849 l 132 849 l 132 996 l 275 996 m 271 -122 q 215 -292 271 -237 q 50 -346 158 -346 q -24 -340 14 -346 q -86 -326 -62 -335 l -65 -217 q 38 -231 -15 -231 q 75 -226 57 -231 q 106 -210 93 -222 q 128 -176 119 -199 q 136 -117 136 -154 l 136 724 l 271 724 l 271 -122 z "},"k":{"ha":779,"x_min":108,"x_max":760,"o":"m 442 419 l 760 -36 l 590 -36 l 349 325 l 243 218 l 243 -36 l 108 -36 l 108 1014 l 243 1014 l 243 382 l 568 724 l 742 724 l 442 419 z "},"l":{"ha":351,"x_min":108,"x_max":243,"o":"m 243 1014 l 243 -36 l 108 -36 l 108 1014 l 243 1014 z "},"m":{"ha":1249,"x_min":108,"x_max":1151,"o":"m 1151 -36 l 1017 -36 l 1017 419 q 874 615 1017 615 q 810 605 842 615 q 754 573 779 594 q 713 517 729 551 q 697 438 697 483 l 697 -36 l 563 -36 l 563 419 q 419 615 563 615 q 356 606 388 615 q 300 575 325 596 q 259 522 275 554 q 243 444 243 489 l 243 -36 l 108 -36 l 108 724 l 242 724 l 242 621 l 243 621 q 316 704 265 671 q 446 738 367 738 q 578 705 522 738 q 664 611 635 672 q 755 702 700 667 q 900 738 810 738 q 1085 666 1018 738 q 1151 463 1151 594 l 1151 -36 z "},"n":{"ha":832,"x_min":108,"x_max":735,"o":"m 735 -36 l 600 -36 l 600 436 q 560 575 600 532 q 435 618 519 618 q 366 606 400 618 q 305 572 332 594 q 260 514 278 549 q 243 435 243 479 l 243 -36 l 108 -36 l 108 724 l 239 724 l 239 628 l 240 628 q 332 709 275 681 q 468 738 389 738 q 572 721 524 738 q 657 671 621 704 q 714 586 693 638 q 735 467 735 535 l 735 -36 z "},"o":{"ha":817,"x_min":69,"x_max":747,"o":"m 408 738 q 656 647 565 738 q 747 392 747 557 l 747 299 q 656 43 747 133 q 408 -47 565 -47 q 160 43 251 -47 q 69 299 69 133 l 69 392 q 160 648 69 558 q 408 738 251 738 m 408 71 q 555 130 499 71 q 611 310 611 189 l 611 381 q 555 560 611 501 q 408 619 499 619 q 262 560 318 619 q 206 381 206 501 l 206 310 q 262 130 206 189 q 408 71 318 71 z "},"p":{"ha":828,"x_min":108,"x_max":757,"o":"m 239 629 q 333 713 272 688 q 461 738 393 738 q 681 651 606 738 q 757 414 757 565 l 757 279 q 735 140 757 200 q 673 38 713 79 q 577 -26 633 -4 q 453 -47 521 -47 q 317 -17 368 -47 q 243 47 267 14 l 243 -333 l 108 -333 l 108 724 l 239 724 l 239 629 m 242 235 q 256 176 242 206 q 298 123 271 146 q 361 85 325 100 q 442 71 397 71 q 576 131 528 71 q 624 299 624 190 l 624 392 q 575 560 624 500 q 442 619 526 619 q 364 606 400 619 q 301 567 328 592 q 258 506 274 542 q 242 426 242 471 l 242 235 z "},"q":{"ha":828,"x_min":71,"x_max":719,"o":"m 585 -333 l 585 53 q 494 -24 553 -1 q 367 -47 436 -47 q 147 37 222 -47 q 71 276 71 121 l 71 411 q 93 549 71 488 q 155 651 115 610 q 250 715 194 693 q 372 738 306 738 q 510 708 460 738 q 585 644 561 678 l 585 724 l 719 724 l 719 -333 l 585 -333 m 586 458 q 572 517 586 488 q 530 569 557 546 q 466 606 503 592 q 386 619 429 619 q 252 560 300 619 q 204 392 204 500 l 204 299 q 253 131 204 190 q 386 71 301 71 q 464 84 428 71 q 527 122 500 97 q 570 183 554 147 q 586 263 586 218 l 586 458 z "},"r":{"ha":579,"x_min":108,"x_max":563,"o":"m 522 592 q 480 605 503 600 q 429 610 457 610 q 358 595 392 610 q 299 553 324 581 q 258 489 274 526 q 243 407 243 451 l 243 -36 l 108 -36 l 108 724 l 239 724 l 239 603 l 240 603 q 327 702 274 667 q 464 738 381 738 q 563 722 514 738 l 522 592 z "},"s":{"ha":692,"x_min":44,"x_max":639,"o":"m 344 69 q 461 96 419 69 q 503 168 503 122 l 503 179 q 496 219 503 203 q 469 249 489 236 q 417 272 450 261 q 329 293 383 282 q 218 324 267 306 q 136 367 169 342 q 85 429 103 393 q 68 515 68 465 l 68 532 q 85 608 68 571 q 136 674 101 646 q 224 720 171 703 q 351 738 278 738 q 497 720 429 738 q 621 663 564 703 l 561 561 q 472 606 524 589 q 361 622 419 622 q 240 597 276 622 q 203 531 203 571 l 203 518 q 240 452 203 474 q 367 414 278 431 q 488 383 436 401 q 572 338 539 365 q 622 274 606 311 q 639 183 639 236 l 639 165 q 619 82 639 121 q 561 15 599 43 q 470 -31 524 -14 q 350 -47 417 -47 q 176 -22 254 -47 q 44 44 99 3 l 107 150 q 217 92 158 115 q 344 69 275 69 z "},"t":{"ha":540,"x_min":31,"x_max":508,"o":"m 156 608 l 31 608 l 31 724 l 156 724 l 156 915 l 290 915 l 290 724 l 490 724 l 490 608 l 290 608 l 290 176 q 297 120 290 142 q 317 88 304 99 q 349 72 331 76 q 388 68 367 68 q 488 86 438 68 l 508 -22 q 446 -40 485 -32 q 367 -47 407 -47 q 207 7 258 -47 q 156 176 156 61 l 156 608 z "},"u":{"ha":826,"x_min":97,"x_max":718,"o":"m 97 724 l 232 724 l 232 251 q 271 113 232 156 q 394 69 310 69 q 463 81 429 69 q 523 116 496 93 q 567 174 550 139 q 583 253 583 208 l 583 724 l 718 724 l 718 -36 l 588 -36 l 588 60 l 586 60 q 496 -22 551 7 q 361 -50 440 -50 q 258 -33 306 -50 q 174 17 210 -17 q 118 101 139 50 q 97 221 97 151 l 97 724 z "},"v":{"ha":717,"x_min":14,"x_max":703,"o":"m 363 90 l 561 724 l 703 724 l 446 -36 l 274 -36 l 14 724 l 160 724 l 360 90 l 363 90 z "},"w":{"ha":1063,"x_min":22,"x_max":1040,"o":"m 531 556 l 378 -36 l 219 -36 l 22 724 l 164 724 l 303 104 l 306 104 l 467 724 l 603 724 l 763 104 l 765 104 l 907 724 l 1040 724 l 846 -36 l 688 -36 l 533 556 l 531 556 z "},"x":{"ha":729,"x_min":28,"x_max":701,"o":"m 451 358 l 701 -36 l 539 -36 l 363 269 l 182 -36 l 28 -36 l 282 358 l 40 724 l 203 724 l 371 443 l 542 724 l 692 724 l 451 358 z "},"y":{"ha":722,"x_min":14,"x_max":708,"o":"m 367 117 l 567 724 l 708 724 l 314 -350 l 192 -307 l 290 -47 l 14 724 l 160 724 l 361 117 l 367 117 z "},"z":{"ha":685,"x_min":35,"x_max":643,"o":"m 622 619 l 206 81 l 643 81 l 643 -36 l 35 -36 l 35 61 l 457 606 l 63 606 l 63 724 l 622 724 l 622 619 z "},"{":{"ha":624,"x_min":56,"x_max":568,"o":"m 56 490 q 167 517 132 492 q 203 601 203 542 l 203 863 q 258 1015 203 965 q 419 1064 313 1064 l 568 1064 l 568 944 l 442 944 q 360 920 382 944 q 339 825 339 896 l 339 601 q 335 550 339 576 q 318 500 331 524 q 283 458 306 476 q 224 431 260 439 q 281 405 258 422 q 317 364 304 388 q 334 313 329 340 q 339 260 339 286 l 339 -7 q 344 -65 339 -43 q 362 -97 350 -86 q 393 -112 374 -108 q 442 -117 413 -117 l 568 -117 l 568 -236 l 419 -236 q 258 -191 313 -236 q 203 -44 203 -146 l 203 258 q 167 345 203 319 q 56 372 132 371 l 56 490 z "},"|":{"ha":408,"x_min":139,"x_max":269,"o":"m 269 -236 l 139 -236 l 139 1063 l 269 1063 l 269 -236 z "},"}":{"ha":624,"x_min":56,"x_max":568,"o":"m 568 372 q 456 345 492 371 q 421 258 421 319 l 421 -44 q 366 -191 421 -146 q 204 -236 311 -236 l 56 -236 l 56 -117 l 182 -117 q 231 -112 211 -117 q 262 -97 250 -108 q 279 -65 274 -86 q 285 -7 285 -43 l 285 260 q 290 313 285 286 q 307 364 294 340 q 342 405 319 388 q 400 431 364 422 q 341 458 364 439 q 306 500 318 476 q 289 550 293 524 q 285 601 285 576 l 285 825 q 263 920 285 896 q 182 944 242 944 l 56 944 l 56 1064 l 204 1064 q 366 1015 311 1064 q 421 863 421 965 l 421 601 q 456 517 421 542 q 568 490 492 492 l 568 372 z "},"~":{"ha":833,"x_min":81,"x_max":756,"o":"m 547 322 q 461 342 496 322 q 398 388 426 363 q 344 433 369 413 q 289 453 319 453 q 252 439 268 453 q 226 405 236 425 q 210 361 215 385 q 201 318 204 338 l 81 318 q 101 415 85 369 q 143 496 117 461 q 206 550 169 531 q 288 569 242 569 q 373 549 338 569 q 436 504 408 529 q 490 459 464 479 q 549 439 517 439 q 610 474 590 439 q 638 574 631 510 l 756 574 q 694 390 747 458 q 547 322 642 322 z "},"₩":{"ha":1332,"x_min":50,"x_max":1282,"o":"m 50 557 l 192 557 l 92 965 l 229 965 l 318 557 l 508 557 l 611 965 l 735 965 l 832 557 l 1017 557 l 1104 965 l 1236 965 l 1136 557 l 1282 557 l 1282 472 l 1115 472 l 993 -36 l 868 -36 l 749 472 l 593 472 l 468 -36 l 338 -36 l 213 472 l 50 472 l 50 557 m 407 147 l 488 472 l 336 472 l 407 147 m 929 147 l 999 472 l 851 472 l 929 147 m 614 557 l 729 557 l 674 799 l 614 557 z "},"‐":{"ha":582,"x_min":42,"x_max":540,"o":"m 42 468 l 540 468 l 540 339 l 42 339 l 42 468 z "},"©":{"ha":1144,"x_min":75,"x_max":1092,"o":"m 582 26 q 755 59 676 26 q 890 150 833 92 q 979 289 947 208 q 1011 465 1011 369 q 979 642 1011 561 q 890 781 947 722 q 753 871 832 839 q 582 903 675 903 q 411 871 489 903 q 276 781 333 839 q 188 642 219 722 q 156 465 156 561 q 188 289 156 369 q 276 150 219 208 q 411 59 333 92 q 582 26 489 26 m 582 -46 q 376 -6 469 -46 q 217 104 283 35 q 113 267 150 174 q 75 465 75 360 q 113 664 75 571 q 217 826 150 757 q 376 935 283 894 q 582 975 469 975 q 790 935 696 975 q 951 826 883 894 q 1055 664 1018 757 q 1092 465 1092 571 q 1054 267 1092 360 q 949 104 1017 174 q 788 -6 882 35 q 582 -46 694 -46 m 594 757 q 716 738 671 757 q 796 692 761 718 l 739 603 q 667 642 699 632 q 594 651 636 651 q 549 644 572 651 q 506 620 525 638 q 476 574 488 603 q 464 503 464 546 l 464 431 q 476 355 464 385 q 508 308 489 325 q 551 283 528 290 q 596 275 575 275 q 686 288 650 275 q 753 325 722 301 l 810 235 q 728 190 782 210 q 594 169 674 169 q 408 238 472 169 q 343 429 343 307 l 343 501 q 410 690 343 624 q 594 757 478 757 z "},"　":{"ha":1264,"x_min":0,"x_max":0,"o":""},"、":{"ha":1264,"x_min":78,"x_max":454,"o":"m 350 -161 q 284 -76 315 -114 q 221 -4 253 -37 q 154 60 189 29 q 78 124 119 90 l 172 210 q 253 147 217 176 q 322 84 289 117 q 386 15 354 51 q 454 -67 418 -21 l 350 -161 z "},"。":{"ha":1264,"x_min":35,"x_max":449,"o":"m 242 -68 q 328 -33 296 -68 q 361 53 361 3 q 328 138 361 101 q 242 174 296 174 q 155 138 186 174 q 124 53 124 101 q 155 -33 124 3 q 242 -68 186 -68 m 242 -153 q 158 -137 196 -153 q 92 -93 119 -121 q 50 -28 65 -65 q 35 53 35 10 q 50 133 35 96 q 92 197 65 169 q 158 241 119 225 q 242 257 196 257 q 326 241 288 257 q 391 197 364 225 q 433 133 418 169 q 449 53 449 96 q 433 -28 449 10 q 391 -93 418 -65 q 326 -137 364 -121 q 242 -153 288 -153 z "},"·":{"ha":1264,"x_min":553,"x_max":711,"o":"m 553 500 l 711 500 l 711 340 l 553 340 l 553 500 z "},"‥":{"ha":1264,"x_min":354,"x_max":908,"o":"m 354 500 l 513 500 l 513 340 l 354 340 l 354 500 m 750 500 l 908 500 l 908 340 l 750 340 l 750 500 z "},"…":{"ha":1264,"x_min":181,"x_max":1083,"o":"m 181 500 l 339 500 l 339 340 l 181 340 l 181 500 m 553 500 l 711 500 l 711 340 l 553 340 l 553 500 m 925 500 l 1083 500 l 1083 340 l 925 340 l 925 500 z "},"¨":{"ha":707,"x_min":171,"x_max":536,"o":"m 171 944 l 293 944 l 293 817 l 171 817 l 171 944 m 414 944 l 536 944 l 536 817 l 414 817 l 414 944 z "},"〃":{"ha":1264,"x_min":346,"x_max":918,"o":"m 764 622 l 918 622 l 700 186 l 603 186 l 764 622 m 660 622 l 443 186 l 346 186 l 506 622 l 660 622 z "},"­":{"ha":590,"x_min":0,"x_max":590,"o":"m 590 388 l 0 388 l 0 485 l 590 485 l 590 388 z "},"—":{"ha":1181,"x_min":0,"x_max":1181,"o":"m 1181 388 l 0 388 l 0 485 l 1181 485 l 1181 388 z "},"‖":{"ha":1264,"x_min":471,"x_max":793,"o":"m 793 -250 l 714 -250 l 714 1083 l 793 1083 l 793 -250 m 549 -250 l 471 -250 l 471 1083 l 549 1083 l 549 -250 z "},"＼":{"ha":1264,"x_min":58,"x_max":1206,"o":"m 1206 -171 l 1163 -214 l 58 1007 l 100 1053 l 1206 -171 z "},"∼":{"ha":1264,"x_min":233,"x_max":1031,"o":"m 1031 471 q 992 422 1015 446 q 940 381 968 399 q 882 351 913 363 q 821 340 851 340 q 719 353 761 340 q 632 389 676 365 q 547 427 596 408 q 443 446 499 446 q 354 422 392 446 q 290 358 317 397 l 233 396 q 272 444 249 421 q 324 486 296 468 q 382 515 351 504 q 443 526 413 526 q 545 514 503 526 q 632 478 588 501 q 721 438 676 454 q 821 421 765 421 q 910 445 872 421 q 974 508 947 469 l 1031 471 z "},"‘":{"ha":278,"x_min":39,"x_max":250,"o":"m 192 757 l 39 757 l 143 1074 l 250 1074 l 192 757 z "},"’":{"ha":278,"x_min":28,"x_max":239,"o":"m 86 1053 l 239 1053 l 135 736 l 28 736 l 86 1053 z "},"“":{"ha":486,"x_min":49,"x_max":456,"o":"m 397 757 l 249 757 l 353 1074 l 456 1074 l 397 757 m 197 757 l 49 757 l 153 1074 l 256 1074 l 197 757 z "},"”":{"ha":486,"x_min":31,"x_max":438,"o":"m 89 1053 l 238 1053 l 133 736 l 31 736 l 89 1053 m 289 1053 l 438 1053 l 333 736 l 231 736 l 289 1053 z "},"〔":{"ha":478,"x_min":51,"x_max":432,"o":"m 432 -126 l 388 -203 l 51 -17 l 51 853 l 388 1040 l 432 964 l 144 803 l 144 36 l 432 -126 z "},"〕":{"ha":497,"x_min":56,"x_max":435,"o":"m 435 -17 l 100 -203 l 56 -126 l 342 35 l 342 803 l 56 964 l 100 1040 l 435 853 l 435 -17 z "},"〈":{"ha":649,"x_min":57,"x_max":593,"o":"m 593 -136 l 531 -185 l 57 418 l 529 1021 l 593 974 l 156 418 l 593 -136 z "},"〉":{"ha":663,"x_min":61,"x_max":599,"o":"m 599 418 l 126 -185 l 61 -136 l 499 418 l 61 974 l 125 1021 l 599 418 z "},"《":{"ha":679,"x_min":40,"x_max":638,"o":"m 638 -172 l 572 -210 l 208 418 l 572 1047 l 638 1008 l 297 418 l 638 -172 m 469 -172 l 403 -210 l 40 418 l 403 1047 l 469 1008 l 128 418 l 469 -172 z "},"》":{"ha":681,"x_min":36,"x_max":635,"o":"m 635 418 l 271 -210 l 206 -172 l 547 418 q 507 488 533 442 q 447 592 481 535 q 376 713 413 650 q 306 834 340 776 q 246 938 272 892 q 206 1008 219 985 l 271 1047 l 635 418 m 465 418 l 103 -210 l 36 -172 l 378 418 q 338 488 364 442 q 278 592 311 535 q 208 713 244 650 q 138 834 171 776 q 77 938 104 892 q 36 1008 50 985 l 103 1047 l 465 418 z "},"「":{"ha":488,"x_min":35,"x_max":453,"o":"m 453 974 l 144 974 l 144 464 l 35 464 l 35 1068 l 453 1068 l 453 974 z "},"」":{"ha":488,"x_min":35,"x_max":453,"o":"m 453 -232 l 35 -232 l 35 -137 l 343 -137 l 343 372 l 453 372 l 453 -232 z "},"『":{"ha":515,"x_min":39,"x_max":469,"o":"m 397 954 l 397 999 l 111 999 l 111 532 l 163 532 l 163 954 l 397 954 m 469 886 l 236 886 l 236 464 l 39 464 l 39 1068 l 469 1068 l 469 886 z "},"』":{"ha":508,"x_min":39,"x_max":469,"o":"m 397 -162 l 397 306 l 344 306 l 344 -117 l 111 -117 l 111 -162 l 397 -162 m 469 -231 l 39 -231 l 39 -49 l 272 -49 l 272 374 l 469 374 l 469 -231 z "},"【":{"ha":519,"x_min":32,"x_max":501,"o":"m 32 -181 l 32 1015 l 500 1015 q 363 901 425 967 q 258 759 301 836 q 190 594 214 682 q 167 415 167 507 q 190 238 167 324 q 258 74 214 151 q 363 -67 301 -3 q 501 -181 425 -132 l 32 -181 z "},"】":{"ha":531,"x_min":24,"x_max":493,"o":"m 493 -182 l 24 -182 q 160 -69 99 -133 q 266 73 222 -4 q 334 237 310 150 q 358 415 358 324 q 334 594 358 507 q 266 759 310 682 q 160 901 222 836 q 24 1015 99 967 l 493 1015 l 493 -182 z "},"±":{"ha":847,"x_min":67,"x_max":779,"o":"m 779 156 l 779 39 l 67 39 l 67 156 l 779 156 m 479 903 l 479 624 l 767 624 l 767 507 l 479 507 l 479 208 l 354 208 l 354 507 l 67 507 l 67 624 l 354 624 l 354 903 l 479 903 z "},"×":{"ha":847,"x_min":89,"x_max":750,"o":"m 344 442 l 89 713 l 164 786 l 419 515 l 675 786 l 750 713 l 494 442 l 750 171 l 675 97 l 419 368 l 164 97 l 89 171 l 344 442 z "},"÷":{"ha":847,"x_min":67,"x_max":767,"o":"m 67 500 l 767 500 l 767 383 l 67 383 l 67 500 m 347 785 l 485 785 l 485 650 l 347 650 l 347 785 m 347 233 l 485 233 l 485 99 l 347 99 l 347 233 z "},"≠":{"ha":847,"x_min":103,"x_max":744,"o":"m 103 650 l 493 650 l 606 822 l 717 822 l 604 650 l 744 650 l 744 532 l 526 532 l 413 357 l 744 357 l 744 239 l 335 239 l 225 69 l 114 69 l 224 239 l 103 239 l 103 357 l 301 357 l 415 532 l 103 532 l 103 650 z "},"≤":{"ha":847,"x_min":92,"x_max":751,"o":"m 751 210 l 92 500 l 92 618 l 751 907 l 751 781 l 236 561 l 236 560 l 751 339 l 751 210 m 96 53 l 96 165 l 751 165 l 751 53 l 96 53 z "},"≥":{"ha":847,"x_min":92,"x_max":751,"o":"m 92 339 l 607 560 l 607 561 l 92 781 l 92 907 l 751 618 l 751 500 l 92 210 l 92 339 m 92 53 l 92 165 l 747 165 l 747 53 l 92 53 z "},"∞":{"ha":847,"x_min":13,"x_max":835,"o":"m 214 308 q 261 318 240 308 q 300 344 282 328 q 335 379 318 360 q 372 419 351 399 q 342 456 357 436 q 308 492 326 475 q 267 521 289 510 q 217 532 244 532 q 135 501 164 532 q 107 419 107 471 q 135 339 107 369 q 214 308 164 308 m 636 308 q 713 339 685 308 q 742 419 742 369 q 715 503 742 474 q 635 532 688 532 q 595 523 614 532 q 559 499 576 514 q 525 463 542 483 q 490 421 508 443 q 524 382 507 401 q 560 346 542 363 q 597 319 578 329 q 636 308 615 308 m 631 219 q 568 232 596 219 q 516 264 540 244 q 471 308 492 283 q 431 358 450 333 q 384 303 407 329 q 335 259 361 278 q 278 230 310 240 q 207 219 246 219 q 65 272 117 219 q 13 419 13 325 q 27 499 13 463 q 68 563 42 536 q 133 604 94 589 q 218 619 171 619 q 288 609 258 619 q 342 580 318 599 q 388 536 367 561 q 433 483 410 511 q 476 531 456 507 q 519 575 496 556 q 571 607 542 594 q 642 619 600 619 q 783 567 731 619 q 835 419 835 514 q 821 340 835 376 q 781 277 807 304 q 716 235 754 250 q 631 219 678 219 z "},"∴":{"ha":847,"x_min":75,"x_max":772,"o":"m 261 185 q 234 119 261 146 q 168 92 207 92 q 103 119 131 92 q 75 185 75 146 q 103 249 75 221 q 168 276 131 276 q 234 249 207 276 q 261 185 261 221 m 772 185 q 744 119 772 146 q 679 92 715 92 q 613 119 639 92 q 586 185 586 146 q 613 249 586 221 q 679 276 639 276 q 744 249 715 276 q 772 185 772 221 m 508 701 q 481 635 508 664 q 417 607 454 607 q 351 635 379 607 q 322 701 322 664 q 351 766 322 739 q 417 793 379 793 q 481 766 454 793 q 508 701 508 739 z "},"°":{"ha":433,"x_min":44,"x_max":389,"o":"m 389 846 q 376 778 389 810 q 342 724 364 747 q 288 688 319 701 q 217 674 256 674 q 146 688 178 674 q 92 724 114 701 q 57 778 69 747 q 44 846 44 810 q 57 913 44 881 q 92 967 69 944 q 146 1004 114 990 q 217 1018 178 1018 q 288 1004 256 1018 q 342 967 319 990 q 376 913 364 944 q 389 846 389 881 m 304 846 q 281 910 304 883 q 217 938 257 938 q 153 910 176 938 q 129 846 129 883 q 153 781 129 808 q 217 754 176 754 q 281 781 257 754 q 304 846 304 808 z "},"′":{"ha":594,"x_min":167,"x_max":428,"o":"m 278 1021 l 428 1021 l 240 667 l 167 667 l 278 1021 z "},"″":{"ha":826,"x_min":167,"x_max":660,"o":"m 511 1021 l 660 1021 l 472 667 l 400 667 l 511 1021 m 278 1021 l 426 1021 l 239 667 l 167 667 l 278 1021 z "},"℃":{"ha":1157,"x_min":74,"x_max":1101,"o":"m 1101 76 q 938 -24 1026 4 q 747 -51 849 -51 q 583 -24 657 -51 q 457 58 510 3 q 375 196 404 114 q 346 389 346 278 l 346 540 q 375 732 346 650 q 458 869 404 814 q 585 953 511 925 q 747 981 658 981 q 929 955 851 981 q 1078 874 1007 929 l 1007 761 q 877 835 939 817 q 747 853 815 853 q 642 833 690 853 q 559 774 594 814 q 504 671 524 733 q 485 522 485 608 l 485 407 q 504 258 485 321 q 559 156 524 196 q 642 96 594 115 q 747 76 690 76 q 892 99 819 76 q 1026 182 964 121 l 1101 76 m 346 868 q 336 818 346 842 q 308 777 326 794 q 265 749 290 760 q 210 739 240 739 q 154 749 179 739 q 111 777 129 760 q 83 818 93 794 q 74 868 74 842 q 83 918 74 894 q 111 959 93 942 q 154 987 129 976 q 210 997 179 997 q 265 987 240 997 q 308 959 290 976 q 336 918 326 942 q 346 868 346 894 m 149 867 q 165 821 149 839 q 210 803 182 803 q 253 821 238 803 q 269 867 269 839 q 253 913 269 894 q 210 932 238 932 q 165 913 182 932 q 149 867 149 894 z "},"Å":{"ha":935,"x_min":28,"x_max":907,"o":"m 603 990 q 591 938 603 963 q 560 894 579 913 l 907 -36 l 763 -36 l 657 258 l 274 258 l 168 -36 l 28 -36 l 372 893 q 341 937 353 911 q 329 990 329 963 q 368 1083 329 1044 q 465 1122 407 1122 q 564 1083 525 1122 q 603 990 603 1044 m 315 376 l 615 376 l 532 611 q 513 665 521 642 q 497 709 504 688 q 483 754 490 731 q 465 813 475 778 q 447 753 454 778 q 433 708 440 729 q 419 665 426 688 q 400 611 411 642 l 315 376 m 465 921 q 516 940 497 921 q 535 990 535 958 q 516 1042 535 1022 q 465 1061 497 1061 q 416 1042 435 1061 q 397 990 397 1022 q 416 940 397 958 q 465 921 435 921 z "},"¢":{"ha":707,"x_min":61,"x_max":671,"o":"m 365 965 l 442 965 l 442 835 q 562 806 513 828 q 651 754 611 785 l 588 657 q 513 699 547 685 q 442 718 478 713 l 442 213 q 533 237 494 219 q 606 279 572 254 l 671 181 q 581 126 636 151 q 442 94 525 101 l 442 -36 l 365 -36 l 365 93 q 141 185 221 100 q 61 426 61 271 l 61 510 q 144 747 61 664 q 365 836 228 829 l 365 965 m 194 428 q 208 331 194 371 q 246 266 222 292 q 301 227 269 240 q 365 211 332 214 l 365 719 q 300 703 331 717 q 246 665 269 690 q 208 603 222 640 q 194 511 194 565 l 194 428 z "},"£":{"ha":738,"x_min":53,"x_max":710,"o":"m 74 517 l 171 517 l 171 644 q 197 794 171 731 q 266 900 222 858 q 369 962 310 942 q 496 982 428 982 q 616 967 563 982 q 700 933 669 953 l 654 821 q 581 848 615 840 q 506 856 546 856 q 431 846 467 856 q 367 811 394 836 q 324 744 340 786 q 308 639 308 703 l 308 517 l 593 517 l 593 419 l 308 419 l 308 325 q 305 241 308 276 q 293 178 301 206 q 270 128 285 150 q 232 85 256 106 l 232 82 l 710 82 l 710 -36 l 53 -36 l 53 61 q 107 103 85 79 q 144 157 129 126 q 165 227 158 188 q 171 318 171 267 l 171 419 l 74 419 l 74 517 z "},"¥":{"ha":806,"x_min":28,"x_max":778,"o":"m 339 163 l 107 163 l 107 267 l 339 267 l 339 340 l 107 340 l 107 444 l 314 444 l 28 956 l 171 956 l 406 513 l 413 513 l 647 956 l 778 956 l 492 444 l 701 444 l 701 340 l 468 340 l 468 267 l 701 267 l 701 163 l 468 163 l 468 -36 l 339 -36 l 339 163 z "},"♂":{"ha":1078,"x_min":68,"x_max":1011,"o":"m 171 364 q 192 253 171 306 q 251 160 214 200 q 340 98 289 121 q 453 75 392 75 q 563 98 511 75 q 652 160 614 121 q 713 253 690 200 q 735 364 735 306 q 713 475 735 422 q 652 567 690 528 q 563 630 614 607 q 453 653 511 653 q 340 630 392 653 q 251 567 289 607 q 192 475 214 528 q 171 364 171 422 m 68 364 q 98 513 68 443 q 180 635 128 583 q 302 718 232 688 q 453 749 372 749 q 580 728 521 749 q 689 668 639 707 l 849 826 l 703 826 l 703 921 l 1011 921 l 1011 614 l 915 614 l 915 761 l 756 600 q 816 492 794 551 q 838 364 838 432 q 807 215 838 285 q 724 92 776 144 q 602 10 672 40 q 453 -21 532 -21 q 302 10 372 -21 q 180 92 232 40 q 98 215 128 144 q 68 364 68 285 z "},"♀":{"ha":906,"x_min":68,"x_max":838,"o":"m 171 642 q 192 531 171 583 q 251 438 214 478 q 340 376 289 399 q 453 353 392 353 q 563 376 511 353 q 652 438 614 399 q 713 531 690 478 q 735 642 735 583 q 713 753 735 700 q 652 845 690 806 q 563 908 614 885 q 453 931 511 931 q 340 908 392 931 q 251 845 289 885 q 192 753 214 806 q 171 642 171 700 m 403 260 q 271 302 332 269 q 165 385 210 335 q 94 501 119 436 q 68 642 68 567 q 98 791 68 721 q 180 913 128 861 q 302 996 232 965 q 453 1026 372 1026 q 602 996 532 1026 q 724 913 672 965 q 807 791 776 861 q 838 642 838 721 q 812 501 838 567 q 740 384 786 435 q 633 301 694 333 q 501 260 572 268 l 501 82 l 697 82 l 697 -14 l 501 -14 l 501 -207 l 403 -207 l 403 -14 l 207 -14 l 207 82 l 403 82 l 403 260 z "},"∠":{"ha":1264,"x_min":207,"x_max":1056,"o":"m 1056 0 l 207 0 l 207 68 l 861 831 l 939 765 l 360 97 l 1056 97 l 1056 0 z "},"⊥":{"ha":1264,"x_min":189,"x_max":1075,"o":"m 1075 0 l 189 0 l 189 99 l 581 99 l 581 799 l 682 799 l 682 99 l 1075 99 l 1075 0 z "},"⌒":{"ha":1264,"x_min":265,"x_max":997,"o":"m 897 797 q 797 906 863 861 q 633 950 732 950 q 467 906 533 950 q 365 797 401 861 l 265 797 q 407 960 318 897 q 631 1022 496 1022 q 855 960 767 1022 q 997 797 943 897 l 897 797 z "},"∂":{"ha":739,"x_min":35,"x_max":690,"o":"m 325 88 q 410 112 371 88 q 478 177 449 136 q 526 272 507 218 q 553 383 546 325 q 526 433 543 408 q 483 475 508 457 q 427 504 458 493 q 360 515 396 515 q 283 497 319 515 q 220 448 247 479 q 178 373 193 417 q 163 279 163 329 q 208 138 163 189 q 325 88 254 88 m 79 935 q 174 984 115 958 q 321 1010 233 1010 q 460 977 393 1010 q 578 882 528 944 q 660 728 629 819 q 690 517 690 636 q 659 285 690 385 q 576 118 628 185 q 456 18 524 51 q 313 -15 388 -15 q 190 10 242 -15 q 103 76 138 35 q 51 169 68 117 q 35 276 35 221 q 58 409 35 347 q 122 517 82 471 q 218 590 163 564 q 339 617 274 617 q 419 606 382 617 q 484 576 456 594 q 533 538 513 558 q 565 496 554 517 l 567 496 q 568 518 568 507 q 568 540 568 529 q 547 699 568 631 q 489 813 525 767 q 406 881 453 858 q 311 904 360 904 q 198 886 244 904 q 119 849 151 868 l 79 935 z "},"∇":{"ha":1264,"x_min":85,"x_max":1179,"o":"m 1179 832 l 632 -35 l 85 832 l 1179 832 m 1024 750 l 239 750 l 632 121 l 1024 750 z "},"≡":{"ha":847,"x_min":63,"x_max":783,"o":"m 63 394 l 63 481 l 783 481 l 783 394 l 63 394 m 63 604 l 63 689 l 783 689 l 783 604 l 63 604 m 63 185 l 63 269 l 783 269 l 783 185 l 63 185 z "},"≒":{"ha":847,"x_min":63,"x_max":783,"o":"m 517 119 q 542 181 517 156 q 604 207 568 207 q 665 181 640 207 q 690 119 690 156 q 665 58 690 83 q 604 32 640 32 q 542 58 568 32 q 517 119 517 83 m 153 747 q 178 809 153 783 q 239 835 204 835 q 301 809 275 835 q 326 747 326 783 q 301 686 326 711 q 239 661 275 661 q 178 686 204 661 q 153 747 153 711 m 63 590 l 783 590 l 783 504 l 63 504 l 63 590 m 63 367 l 783 367 l 783 279 l 63 279 l 63 367 z "},"§":{"ha":719,"x_min":42,"x_max":678,"o":"m 281 526 q 193 485 222 515 q 164 406 164 454 q 190 324 164 353 q 282 276 217 296 l 435 229 q 522 274 493 242 q 551 351 551 306 q 545 397 551 378 q 524 432 539 417 q 483 460 508 447 q 421 483 458 472 l 281 526 m 332 -224 q 199 -210 256 -224 q 94 -168 142 -196 l 94 -65 q 142 -84 119 -75 q 192 -100 165 -93 q 248 -111 218 -107 q 318 -115 278 -115 q 449 -85 407 -115 q 492 3 492 -54 q 486 47 492 29 q 467 79 481 65 q 429 104 453 93 q 368 126 406 115 l 243 165 q 163 198 200 179 q 99 244 126 217 q 57 308 72 271 q 42 394 42 344 q 77 510 42 467 q 178 576 113 553 q 127 644 146 604 q 108 744 108 685 q 179 910 108 846 q 389 974 250 974 q 512 958 467 974 q 592 925 557 943 l 592 822 q 509 851 560 838 q 392 865 458 865 q 274 838 317 865 q 231 758 231 811 q 235 713 231 732 q 250 681 239 694 q 280 656 261 667 q 329 636 299 646 l 467 593 q 558 558 518 576 q 624 514 597 540 q 665 451 651 488 q 678 361 678 414 q 642 243 678 286 q 543 176 606 200 q 601 110 582 149 q 619 14 619 71 q 544 -162 619 -101 q 332 -224 468 -224 z "},"※":{"ha":1264,"x_min":92,"x_max":1171,"o":"m 693 425 l 1149 -15 l 1071 -90 l 622 356 q 399 133 510 243 q 175 -90 288 22 l 100 -17 q 326 203 213 94 q 553 424 440 313 l 103 867 l 174 943 l 622 494 l 1074 943 l 1144 868 l 693 425 m 311 422 q 303 383 311 401 q 279 349 294 364 q 244 326 264 335 q 201 317 224 317 q 161 325 181 317 q 126 348 142 333 q 101 382 110 363 q 92 422 92 401 q 101 465 92 444 q 125 499 110 485 q 160 522 140 514 q 200 531 179 531 q 242 522 222 531 q 278 499 263 514 q 302 465 293 485 q 311 422 311 444 m 726 842 q 717 801 726 821 q 694 767 708 782 q 660 744 679 753 q 618 735 640 735 q 576 744 596 735 q 542 767 557 753 q 517 801 526 782 q 508 842 508 821 q 540 917 508 886 q 617 949 572 949 q 659 940 639 949 q 694 917 679 932 q 717 883 708 903 q 726 842 726 864 m 1171 422 q 1162 383 1171 401 q 1138 349 1153 364 q 1103 326 1124 335 q 1061 318 1083 318 q 1020 326 1040 318 q 985 349 1000 335 q 962 383 971 364 q 953 422 953 401 q 985 499 953 468 q 1060 531 1017 531 q 1138 499 1104 531 q 1171 422 1171 468 m 726 -8 q 695 -81 726 -50 q 618 -112 664 -112 q 576 -104 596 -112 q 542 -81 557 -96 q 519 -48 528 -67 q 510 -8 510 -29 q 541 67 510 36 q 617 99 572 99 q 694 67 661 99 q 726 -8 726 36 z "},"☆":{"ha":1264,"x_min":4,"x_max":1258,"o":"m 633 839 l 533 538 l 210 538 l 469 344 l 368 42 l 633 226 l 892 42 l 797 344 l 1054 538 l 735 538 l 633 839 m 786 606 l 1258 606 l 875 321 l 1019 -131 l 635 142 l 243 -131 l 390 321 l 4 606 l 485 606 l 635 1053 l 786 606 z "},"★":{"ha":1264,"x_min":4,"x_max":1258,"o":"m 786 606 l 1258 606 l 875 321 l 1019 -131 l 635 142 l 243 -131 l 390 321 l 4 606 l 485 606 l 635 1053 l 786 606 z "},"○":{"ha":1264,"x_min":129,"x_max":1135,"o":"m 217 464 q 249 302 217 378 q 338 170 282 226 q 470 81 394 114 q 632 49 546 49 q 795 81 719 49 q 927 170 871 114 q 1015 302 983 226 q 1047 464 1047 378 q 1015 626 1047 550 q 927 758 983 701 q 795 847 871 814 q 632 879 719 879 q 470 847 546 879 q 338 758 394 814 q 249 626 282 701 q 217 464 217 550 m 129 464 q 169 659 129 568 q 276 819 208 750 q 436 927 344 888 q 632 967 528 967 q 828 927 736 967 q 988 819 919 888 q 1095 659 1056 750 q 1135 464 1135 568 q 1095 267 1135 360 q 988 107 1056 175 q 828 -1 919 39 q 632 -40 736 -40 q 436 -1 528 -40 q 276 107 344 39 q 169 267 208 175 q 129 464 129 360 z "},"●":{"ha":1264,"x_min":129,"x_max":1135,"o":"m 129 464 q 169 659 129 568 q 276 819 208 750 q 436 927 344 888 q 632 967 528 967 q 828 927 736 967 q 988 819 919 888 q 1095 659 1056 750 q 1135 464 1135 568 q 1095 267 1135 360 q 988 107 1056 175 q 828 -1 919 39 q 632 -40 736 -40 q 436 -1 528 -40 q 276 107 344 39 q 169 267 208 175 q 129 464 129 360 z "},"◎":{"ha":1264,"x_min":129,"x_max":1135,"o":"m 415 464 q 433 380 415 419 q 479 311 450 340 q 548 265 508 282 q 632 247 588 247 q 716 265 676 247 q 785 311 756 282 q 831 380 814 340 q 849 464 849 419 q 831 547 849 507 q 785 616 814 586 q 716 663 756 646 q 632 681 676 681 q 548 663 588 681 q 479 616 508 646 q 433 547 450 586 q 415 464 415 507 m 333 464 q 357 579 333 525 q 421 674 381 633 q 515 739 461 715 q 632 763 569 763 q 749 739 694 763 q 843 674 803 715 q 907 579 883 633 q 931 464 931 525 q 907 347 931 401 q 843 253 883 293 q 749 189 803 213 q 632 165 694 165 q 515 189 569 165 q 421 253 461 213 q 357 347 381 293 q 333 464 333 401 m 219 464 q 252 303 219 378 q 340 172 285 228 q 471 84 396 117 q 632 51 546 51 q 794 84 718 51 q 926 172 869 117 q 1014 303 982 228 q 1046 464 1046 378 q 1014 624 1046 549 q 926 756 982 700 q 794 845 869 813 q 632 878 718 878 q 471 845 546 878 q 340 756 396 813 q 252 624 285 700 q 219 464 219 549 m 129 464 q 169 659 129 568 q 276 819 208 750 q 436 927 344 888 q 632 967 528 967 q 828 927 736 967 q 988 819 919 888 q 1095 659 1056 750 q 1135 464 1135 568 q 1095 267 1135 360 q 988 107 1056 175 q 828 -1 919 39 q 632 -40 736 -40 q 436 -1 528 -40 q 276 107 344 39 q 169 267 208 175 q 129 464 129 360 z "},"◇":{"ha":1264,"x_min":86,"x_max":1176,"o":"m 632 882 l 211 464 l 632 42 l 1050 463 l 632 882 m 632 1008 l 1176 463 l 632 -83 l 86 463 l 632 1008 z "},"◆":{"ha":1264,"x_min":86,"x_max":1178,"o":"m 86 464 l 632 1008 l 1178 463 l 633 -83 l 86 464 z "},"□":{"ha":1264,"x_min":150,"x_max":1114,"o":"m 239 857 l 239 71 l 1026 71 l 1026 857 l 239 857 m 150 944 l 1114 944 l 1114 -19 l 150 -19 l 150 944 z "},"■":{"ha":1264,"x_min":149,"x_max":1114,"o":"m 149 -19 l 149 944 l 1114 944 l 1114 -19 l 149 -19 z "},"△":{"ha":1264,"x_min":115,"x_max":1147,"o":"m 1010 13 l 629 774 l 247 13 l 1010 13 m 115 -67 l 632 958 l 1147 -67 l 115 -67 z "},"▲":{"ha":1264,"x_min":117,"x_max":1146,"o":"m 117 -74 l 632 951 l 1146 -74 l 117 -74 z "},"▽":{"ha":1264,"x_min":115,"x_max":1147,"o":"m 250 840 l 632 79 l 1013 840 l 250 840 m 1147 921 l 632 -104 l 115 921 l 1147 921 z "},"▼":{"ha":1264,"x_min":117,"x_max":1146,"o":"m 1146 921 l 632 -104 l 117 921 l 1146 921 z "},"→":{"ha":1264,"x_min":144,"x_max":1118,"o":"m 144 518 l 913 518 l 808 694 l 829 718 l 1118 478 l 829 238 l 808 261 l 913 436 l 144 436 l 144 518 z "},"←":{"ha":1264,"x_min":144,"x_max":1118,"o":"m 1118 436 l 350 436 l 454 261 l 433 238 l 144 478 l 433 718 l 454 694 l 350 518 l 1118 518 l 1118 436 z "},"↑":{"ha":1264,"x_min":392,"x_max":872,"o":"m 592 0 l 592 768 l 415 664 l 392 685 l 632 974 l 872 685 l 849 664 l 672 768 l 672 0 l 592 0 z "},"↓":{"ha":1264,"x_min":392,"x_max":872,"o":"m 672 954 l 672 188 l 849 290 l 872 269 l 632 -19 l 392 269 l 415 290 l 592 188 l 592 954 l 672 954 z "},"↔":{"ha":1264,"x_min":82,"x_max":1182,"o":"m 392 261 l 371 238 l 82 478 l 371 718 l 392 694 l 288 518 l 976 518 l 872 694 l 893 718 l 1182 478 l 893 238 l 872 261 l 976 436 l 288 436 l 392 261 z "},"〓":{"ha":1264,"x_min":182,"x_max":1082,"o":"m 1082 543 l 182 543 l 182 596 l 1082 596 l 1082 543 m 1082 271 l 182 271 l 182 324 l 1082 324 l 1082 271 z "},"«":{"ha":1264,"x_min":131,"x_max":1133,"o":"m 1133 24 l 1090 -47 l 421 389 l 421 451 l 1079 901 l 1131 833 l 525 421 l 1133 24 m 844 19 l 797 -53 l 131 389 l 131 451 l 788 907 l 838 836 l 235 419 l 844 19 z "},"»":{"ha":1264,"x_min":131,"x_max":1133,"o":"m 1133 389 l 467 -53 l 421 19 l 1029 419 l 426 836 l 478 907 l 1133 451 l 1133 389 m 844 389 l 175 -47 l 131 24 l 739 419 l 135 833 l 186 901 l 844 451 l 844 389 z "},"√":{"ha":781,"x_min":43,"x_max":806,"o":"m 486 -169 l 394 -169 l 174 424 l 69 381 l 43 447 l 238 528 l 433 -37 l 436 -37 l 711 1111 l 806 1111 l 486 -169 z "},"∽":{"ha":1264,"x_min":113,"x_max":1151,"o":"m 1151 439 q 1133 338 1151 386 q 1080 254 1114 290 q 999 197 1046 218 q 897 175 953 175 q 810 191 853 175 q 728 238 768 207 l 772 310 q 897 265 833 265 q 962 278 932 265 q 1013 315 992 292 q 1047 370 1035 339 q 1058 439 1058 401 q 1047 501 1058 471 q 1014 556 1035 532 q 964 595 993 581 q 899 610 935 610 q 774 562 824 610 q 676 425 724 514 q 635 350 660 393 q 574 269 611 307 q 486 203 538 231 q 364 176 435 176 q 272 193 317 176 q 191 242 226 210 q 134 324 156 275 q 113 439 113 374 q 133 550 113 501 q 190 631 154 599 q 269 681 225 664 q 363 699 314 699 q 454 682 411 699 q 536 640 497 665 l 490 567 q 431 596 461 585 q 372 607 401 607 q 252 560 297 607 q 207 439 207 514 q 249 316 207 363 q 371 269 292 269 q 459 292 421 269 q 526 348 497 315 q 576 418 556 381 q 613 485 597 456 q 660 565 633 526 q 722 633 688 604 q 800 681 757 663 q 896 699 843 699 q 999 677 951 699 q 1080 619 1046 656 q 1133 537 1114 583 q 1151 439 1151 490 z "},"∝":{"ha":1264,"x_min":158,"x_max":1104,"o":"m 418 269 q 493 285 460 269 q 553 324 526 300 q 599 378 579 349 q 635 438 619 408 q 599 495 619 465 q 551 550 578 525 q 492 591 525 575 q 418 607 460 607 q 299 560 343 607 q 254 439 254 513 q 297 315 254 361 q 418 269 339 269 m 1057 565 q 1000 597 1029 585 q 943 610 971 610 q 822 564 871 610 q 729 438 774 518 q 822 310 772 356 q 943 265 871 265 q 994 274 967 265 q 1049 296 1022 282 l 1086 218 q 943 175 1013 175 q 860 190 899 175 q 788 228 821 204 q 728 283 756 251 q 681 349 701 315 q 638 288 661 318 q 582 232 614 257 q 508 192 550 207 q 414 176 467 176 q 321 193 367 176 q 239 242 275 210 q 181 324 203 275 q 158 439 158 374 q 180 550 158 501 q 238 631 201 599 q 319 681 274 664 q 413 699 364 699 q 507 683 465 699 q 581 643 549 668 q 637 587 613 618 q 681 525 661 556 q 728 591 701 560 q 787 646 754 622 q 858 684 819 669 q 943 699 897 699 q 1024 683 983 699 q 1104 639 1065 667 l 1057 565 z "},"∵":{"ha":814,"x_min":61,"x_max":749,"o":"m 567 703 q 594 766 567 739 q 658 793 622 793 q 724 766 699 793 q 749 703 749 739 q 724 639 749 665 q 658 613 699 613 q 594 639 622 613 q 567 703 567 665 m 61 703 q 88 766 61 739 q 151 793 115 793 q 217 766 192 793 q 243 703 243 739 q 217 639 243 665 q 151 613 192 613 q 88 639 115 613 q 61 703 61 665 m 315 175 q 342 241 315 215 q 406 267 368 267 q 471 241 444 267 q 497 175 497 215 q 471 112 497 139 q 406 85 444 85 q 342 112 368 85 q 315 175 315 139 z "},"∫":{"ha":442,"x_min":14,"x_max":428,"o":"m 413 993 q 392 997 403 996 q 369 999 381 999 q 334 991 351 999 q 306 968 317 983 q 277 892 286 942 q 268 751 268 843 q 271 594 268 675 q 276 429 274 513 q 282 263 279 346 q 285 100 285 179 q 267 -65 285 -1 q 225 -161 250 -128 q 166 -213 201 -196 q 90 -231 131 -231 q 45 -226 67 -231 q 14 -215 24 -222 l 29 -133 q 52 -138 40 -136 q 79 -140 64 -140 q 142 -112 115 -140 q 170 -44 158 -90 q 182 100 182 1 q 179 264 182 179 q 174 433 176 349 q 168 601 171 518 q 165 760 165 683 q 183 929 165 865 q 240 1033 201 993 q 297 1073 264 1061 q 365 1085 329 1085 q 428 1075 406 1085 l 413 993 z "},"∬":{"ha":771,"x_min":14,"x_max":746,"o":"m 729 993 q 709 997 719 996 q 688 999 699 999 q 651 991 668 999 q 624 968 635 983 q 594 892 603 942 q 585 751 585 843 q 588 594 585 675 q 593 429 590 513 q 599 263 596 346 q 601 100 601 179 q 585 -65 601 -1 q 542 -161 568 -128 q 483 -213 518 -196 q 407 -231 447 -231 q 363 -226 383 -231 q 331 -215 342 -222 l 347 -133 q 369 -138 357 -136 q 397 -140 382 -140 q 430 -134 414 -140 q 458 -112 446 -128 q 488 -44 476 -90 q 500 100 500 1 q 497 264 500 179 q 491 433 494 349 q 485 601 488 518 q 482 760 482 683 q 501 929 482 865 q 557 1033 519 993 q 614 1073 582 1061 q 682 1085 646 1085 q 718 1082 701 1085 q 746 1075 735 1079 l 729 993 m 413 993 q 392 997 403 996 q 369 999 381 999 q 334 991 351 999 q 306 968 317 983 q 277 892 286 942 q 268 751 268 843 q 271 594 268 675 q 276 429 274 513 q 282 263 279 346 q 285 100 285 179 q 267 -65 285 -1 q 225 -161 250 -128 q 166 -213 201 -196 q 90 -231 131 -231 q 45 -226 67 -231 q 14 -215 24 -222 l 29 -133 q 52 -138 40 -136 q 79 -140 64 -140 q 142 -112 115 -140 q 170 -44 158 -90 q 182 100 182 1 q 179 264 182 179 q 174 433 176 349 q 168 601 171 518 q 165 760 165 683 q 183 929 165 865 q 240 1033 201 993 q 297 1073 264 1061 q 365 1085 329 1085 q 428 1075 406 1085 l 413 993 z "},"∈":{"ha":1264,"x_min":156,"x_max":1107,"o":"m 1104 392 l 268 392 q 294 313 275 349 q 348 250 314 276 q 431 209 382 224 q 549 194 481 194 l 1107 194 l 1107 93 l 554 93 q 376 121 451 93 q 251 196 300 149 q 179 307 203 243 q 156 443 156 371 q 178 572 156 511 q 248 677 200 632 q 370 749 296 722 q 549 775 444 775 l 1107 775 l 1107 674 l 549 674 q 433 660 482 674 q 349 621 383 646 q 296 563 315 596 q 269 493 276 531 l 1104 493 l 1104 392 z "},"∋":{"ha":1264,"x_min":156,"x_max":1107,"o":"m 158 493 l 992 493 q 964 563 983 531 q 911 620 944 596 q 830 658 878 644 q 715 672 782 672 l 156 672 l 156 775 l 715 775 q 893 749 819 775 q 1015 677 967 722 q 1085 572 1063 632 q 1107 443 1107 511 q 1083 308 1107 371 q 1010 197 1060 244 q 886 121 961 149 q 708 93 811 93 l 156 93 l 156 196 l 715 196 q 915 251 849 196 q 993 392 981 306 l 158 392 l 158 493 z "},"⊆":{"ha":1264,"x_min":156,"x_max":1107,"o":"m 1104 -15 l 206 -15 l 206 88 l 1104 88 l 1104 -15 m 1107 746 l 549 746 q 417 729 471 746 q 329 684 363 713 q 281 617 296 656 q 265 533 265 578 q 281 444 265 485 q 330 374 296 403 q 418 328 364 344 q 549 311 472 311 l 1107 311 l 1107 208 l 554 208 q 376 233 451 208 q 251 303 300 258 q 179 408 203 347 q 156 538 156 468 q 178 660 156 603 q 248 758 200 717 q 370 824 296 800 q 549 849 444 849 l 1107 849 l 1107 746 z "},"⊇":{"ha":1264,"x_min":156,"x_max":1107,"o":"m 156 849 l 715 849 q 893 824 819 849 q 1015 758 967 800 q 1085 660 1063 717 q 1107 538 1107 603 q 1083 408 1107 468 q 1010 303 1060 347 q 886 233 961 258 q 708 208 811 208 l 156 208 l 156 311 l 715 311 q 845 328 792 311 q 933 374 899 344 q 982 444 967 403 q 997 533 997 485 q 983 617 997 578 q 935 684 968 656 q 847 729 901 713 q 715 746 793 746 l 156 746 l 156 849 m 158 88 l 1057 88 l 1057 -15 l 158 -15 l 158 88 z "},"⊂":{"ha":1264,"x_min":156,"x_max":1107,"o":"m 1107 668 l 549 668 q 417 649 471 668 q 329 599 363 631 q 281 526 296 568 q 265 439 265 485 q 281 344 265 388 q 330 268 296 300 q 418 218 364 236 q 549 200 472 200 l 1107 200 l 1107 97 l 554 97 q 376 124 451 97 q 251 198 300 151 q 179 308 203 244 q 156 443 156 371 q 178 571 156 511 q 248 675 200 631 q 370 745 296 719 q 549 771 444 771 l 1107 771 l 1107 668 z "},"⊃":{"ha":1264,"x_min":156,"x_max":1107,"o":"m 156 771 l 715 771 q 893 745 819 771 q 1015 675 967 719 q 1085 571 1063 631 q 1107 443 1107 511 q 1083 308 1107 371 q 1010 198 1060 244 q 886 124 961 151 q 708 97 811 97 l 156 97 l 156 200 l 715 200 q 845 218 792 200 q 933 268 899 236 q 982 344 967 300 q 997 439 997 388 q 983 526 997 485 q 935 599 968 568 q 847 649 901 631 q 715 668 793 668 l 156 668 l 156 771 z "},"∪":{"ha":1264,"x_min":289,"x_max":974,"o":"m 397 883 l 397 324 q 416 191 397 246 q 466 102 435 136 q 539 52 497 68 q 626 36 581 36 q 722 53 678 36 q 797 104 765 69 q 847 193 829 139 q 865 324 865 247 l 865 883 l 974 883 l 974 331 q 946 152 974 228 q 870 28 918 76 q 758 -44 822 -21 q 622 -68 694 -68 q 494 -46 554 -68 q 388 24 433 -24 q 315 146 342 72 q 289 324 289 219 l 289 883 l 397 883 z "},"∩":{"ha":1264,"x_min":290,"x_max":972,"o":"m 632 883 q 767 860 704 883 q 875 787 829 836 q 947 663 921 738 q 972 485 972 588 l 972 -68 l 864 -68 l 864 492 q 847 623 864 568 q 799 713 829 678 q 726 766 768 749 q 632 783 683 783 q 538 766 581 783 q 464 713 494 749 q 416 623 433 678 q 399 492 399 568 l 399 -68 l 290 -68 l 290 485 q 316 663 290 588 q 388 787 342 738 q 496 860 433 836 q 632 883 558 883 z "},"∧":{"ha":1264,"x_min":185,"x_max":1078,"o":"m 1078 32 l 999 -7 l 632 701 l 264 -7 l 185 32 l 593 821 l 669 821 l 1078 32 z "},"∨":{"ha":1264,"x_min":185,"x_max":1078,"o":"m 1078 793 l 669 4 l 593 4 l 185 793 l 264 832 l 632 122 l 999 832 l 1078 793 z "},"¬":{"ha":1264,"x_min":38,"x_max":1225,"o":"m 1225 -214 l 1139 -214 l 1139 139 l 38 139 l 38 224 l 1225 224 l 1225 -214 z "},"⇒":{"ha":1264,"x_min":0,"x_max":1264,"o":"m 1264 415 l 897 46 l 844 99 l 1000 253 l 0 253 l 0 325 l 1071 325 l 1163 415 l 1071 507 l 0 507 l 0 579 l 999 579 l 844 732 l 897 783 l 1264 415 z "},"⇔":{"ha":1264,"x_min":-1,"x_max":1265,"o":"m 1164 415 l 1072 507 l 192 507 l 100 415 l 192 325 l 1072 325 l 1164 415 m 1265 415 l 899 46 l 846 99 l 1001 253 l 263 253 l 418 99 l 365 46 l -1 415 l 365 783 l 418 732 l 264 579 l 1000 579 l 846 732 l 899 783 l 1265 415 z "},"∀":{"ha":1264,"x_min":192,"x_max":1071,"o":"m 192 965 l 336 965 l 442 671 l 825 671 l 931 965 l 1071 965 l 699 -36 l 565 -36 l 192 965 m 783 553 l 483 553 l 567 318 q 586 264 578 286 q 601 220 594 242 q 615 175 608 199 q 633 117 622 151 q 651 176 643 151 q 665 221 658 200 q 680 264 672 242 q 699 318 688 286 l 783 553 z "},"∃":{"ha":1264,"x_min":315,"x_max":949,"o":"m 949 965 l 949 -36 l 315 -36 l 315 82 l 811 82 l 811 418 l 354 418 l 354 536 l 811 536 l 811 847 l 325 847 l 325 965 l 949 965 z "},"´":{"ha":847,"x_min":267,"x_max":579,"o":"m 267 785 l 418 990 l 579 990 l 390 785 l 267 785 z "},"˜":{"ha":847,"x_min":210,"x_max":636,"o":"m 210 801 q 259 919 218 882 q 347 956 300 956 q 391 948 369 956 q 431 931 413 940 q 467 913 450 921 q 499 906 483 906 q 550 958 539 906 l 636 958 q 619 889 632 918 q 586 841 606 860 q 544 813 567 822 q 499 804 521 804 q 454 812 475 804 q 415 829 433 819 q 379 847 396 839 q 347 854 363 854 q 296 801 306 854 l 210 801 z "},"ˇ":{"ha":847,"x_min":222,"x_max":624,"o":"m 222 983 l 322 983 l 424 872 l 524 983 l 624 983 l 478 778 l 368 778 l 222 983 z "},"˘":{"ha":847,"x_min":235,"x_max":613,"o":"m 424 793 q 291 840 342 793 q 235 967 240 886 l 331 967 q 358 902 338 926 q 424 878 379 878 q 490 902 469 878 q 517 967 510 926 l 613 967 q 558 840 610 886 q 424 793 507 793 z "},"˝":{"ha":847,"x_min":208,"x_max":638,"o":"m 503 985 l 638 985 l 539 778 l 435 778 l 503 985 m 278 985 l 414 985 l 315 778 l 208 778 l 278 985 z "},"˚":{"ha":847,"x_min":286,"x_max":560,"o":"m 422 824 q 473 842 454 824 q 492 893 492 861 q 473 944 492 925 q 422 964 454 964 q 373 944 392 964 q 354 893 354 925 q 373 842 354 861 q 422 824 392 824 m 422 761 q 368 772 393 761 q 325 800 343 782 q 297 842 307 818 q 286 893 286 867 q 325 986 286 947 q 422 1025 364 1025 q 521 986 482 1025 q 560 893 560 947 q 549 842 560 867 q 521 800 539 818 q 477 772 503 782 q 422 761 451 761 z "},"˙":{"ha":847,"x_min":358,"x_max":488,"o":"m 358 947 l 488 947 l 488 817 l 358 817 l 358 947 z "},"¸":{"ha":847,"x_min":299,"x_max":547,"o":"m 299 -203 q 411 -182 378 -196 q 444 -144 444 -168 q 416 -109 444 -118 q 329 -100 388 -100 l 329 33 l 410 33 l 410 -35 q 511 -63 475 -39 q 547 -136 547 -87 q 535 -192 547 -168 q 493 -233 522 -215 q 416 -261 464 -250 q 299 -278 368 -272 l 299 -203 z "},"˛":{"ha":847,"x_min":307,"x_max":540,"o":"m 461 -278 q 347 -245 388 -278 q 307 -156 307 -212 q 319 -101 307 -126 q 349 -54 331 -75 q 390 -18 368 -33 q 431 8 411 -3 l 528 8 q 451 -65 483 -28 q 419 -140 419 -103 q 440 -182 419 -172 q 493 -192 461 -192 q 521 -190 508 -192 q 540 -186 533 -189 l 540 -264 q 506 -274 525 -269 q 461 -278 488 -278 z "},"¡":{"ha":417,"x_min":129,"x_max":288,"o":"m 288 860 l 129 860 l 129 1019 l 288 1019 l 288 860 m 267 717 l 286 -93 l 131 -93 l 150 717 l 267 717 z "},"¿":{"ha":753,"x_min":64,"x_max":676,"o":"m 465 692 l 465 628 q 460 566 465 593 q 440 513 454 539 q 400 457 425 486 q 338 390 375 428 q 274 327 300 353 q 233 280 249 301 q 210 235 217 258 q 203 179 203 213 l 203 161 q 242 69 203 108 q 368 29 282 29 q 492 56 436 29 q 593 129 549 83 l 676 33 q 548 -59 622 -25 q 371 -93 474 -93 q 144 -24 225 -93 q 64 160 64 46 l 64 179 q 78 269 64 231 q 117 342 93 308 q 173 404 142 375 q 236 464 204 433 q 303 542 282 507 q 324 632 324 578 l 324 692 l 465 692 m 472 821 l 314 821 l 314 981 l 472 981 l 472 821 z "},"ː":{"ha":1264,"x_min":506,"x_max":757,"o":"m 757 763 l 631 631 l 506 763 l 757 763 m 757 101 l 506 101 l 631 232 l 757 101 z "},"∮":{"ha":1264,"x_min":342,"x_max":922,"o":"m 597 569 q 524 513 553 553 q 489 415 494 474 q 508 313 483 354 q 581 258 533 272 q 589 417 586 331 q 597 569 590 496 m 786 415 q 763 519 792 474 q 681 575 735 564 q 672 417 674 501 q 669 334 671 374 q 663 257 667 294 q 747 311 714 269 q 786 415 781 353 m 857 872 q 828 913 846 899 q 788 928 811 928 q 729 847 757 928 q 685 617 701 765 q 754 597 722 613 q 810 557 786 582 q 846 497 833 532 q 854 415 858 461 q 833 336 850 371 q 789 276 815 301 q 728 236 763 251 q 658 215 694 221 q 599 -36 639 63 q 544 -122 576 -89 q 469 -156 511 -156 q 342 -74 385 -156 l 403 -37 q 433 -79 415 -64 q 474 -94 450 -94 q 533 -14 504 -94 q 576 217 561 67 q 512 238 542 222 q 460 278 482 253 q 428 338 439 303 q 421 415 417 372 q 441 490 425 457 q 481 549 457 524 q 537 590 506 574 q 601 613 568 606 q 663 869 621 768 q 717 956 685 922 q 792 989 750 989 q 922 901 878 989 l 857 872 z "},"∑":{"ha":793,"x_min":97,"x_max":738,"o":"m 728 965 l 728 847 l 269 847 l 549 461 l 265 82 l 738 82 l 738 -36 l 97 -36 l 97 61 l 393 460 l 97 872 l 97 965 l 728 965 z "},"∏":{"ha":907,"x_min":33,"x_max":874,"o":"m 707 847 l 707 -58 l 569 -58 l 569 847 l 338 847 l 338 -58 l 200 -58 l 200 847 l 33 847 l 33 965 l 874 965 l 874 847 l 707 847 z "},"¤":{"ha":1264,"x_min":139,"x_max":1125,"o":"m 1049 872 l 1125 793 l 961 654 q 1011 553 993 610 q 1029 429 1029 497 q 1008 297 1029 356 q 951 193 988 238 l 1118 44 l 1044 -32 l 885 122 q 765 52 835 78 q 624 26 696 26 q 486 49 553 26 q 371 115 419 72 l 217 -32 l 143 44 l 303 183 q 242 292 267 231 q 218 426 218 353 q 240 555 218 497 q 294 658 261 613 l 139 793 l 217 872 l 363 733 q 481 803 413 778 q 625 828 549 828 q 772 801 701 828 q 894 728 843 774 l 1049 872 m 911 428 q 890 541 911 488 q 830 635 868 594 q 740 698 792 675 q 625 721 688 721 l 624 721 q 510 698 563 721 q 419 635 458 675 q 359 542 381 596 q 338 426 338 489 q 361 306 338 360 q 424 213 385 251 q 516 153 464 175 q 624 132 568 132 q 733 153 681 132 q 824 213 785 174 q 888 306 864 251 q 911 428 911 361 z "},"℉":{"ha":1090,"x_min":74,"x_max":1035,"o":"m 346 868 q 336 818 346 842 q 308 777 326 794 q 265 749 290 760 q 210 739 240 739 q 154 749 179 739 q 111 777 129 760 q 83 818 93 794 q 74 868 74 842 q 83 918 74 894 q 111 959 93 942 q 154 987 129 976 q 210 997 179 997 q 265 987 240 997 q 308 959 290 976 q 336 918 326 942 q 346 868 346 894 m 149 867 q 165 821 149 839 q 210 803 182 803 q 253 821 238 803 q 269 867 269 839 q 253 913 269 894 q 210 932 238 932 q 165 913 182 932 q 149 867 149 894 m 1035 965 l 1035 847 l 553 847 l 553 513 l 1006 513 l 1006 394 l 553 394 l 553 -36 l 415 -36 l 415 965 l 1035 965 z "},"‰":{"ha":1760,"x_min":89,"x_max":1671,"o":"m 258 -35 l 857 965 l 981 965 l 383 -35 l 258 -35 m 315 981 q 481 918 421 981 q 542 746 542 856 l 542 688 q 481 515 542 578 q 315 453 421 453 q 149 515 210 453 q 89 688 89 578 l 89 746 q 149 918 89 856 q 315 981 210 981 m 315 547 q 433 690 433 547 l 433 743 q 315 886 433 886 q 197 743 197 886 l 197 690 q 315 547 197 547 m 925 481 q 1091 418 1031 481 q 1151 246 1151 356 l 1151 188 q 1091 15 1151 78 q 925 -47 1031 -47 q 759 15 819 -47 q 699 188 699 78 l 699 246 q 759 418 699 356 q 925 481 819 481 m 925 47 q 1043 190 1043 47 l 1043 243 q 925 386 1043 386 q 807 243 807 386 l 807 190 q 925 47 807 47 m 1444 481 q 1610 418 1550 481 q 1671 246 1671 356 l 1671 188 q 1610 15 1671 78 q 1444 -47 1550 -47 q 1278 15 1339 -47 q 1218 188 1218 78 l 1218 246 q 1278 418 1218 356 q 1444 481 1339 481 m 1444 47 q 1563 190 1563 47 l 1563 243 q 1444 386 1563 386 q 1326 243 1326 386 l 1326 190 q 1444 47 1326 47 z "},"◁":{"ha":1264,"x_min":199,"x_max":1065,"o":"m 1065 -128 l 199 417 l 1065 964 l 1065 -128 m 997 -4 l 997 840 l 324 417 l 997 -4 z "},"◀":{"ha":1264,"x_min":199,"x_max":1065,"o":"m 1065 -128 l 199 417 l 1065 964 l 1065 -128 z "},"▷":{"ha":1264,"x_min":199,"x_max":1065,"o":"m 1065 417 l 199 -128 l 199 964 l 1065 417 m 939 417 l 265 840 l 265 -4 l 939 417 z "},"▶":{"ha":1264,"x_min":199,"x_max":1065,"o":"m 1065 417 l 199 -128 l 199 964 l 1065 417 z "},"♤":{"ha":1264,"x_min":172,"x_max":1090,"o":"m 1090 278 q 1076 193 1090 232 q 1037 126 1063 154 q 975 81 1011 97 q 896 65 939 65 q 815 83 854 65 q 722 132 776 100 q 730 71 724 106 q 747 0 736 36 q 769 -71 757 -36 q 796 -132 782 -106 q 776 -162 808 -158 q 708 -167 749 -165 q 632 -169 668 -169 q 553 -167 590 -169 q 488 -162 517 -165 q 468 -132 456 -158 q 494 -69 482 -103 q 515 1 506 -35 q 531 70 525 36 q 540 132 538 104 q 448 83 488 100 q 368 65 408 65 q 288 81 324 65 q 226 126 251 97 q 186 193 200 154 q 172 278 172 232 q 214 423 172 339 q 322 603 256 507 q 469 803 388 700 q 632 1007 551 907 q 793 803 711 907 q 941 603 875 700 q 1049 423 1007 507 q 1090 278 1090 339 m 1006 290 q 969 413 1006 340 q 876 568 932 486 q 756 733 821 650 q 632 886 690 817 q 508 733 574 817 q 388 568 443 650 q 295 413 332 486 q 258 290 258 340 q 265 240 258 267 q 287 190 272 213 q 326 153 301 168 q 383 139 350 139 q 439 151 413 139 q 488 180 465 164 q 528 208 511 196 q 558 221 546 221 q 598 201 585 221 q 608 149 611 182 q 597 56 606 106 q 568 -53 588 7 q 567 -70 565 -64 q 585 -78 569 -76 q 606 -80 596 -79 q 632 -81 617 -81 q 657 -80 647 -81 q 679 -78 667 -79 q 697 -70 694 -76 q 697 -53 700 -64 q 668 56 678 7 q 656 149 658 106 q 665 201 653 182 q 706 221 678 221 q 735 208 718 221 q 775 180 753 196 q 824 151 797 164 q 879 139 850 139 q 938 153 914 139 q 976 190 961 168 q 999 240 992 213 q 1006 290 1006 267 z "},"♠":{"ha":1264,"x_min":172,"x_max":1090,"o":"m 1090 278 q 1076 193 1090 232 q 1037 126 1063 154 q 975 81 1011 97 q 896 65 939 65 q 815 83 854 65 q 722 132 776 100 q 730 71 724 106 q 747 0 736 36 q 769 -71 757 -36 q 796 -132 782 -106 q 776 -162 808 -158 q 708 -167 749 -165 q 632 -169 668 -169 q 553 -167 590 -169 q 488 -162 517 -165 q 468 -132 456 -158 q 494 -69 482 -103 q 515 1 506 -35 q 531 70 525 36 q 540 132 538 104 q 448 83 488 100 q 368 65 408 65 q 288 81 324 65 q 226 126 251 97 q 186 193 200 154 q 172 278 172 232 q 214 423 172 339 q 322 603 256 507 q 469 803 388 700 q 632 1007 551 907 q 793 803 711 907 q 941 603 875 700 q 1049 423 1007 507 q 1090 278 1090 339 z "},"♡":{"ha":1264,"x_min":140,"x_max":1122,"o":"m 1122 665 q 1100 526 1122 599 q 1040 381 1078 454 q 953 237 1003 308 q 849 99 903 165 q 738 -28 794 32 q 632 -136 682 -87 q 469 33 556 -64 q 310 238 383 131 q 189 455 238 344 q 140 665 140 565 q 160 774 140 724 q 213 862 179 825 q 292 919 247 899 q 389 940 338 940 q 540 881 479 940 q 632 688 600 822 q 724 881 663 822 q 874 940 785 940 q 970 919 925 940 q 1049 862 1015 899 q 1103 774 1083 825 q 1122 665 1122 724 m 1033 640 q 990 794 1033 736 q 844 853 947 853 q 794 837 817 853 q 753 797 771 821 q 722 743 735 772 q 700 688 708 714 q 674 636 693 660 q 632 613 656 613 q 592 638 608 613 q 568 688 575 664 q 542 747 558 717 q 504 800 525 776 q 462 838 483 824 q 419 853 440 853 q 273 794 317 853 q 229 640 229 735 q 268 474 229 563 q 367 296 307 385 q 497 124 426 207 q 632 -26 568 40 q 766 124 696 40 q 896 296 836 207 q 994 474 956 385 q 1033 640 1033 563 z "},"♥":{"ha":1264,"x_min":140,"x_max":1122,"o":"m 1122 665 q 1100 526 1122 599 q 1040 381 1078 454 q 953 237 1003 308 q 849 99 903 165 q 738 -28 794 32 q 632 -136 682 -87 q 469 33 556 -64 q 310 238 383 131 q 189 455 238 344 q 140 665 140 565 q 160 774 140 724 q 213 862 179 825 q 292 919 247 899 q 389 940 338 940 q 540 881 479 940 q 632 688 600 822 q 724 881 663 822 q 874 940 785 940 q 970 919 925 940 q 1049 862 1015 899 q 1103 774 1083 825 q 1122 665 1122 724 z "},"♧":{"ha":1264,"x_min":72,"x_max":1192,"o":"m 1192 292 q 1174 193 1192 240 q 1126 110 1157 146 q 1051 52 1094 74 q 953 31 1007 31 q 882 42 915 31 q 819 70 849 53 q 767 108 790 88 q 728 146 744 128 q 748 89 738 122 q 766 18 758 56 q 778 -60 774 -19 q 783 -139 783 -100 q 776 -154 783 -149 q 758 -161 768 -160 q 730 -163 740 -162 q 708 -165 719 -164 q 678 -165 696 -165 q 632 -165 661 -165 q 569 -165 599 -165 q 506 -161 540 -164 q 488 -154 496 -160 q 481 -139 481 -149 q 485 -60 481 -100 q 497 18 489 -19 q 514 89 504 56 q 535 146 524 122 q 496 108 519 128 q 443 70 472 88 q 381 42 414 53 q 310 31 347 31 q 212 52 256 31 q 137 110 168 74 q 89 193 106 146 q 72 292 72 240 q 90 386 72 340 q 138 467 107 432 q 210 522 168 501 q 303 543 253 543 q 392 526 350 543 q 475 490 433 510 q 499 486 486 485 q 515 494 511 488 q 517 517 522 506 q 504 536 511 529 q 447 591 471 565 q 407 644 422 617 q 385 701 392 671 q 378 769 378 732 q 399 863 378 821 q 455 935 419 906 q 536 981 490 965 q 632 997 582 997 q 728 981 682 997 q 809 935 774 965 q 865 863 844 906 q 886 769 886 821 q 879 701 886 732 q 856 644 872 671 q 817 591 840 617 q 760 536 793 565 q 747 517 753 529 q 749 494 742 506 q 765 486 753 488 q 789 490 778 485 q 872 526 829 510 q 960 543 914 543 q 1053 522 1010 543 q 1126 467 1096 501 q 1174 386 1157 432 q 1192 292 1192 340 m 1115 297 q 1103 365 1115 332 q 1068 422 1090 397 q 1014 463 1046 447 q 943 478 982 478 q 881 469 910 478 q 826 448 851 460 q 780 427 801 436 q 740 418 758 418 q 689 438 708 418 q 669 489 669 457 q 692 542 669 519 q 740 592 714 565 q 789 658 767 619 q 811 757 811 696 q 797 830 811 799 q 759 883 783 861 q 702 915 735 904 q 632 926 669 926 q 563 915 596 926 q 506 883 531 904 q 467 830 482 861 q 453 757 453 799 q 475 658 453 696 q 523 592 497 619 q 571 542 549 565 q 593 489 593 519 q 574 438 593 457 q 524 418 556 418 q 484 427 506 418 q 438 448 463 436 q 383 469 413 460 q 319 478 353 478 q 249 463 281 478 q 194 422 217 447 q 160 365 172 397 q 149 297 149 332 q 160 225 149 260 q 195 165 172 190 q 251 124 218 139 q 326 108 285 108 q 413 128 376 108 q 476 171 449 147 q 526 214 504 194 q 571 233 549 233 q 590 226 586 233 q 593 204 593 219 q 587 147 593 176 q 572 83 581 118 q 558 8 564 49 q 551 -82 551 -32 q 569 -99 551 -97 q 632 -103 599 -103 q 694 -99 665 -103 q 711 -82 711 -97 q 705 8 711 -32 q 691 83 699 49 q 677 147 683 118 q 671 204 671 176 q 674 226 671 219 q 693 233 678 233 q 736 214 714 233 q 786 171 758 194 q 850 128 814 147 q 936 108 886 108 q 1011 124 978 108 q 1067 165 1044 139 q 1103 225 1090 190 q 1115 297 1115 260 z "},"♣":{"ha":1264,"x_min":72,"x_max":1192,"o":"m 1192 292 q 1174 193 1192 240 q 1126 110 1157 146 q 1051 52 1094 74 q 953 31 1007 31 q 882 42 915 31 q 819 70 849 53 q 767 108 790 88 q 728 146 744 128 q 748 89 738 122 q 766 18 758 56 q 778 -60 774 -19 q 783 -139 783 -100 q 776 -154 783 -149 q 758 -161 768 -160 q 730 -163 740 -162 q 708 -165 719 -164 q 678 -165 696 -165 q 632 -165 661 -165 q 569 -165 599 -165 q 506 -161 540 -164 q 488 -154 496 -160 q 481 -139 481 -149 q 485 -60 481 -100 q 497 18 489 -19 q 514 89 504 56 q 535 146 524 122 q 496 108 519 128 q 443 70 472 88 q 381 42 414 53 q 310 31 347 31 q 212 52 256 31 q 137 110 168 74 q 89 193 106 146 q 72 292 72 240 q 90 386 72 340 q 138 467 107 432 q 210 522 168 501 q 303 543 253 543 q 392 526 350 543 q 475 490 433 510 q 499 486 486 485 q 515 494 511 488 q 517 517 522 506 q 504 536 511 529 q 447 591 471 565 q 407 644 422 617 q 385 701 392 671 q 378 769 378 732 q 399 863 378 821 q 455 935 419 906 q 536 981 490 965 q 632 997 582 997 q 728 981 682 997 q 809 935 774 965 q 865 863 844 906 q 886 769 886 821 q 879 701 886 732 q 856 644 872 671 q 817 591 840 617 q 760 536 793 565 q 747 517 753 529 q 749 494 742 506 q 765 486 753 488 q 789 490 778 485 q 872 526 829 510 q 960 543 914 543 q 1053 522 1010 543 q 1126 467 1096 501 q 1174 386 1157 432 q 1192 292 1192 340 z "},"⊙":{"ha":1264,"x_min":85,"x_max":1179,"o":"m 1179 415 q 1136 202 1179 301 q 1019 28 1093 103 q 845 -89 944 -46 q 632 -132 746 -132 q 420 -89 519 -132 q 247 28 321 -46 q 128 202 172 103 q 85 415 85 301 q 128 628 85 529 q 247 802 172 728 q 420 919 321 876 q 632 963 519 963 q 845 919 746 963 q 1019 802 944 876 q 1136 628 1093 728 q 1179 415 1179 529 m 1101 415 q 1064 597 1101 511 q 963 746 1026 682 q 813 847 899 810 q 632 885 728 885 q 449 847 535 885 q 300 746 364 810 q 199 597 236 682 q 163 415 163 511 q 199 233 163 318 q 300 83 236 147 q 449 -17 364 19 q 632 -54 535 -54 q 813 -17 728 -54 q 963 83 899 19 q 1064 233 1026 147 q 1101 415 1101 318 m 847 415 q 831 331 847 371 q 785 263 814 292 q 716 217 756 233 q 632 200 676 200 q 549 217 588 200 q 481 263 510 233 q 434 331 451 292 q 417 415 417 371 q 434 499 417 460 q 481 568 451 539 q 549 614 510 597 q 632 631 588 631 q 716 614 676 631 q 785 568 756 597 q 831 499 814 539 q 847 415 847 460 z "},"◈":{"ha":1264,"x_min":22,"x_max":1240,"o":"m 1240 414 l 631 -196 l 22 413 l 632 1022 l 1240 414 m 1160 414 l 632 940 l 103 413 l 631 -115 l 1160 414 m 1000 413 l 632 43 l 261 413 l 632 781 l 1000 413 z "},"▣":{"ha":1264,"x_min":110,"x_max":1153,"o":"m 1153 -108 l 110 -108 l 110 933 l 1153 933 l 1153 -108 m 1090 -46 l 1090 871 l 172 871 l 172 -46 l 1090 -46 m 947 96 l 315 96 l 315 728 l 947 728 l 947 96 z "},"◐":{"ha":1264,"x_min":90,"x_max":1174,"o":"m 1174 415 q 1131 204 1174 303 q 1015 32 1089 106 q 843 -84 942 -42 q 632 -126 744 -126 q 422 -84 521 -126 q 250 32 324 -42 q 133 204 176 106 q 90 415 90 303 q 133 626 90 528 q 250 799 176 725 q 422 915 324 872 q 632 957 521 957 q 843 915 744 957 q 1015 799 942 872 q 1131 626 1089 725 q 1174 415 1174 528 m 1119 415 q 1081 604 1119 515 q 976 759 1042 693 q 821 864 910 825 q 632 903 732 903 l 632 -71 q 821 -33 732 -71 q 976 72 910 6 q 1081 227 1042 139 q 1119 415 1119 315 z "},"◑":{"ha":1264,"x_min":90,"x_max":1174,"o":"m 1174 415 q 1131 204 1174 303 q 1014 32 1088 106 q 842 -84 940 -42 q 632 -126 743 -126 q 421 -84 519 -126 q 249 32 322 -42 q 133 204 175 106 q 90 415 90 303 q 133 626 90 528 q 249 799 175 725 q 421 915 322 872 q 632 957 519 957 q 842 915 743 957 q 1014 799 940 872 q 1131 626 1088 725 q 1174 415 1174 528 m 632 903 q 443 864 532 903 q 288 759 354 825 q 183 604 222 693 q 144 415 144 515 q 183 227 144 315 q 288 72 222 139 q 443 -33 354 6 q 632 -71 532 -71 l 632 903 z "},"▒":{"ha":1264,"x_min":115,"x_max":1149,"o":"m 1149 -103 l 115 -103 l 115 929 l 1149 929 l 1149 -103 m 1103 -57 l 1103 883 l 161 883 l 161 -57 l 1103 -57 m 1058 807 q 1048 782 1058 792 q 1022 772 1038 772 q 988 807 988 772 q 997 833 988 822 q 1022 843 1007 843 q 1048 833 1038 843 q 1058 807 1058 822 m 928 807 q 893 772 928 772 q 858 807 858 772 q 868 833 858 822 q 893 843 878 843 q 918 833 908 843 q 928 807 928 822 m 1058 676 q 1048 653 1058 663 q 1022 643 1038 643 q 997 653 1007 643 q 988 676 988 663 q 997 702 988 692 q 1022 713 1007 713 q 1048 702 1038 713 q 1058 676 1058 692 m 928 676 q 918 653 928 663 q 893 643 908 643 q 868 653 878 643 q 858 676 858 663 q 868 702 858 692 q 893 713 878 713 q 918 702 908 713 q 928 676 928 692 m 799 807 q 788 782 799 792 q 763 772 778 772 q 737 782 747 772 q 726 807 726 792 q 737 833 726 822 q 763 843 747 843 q 788 833 778 843 q 799 807 799 822 m 1058 547 q 1048 522 1058 532 q 1022 511 1038 511 q 997 522 1007 511 q 988 547 988 532 q 997 573 988 563 q 1022 583 1007 583 q 1048 573 1038 583 q 1058 547 1058 563 m 799 676 q 788 653 799 663 q 763 643 778 643 q 737 653 747 643 q 726 676 726 663 q 737 702 726 692 q 763 713 747 713 q 788 702 778 713 q 799 676 799 692 m 928 547 q 918 522 928 532 q 893 511 908 511 q 868 522 878 511 q 858 547 858 532 q 868 573 858 563 q 893 583 878 583 q 918 573 908 583 q 928 547 928 563 m 667 807 q 632 772 667 772 q 608 782 618 772 q 597 807 597 792 q 608 833 597 822 q 632 843 618 843 q 657 833 647 843 q 667 807 667 822 m 1058 417 q 1048 392 1058 403 q 1022 382 1038 382 q 997 392 1007 382 q 988 417 988 403 q 1022 451 988 451 q 1048 442 1038 451 q 1058 417 1058 432 m 667 676 q 657 653 667 663 q 632 643 647 643 q 608 653 618 643 q 597 676 597 663 q 608 702 597 692 q 632 713 618 713 q 657 702 647 713 q 667 676 667 692 m 799 547 q 788 522 799 532 q 763 511 778 511 q 737 522 747 511 q 726 547 726 532 q 737 573 726 563 q 763 583 747 583 q 788 573 778 583 q 799 547 799 563 m 928 417 q 918 392 928 403 q 893 382 908 382 q 868 392 878 382 q 858 417 858 403 q 893 451 858 451 q 928 417 928 451 m 538 807 q 527 782 538 792 q 501 772 517 772 q 467 807 467 772 q 476 833 467 822 q 501 843 486 843 q 527 833 517 843 q 538 807 538 822 m 1058 286 q 1048 260 1058 271 q 1022 250 1038 250 q 997 260 1007 250 q 988 286 988 271 q 997 312 988 301 q 1022 322 1007 322 q 1048 312 1038 322 q 1058 286 1058 301 m 538 676 q 527 653 538 663 q 501 643 517 643 q 476 653 486 643 q 467 676 467 663 q 476 702 467 692 q 501 713 486 713 q 527 702 517 713 q 538 676 538 692 m 667 547 q 657 522 667 532 q 632 511 647 511 q 608 522 618 511 q 597 547 597 532 q 608 573 597 563 q 632 583 618 583 q 657 573 647 583 q 667 547 667 563 m 799 417 q 788 392 799 403 q 763 382 778 382 q 737 392 747 382 q 726 417 726 403 q 737 442 726 432 q 763 451 747 451 q 788 442 778 451 q 799 417 799 432 m 928 286 q 918 260 928 271 q 893 250 908 250 q 868 260 878 250 q 858 286 858 271 q 868 312 858 301 q 893 322 878 322 q 918 312 908 322 q 928 286 928 301 m 407 807 q 397 782 407 792 q 372 772 386 772 q 347 782 357 772 q 336 807 336 792 q 347 833 336 822 q 372 843 357 843 q 397 833 386 843 q 407 807 407 822 m 1058 157 q 1048 131 1058 142 q 1022 121 1038 121 q 997 131 1007 121 q 988 157 988 142 q 997 181 988 171 q 1022 190 1007 190 q 1048 181 1038 190 q 1058 157 1058 171 m 276 807 q 243 772 276 772 q 217 782 228 772 q 207 807 207 792 q 217 833 207 822 q 243 843 228 843 q 267 833 258 843 q 276 807 276 822 m 407 676 q 397 653 407 663 q 372 643 386 643 q 347 653 357 643 q 336 676 336 663 q 347 702 336 692 q 372 713 357 713 q 397 702 386 713 q 407 676 407 692 m 538 547 q 527 522 538 532 q 501 511 517 511 q 476 522 486 511 q 467 547 467 532 q 476 573 467 563 q 501 583 486 583 q 527 573 517 583 q 538 547 538 563 m 667 417 q 657 392 667 403 q 632 382 647 382 q 608 392 618 382 q 597 417 597 403 q 608 442 597 432 q 632 451 618 451 q 667 417 667 451 m 799 286 q 788 260 799 271 q 763 250 778 250 q 737 260 747 250 q 726 286 726 271 q 737 312 726 301 q 763 322 747 322 q 788 312 778 322 q 799 286 799 301 m 928 157 q 918 131 928 142 q 893 121 908 121 q 868 131 878 121 q 858 157 858 142 q 868 181 858 171 q 893 190 878 190 q 918 181 908 190 q 928 157 928 171 m 1058 26 q 1048 1 1058 11 q 1022 -10 1038 -10 q 997 1 1007 -10 q 988 26 988 11 q 1022 61 988 61 q 1048 51 1038 61 q 1058 26 1058 42 m 276 676 q 267 653 276 663 q 243 643 258 643 q 217 653 228 643 q 207 676 207 663 q 217 702 207 692 q 243 713 228 713 q 267 702 258 713 q 276 676 276 692 m 928 26 q 918 1 928 11 q 893 -10 908 -10 q 868 1 878 -10 q 858 26 858 11 q 893 61 858 61 q 928 26 928 61 m 407 547 q 397 522 407 532 q 372 511 386 511 q 347 522 357 511 q 336 547 336 532 q 347 573 336 563 q 372 583 357 583 q 397 573 386 583 q 407 547 407 563 m 538 417 q 527 392 538 403 q 501 382 517 382 q 476 392 486 382 q 467 417 467 403 q 501 451 467 451 q 527 442 517 451 q 538 417 538 432 m 667 286 q 657 260 667 271 q 632 250 647 250 q 608 260 618 250 q 597 286 597 271 q 608 312 597 301 q 632 322 618 322 q 657 312 647 322 q 667 286 667 301 m 799 157 q 788 131 799 142 q 763 121 778 121 q 737 131 747 121 q 726 157 726 142 q 737 181 726 171 q 763 190 747 190 q 788 181 778 190 q 799 157 799 171 m 276 547 q 267 522 276 532 q 243 511 258 511 q 217 522 228 511 q 207 547 207 532 q 217 573 207 563 q 243 583 228 583 q 267 573 258 583 q 276 547 276 563 m 799 26 q 788 1 799 11 q 763 -10 778 -10 q 737 1 747 -10 q 726 26 726 11 q 737 51 726 42 q 763 61 747 61 q 788 51 778 61 q 799 26 799 42 m 407 417 q 397 392 407 403 q 372 382 386 382 q 347 392 357 382 q 336 417 336 403 q 347 442 336 432 q 372 451 357 451 q 397 442 386 451 q 407 417 407 432 m 538 286 q 527 260 538 271 q 501 250 517 250 q 476 260 486 250 q 467 286 467 271 q 476 312 467 301 q 501 322 486 322 q 527 312 517 322 q 538 286 538 301 m 667 157 q 657 131 667 142 q 632 121 647 121 q 608 131 618 121 q 597 157 597 142 q 608 181 597 171 q 632 190 618 190 q 657 181 647 190 q 667 157 667 171 m 276 417 q 267 392 276 403 q 243 382 258 382 q 217 392 228 382 q 207 417 207 403 q 217 442 207 432 q 243 451 228 451 q 276 417 276 451 m 667 26 q 657 1 667 11 q 632 -10 647 -10 q 608 1 618 -10 q 597 26 597 11 q 608 51 597 42 q 632 61 618 61 q 667 26 667 61 m 407 286 q 397 260 407 271 q 372 250 386 250 q 347 260 357 250 q 336 286 336 271 q 347 312 336 301 q 372 322 357 322 q 397 312 386 322 q 407 286 407 301 m 538 157 q 527 131 538 142 q 501 121 517 121 q 476 131 486 121 q 467 157 467 142 q 476 181 467 171 q 501 190 486 190 q 527 181 517 190 q 538 157 538 171 m 276 286 q 267 260 276 271 q 243 250 258 250 q 217 260 228 250 q 207 286 207 271 q 217 312 207 301 q 243 322 228 322 q 267 312 258 322 q 276 286 276 301 m 538 26 q 527 1 538 11 q 501 -10 517 -10 q 476 1 486 -10 q 467 26 467 11 q 501 61 467 61 q 527 51 517 61 q 538 26 538 42 m 407 157 q 397 131 407 142 q 372 121 386 121 q 347 131 357 121 q 336 157 336 142 q 347 181 336 171 q 372 190 357 190 q 397 181 386 190 q 407 157 407 171 m 276 157 q 267 131 276 142 q 243 121 258 121 q 217 131 228 121 q 207 157 207 142 q 217 181 207 171 q 243 190 228 190 q 267 181 258 190 q 276 157 276 171 m 407 26 q 397 1 407 11 q 372 -10 386 -10 q 347 1 357 -10 q 336 26 336 11 q 347 51 336 42 q 372 61 357 61 q 397 51 386 61 q 407 26 407 42 m 276 26 q 267 1 276 11 q 243 -10 258 -10 q 217 1 228 -10 q 207 26 207 11 q 217 51 207 42 q 243 61 228 61 q 276 26 276 61 z "},"⭐️":{"ha":1264,"x_min":115,"x_max":1149,"o":"m 1149 -103 l 115 -103 l 115 929 l 1149 929 l 1149 -103 m 1103 789 l 1103 883 l 161 883 l 161 789 l 1103 789 m 1103 643 l 1103 744 l 161 744 l 161 643 l 1103 643 m 1103 507 l 1103 599 l 161 599 l 161 507 l 1103 507 m 1103 364 l 1103 463 l 161 463 l 161 364 l 1103 364 m 1103 219 l 1103 319 l 161 319 l 161 219 l 1103 219 m 1103 81 l 1103 175 l 161 175 l 161 81 l 1103 81 m 1103 -57 l 1103 36 l 161 36 l 161 -57 l 1103 -57 z "},"▥":{"ha":1264,"x_min":115,"x_max":1149,"o":"m 1149 -103 l 115 -103 l 115 929 l 1149 929 l 1149 -103 m 1103 -57 l 1103 883 l 1008 883 l 1008 -57 l 1103 -57 m 964 -57 l 964 883 l 869 883 l 869 -57 l 964 -57 m 825 -57 l 825 883 l 725 883 l 725 -57 l 825 -57 m 681 -57 l 681 883 l 582 883 l 582 -57 l 681 -57 m 538 -57 l 538 883 l 446 883 l 446 -57 l 538 -57 m 401 -57 l 401 883 l 300 883 l 300 -57 l 401 -57 m 256 -57 l 256 883 l 161 883 l 161 -57 l 256 -57 z "},"▨":{"ha":1264,"x_min":115,"x_max":1149,"o":"m 1149 -103 l 115 -103 l 115 929 l 1149 929 l 1149 -103 m 1103 688 l 1103 851 l 194 -57 l 358 -57 l 1103 688 m 1103 457 l 1103 621 l 425 -57 l 589 -57 l 1103 457 m 1103 226 l 1103 390 l 656 -57 l 819 -57 l 1103 226 m 1103 -57 l 1103 160 l 886 -57 l 1103 -57 m 376 883 l 161 883 l 161 669 l 376 883 m 608 883 l 443 883 l 161 603 l 161 438 l 608 883 m 839 883 l 675 883 l 161 371 l 161 207 l 839 883 m 1068 883 l 906 883 l 161 140 l 161 -24 l 1068 883 z "},"▧":{"ha":1264,"x_min":115,"x_max":1149,"o":"m 1149 -103 l 115 -103 l 115 929 l 1149 929 l 1149 -103 m 1103 669 l 1103 883 l 888 883 l 1103 669 m 1103 438 l 1103 603 l 821 883 l 656 883 l 1103 438 m 1103 207 l 1103 371 l 589 883 l 425 883 l 1103 207 m 1103 -24 l 1103 140 l 358 883 l 196 883 l 1103 -24 m 1069 -57 l 161 851 l 161 688 l 906 -57 l 1069 -57 m 839 -57 l 161 621 l 161 457 l 675 -57 l 839 -57 m 608 -57 l 161 390 l 161 226 l 444 -57 l 608 -57 m 378 -57 l 161 160 l 161 -57 l 378 -57 z "},"▦":{"ha":1264,"x_min":115,"x_max":1149,"o":"m 1149 -103 l 115 -103 l 115 929 l 1149 929 l 1149 -103 m 1103 785 l 1103 883 l 1004 883 l 1004 785 l 1103 785 m 1103 644 l 1103 743 l 1004 743 l 1004 644 l 1103 644 m 961 785 l 961 883 l 863 883 l 863 785 l 961 785 m 1103 504 l 1103 603 l 1004 603 l 1004 504 l 1103 504 m 821 785 l 821 883 l 722 883 l 722 785 l 821 785 m 961 644 l 961 743 l 863 743 l 863 644 l 961 644 m 1103 364 l 1103 463 l 1004 463 l 1004 364 l 1103 364 m 681 785 l 681 883 l 582 883 l 582 785 l 681 785 m 821 644 l 821 743 l 722 743 l 722 644 l 821 644 m 961 504 l 961 603 l 863 603 l 863 504 l 961 504 m 1103 224 l 1103 322 l 1004 322 l 1004 224 l 1103 224 m 540 785 l 540 883 l 442 883 l 442 785 l 540 785 m 681 644 l 681 743 l 582 743 l 582 644 l 681 644 m 821 504 l 821 603 l 722 603 l 722 504 l 821 504 m 961 364 l 961 463 l 863 463 l 863 364 l 961 364 m 1103 83 l 1103 182 l 1004 182 l 1004 83 l 1103 83 m 400 785 l 400 883 l 301 883 l 301 785 l 400 785 m 540 644 l 540 743 l 442 743 l 442 644 l 540 644 m 681 504 l 681 603 l 582 603 l 582 504 l 681 504 m 821 364 l 821 463 l 722 463 l 722 364 l 821 364 m 961 224 l 961 322 l 863 322 l 863 224 l 961 224 m 1103 -57 l 1103 42 l 1004 42 l 1004 -57 l 1103 -57 m 260 785 l 260 883 l 161 883 l 161 785 l 260 785 m 400 644 l 400 743 l 301 743 l 301 644 l 400 644 m 540 504 l 540 603 l 442 603 l 442 504 l 540 504 m 681 364 l 681 463 l 582 463 l 582 364 l 681 364 m 821 224 l 821 322 l 722 322 l 722 224 l 821 224 m 961 83 l 961 182 l 863 182 l 863 83 l 961 83 m 961 -57 l 961 42 l 863 42 l 863 -57 l 961 -57 m 260 644 l 260 743 l 161 743 l 161 644 l 260 644 m 400 504 l 400 603 l 301 603 l 301 504 l 400 504 m 540 364 l 540 463 l 442 463 l 442 364 l 540 364 m 681 224 l 681 322 l 582 322 l 582 224 l 681 224 m 821 83 l 821 182 l 722 182 l 722 83 l 821 83 m 821 -57 l 821 42 l 722 42 l 722 -57 l 821 -57 m 260 504 l 260 603 l 161 603 l 161 504 l 260 504 m 400 364 l 400 463 l 301 463 l 301 364 l 400 364 m 540 224 l 540 322 l 442 322 l 442 224 l 540 224 m 681 83 l 681 182 l 582 182 l 582 83 l 681 83 m 681 -57 l 681 42 l 582 42 l 582 -57 l 681 -57 m 260 364 l 260 463 l 161 463 l 161 364 l 260 364 m 400 224 l 400 322 l 301 322 l 301 224 l 400 224 m 540 83 l 540 182 l 442 182 l 442 83 l 540 83 m 540 -57 l 540 42 l 442 42 l 442 -57 l 540 -57 m 260 224 l 260 322 l 161 322 l 161 224 l 260 224 m 400 83 l 400 182 l 301 182 l 301 83 l 400 83 m 400 -57 l 400 42 l 301 42 l 301 -57 l 400 -57 m 260 83 l 260 182 l 161 182 l 161 83 l 260 83 m 260 -57 l 260 42 l 161 42 l 161 -57 l 260 -57 z "},"▩":{"ha":1264,"x_min":115,"x_max":1149,"o":"m 1149 -103 l 115 -103 l 115 929 l 1149 929 l 1149 -103 m 1103 669 l 1103 854 l 1010 761 l 1103 669 m 1067 883 l 888 883 l 976 794 l 1067 883 m 1069 636 l 978 729 l 893 646 l 986 553 l 1069 636 m 943 761 l 854 850 l 771 768 l 861 678 l 943 761 m 822 883 l 656 883 l 739 800 l 822 883 m 1103 436 l 1103 603 l 1019 519 l 1103 436 m 706 768 l 622 850 l 540 768 l 622 686 l 706 768 m 828 646 l 738 733 l 656 653 l 746 564 l 828 646 m 953 521 l 861 613 l 779 531 l 871 438 l 953 521 m 1069 404 l 986 486 l 904 404 l 988 322 l 1069 404 m 589 883 l 425 883 l 507 801 l 589 883 m 1103 207 l 1103 371 l 1021 289 l 1103 207 m 839 404 l 744 497 l 664 415 l 756 324 l 839 404 m 474 768 l 390 851 l 310 769 l 392 688 l 474 768 m 711 531 l 622 619 l 542 538 l 631 449 l 711 531 m 954 289 l 871 371 l 790 290 l 872 207 l 954 289 m 1069 174 l 988 256 l 906 174 l 988 92 l 1069 174 m 589 653 l 506 735 l 425 654 l 508 571 l 589 653 m 358 883 l 196 883 l 276 803 l 358 883 m 1103 -24 l 1103 140 l 1021 58 l 1103 -24 m 1069 -57 l 988 25 l 906 -57 l 1069 -57 m 243 769 l 161 851 l 161 688 l 243 769 m 724 289 l 631 383 l 549 300 l 640 208 l 724 289 m 358 654 l 276 736 l 194 654 l 276 572 l 358 654 m 474 539 l 392 621 l 310 539 l 392 457 l 474 539 m 596 415 l 507 506 l 425 424 l 515 335 l 596 415 m 839 174 l 757 256 l 675 174 l 757 92 l 839 174 m 954 58 l 872 140 l 790 58 l 872 -24 l 954 58 m 839 -57 l 757 25 l 675 -57 l 839 -57 m 243 539 l 161 621 l 161 457 l 243 539 m 358 424 l 276 506 l 194 424 l 276 342 l 358 424 m 481 301 l 392 390 l 310 308 l 399 219 l 481 301 m 608 174 l 515 268 l 432 186 l 525 92 l 608 174 m 724 58 l 642 140 l 560 58 l 642 -24 l 724 58 m 243 308 l 161 390 l 161 228 l 243 308 m 608 -57 l 526 25 l 443 -57 l 608 -57 m 365 186 l 276 275 l 194 193 l 283 104 l 365 186 m 492 60 l 399 153 l 317 71 l 411 -24 l 492 60 m 250 71 l 161 160 l 161 -18 l 250 71 m 378 -57 l 283 38 l 190 -57 l 378 -57 z "},"♨":{"ha":1264,"x_min":78,"x_max":1185,"o":"m 913 414 q 906 321 917 361 q 878 248 894 281 q 842 189 861 215 q 813 140 824 163 q 785 78 794 106 q 774 39 776 51 q 765 29 771 32 q 754 39 758 26 q 748 65 750 49 q 746 101 746 82 q 749 140 746 121 q 760 176 753 160 q 785 246 772 207 q 806 325 799 285 q 812 406 813 365 q 796 483 811 447 q 764 580 772 536 q 758 662 756 624 q 770 735 760 700 q 796 807 781 771 q 810 858 806 831 q 814 903 814 885 q 820 918 814 915 q 833 906 826 921 q 853 835 844 883 q 850 707 861 786 q 850 626 843 658 q 869 565 857 594 q 894 500 881 535 q 913 414 907 465 m 729 397 q 726 329 735 367 q 701 255 717 292 q 669 186 686 218 q 643 135 653 154 q 613 72 622 96 q 601 33 603 47 q 591 22 600 21 q 578 32 582 22 q 567 99 568 54 q 589 203 565 144 q 614 300 610 251 q 614 390 618 349 q 601 463 610 432 q 588 504 593 493 q 556 618 560 568 q 560 708 551 668 q 586 781 569 749 q 617 843 603 814 q 642 917 636 883 q 649 972 649 950 q 656 987 649 988 q 669 975 664 986 q 683 935 676 960 q 691 881 689 911 q 690 816 693 850 q 674 747 686 782 q 658 656 656 697 q 673 576 661 615 q 701 494 685 536 q 729 397 718 451 m 1185 140 q 1140 23 1185 76 q 1021 -69 1096 -31 q 847 -128 946 -107 q 639 -150 749 -150 q 428 -131 529 -150 q 249 -79 326 -112 q 124 1 171 -46 q 78 103 78 47 q 113 201 78 158 q 194 273 147 243 q 289 321 240 303 q 367 347 338 339 q 385 341 382 353 q 369 322 388 329 q 333 305 364 319 q 269 265 303 290 q 207 206 235 240 q 179 131 179 172 q 220 68 179 94 q 326 24 261 42 q 474 -2 392 7 q 640 -11 557 -11 q 806 1 724 -11 q 953 35 888 13 q 1059 88 1018 57 q 1100 160 1100 119 q 1082 214 1100 189 q 1039 259 1064 239 q 986 293 1014 279 q 940 313 958 307 q 928 328 924 318 q 946 335 932 338 q 1006 319 967 332 q 1085 281 1046 306 q 1155 222 1125 257 q 1185 140 1185 186 m 532 363 q 513 260 536 321 q 456 133 490 200 q 431 80 438 100 q 422 47 424 60 q 413 35 421 36 q 399 47 406 35 q 386 101 390 65 q 397 182 382 138 q 413 236 404 201 q 425 313 421 271 q 426 398 429 354 q 407 479 422 442 q 382 572 388 526 q 382 662 376 618 q 402 747 388 706 q 438 826 417 788 q 457 868 449 846 q 469 910 465 890 q 479 920 472 921 q 489 911 486 919 q 497 838 496 890 q 475 703 499 786 q 472 635 467 672 q 490 554 478 597 q 514 463 501 511 q 532 363 526 414 z "},"☏":{"ha":1264,"x_min":32,"x_max":1232,"o":"m 1219 456 q 1192 438 1211 442 q 1147 437 1172 435 q 1092 446 1121 439 q 1038 460 1064 453 q 960 491 994 472 q 919 535 925 510 q 919 560 917 544 q 927 590 922 575 q 936 620 932 606 q 939 644 940 635 q 913 679 933 672 q 865 689 892 686 q 861 621 861 657 q 881 519 861 585 q 903 458 890 483 q 933 411 917 432 q 967 374 949 390 q 1008 339 986 357 q 1063 277 1043 310 q 1092 213 1082 244 q 1103 153 1101 181 q 1106 104 1106 125 q 1123 88 1117 100 q 1133 58 1129 75 q 1136 24 1136 42 q 1135 -7 1136 7 q 1121 -24 1133 -19 q 1088 -29 1108 -29 l 176 -29 q 143 -24 156 -29 q 129 -7 131 -19 q 128 24 128 7 q 131 58 128 42 q 141 88 135 75 q 158 104 147 100 q 160 153 158 125 q 172 213 163 181 q 201 277 182 244 q 256 339 221 310 q 297 374 278 357 q 331 411 315 390 q 360 458 347 432 q 383 519 374 483 q 402 621 401 585 q 399 689 403 657 q 351 679 372 686 q 325 644 331 672 q 326 620 322 635 q 335 590 331 606 q 344 560 340 575 q 344 535 347 544 q 304 491 339 510 q 226 460 269 472 q 172 446 200 453 q 117 437 143 439 q 72 438 92 435 q 44 456 53 442 q 34 496 36 469 q 36 553 32 522 q 52 615 40 583 q 83 671 64 646 q 176 746 117 714 q 308 799 235 778 q 465 830 382 819 q 632 840 549 840 q 799 830 715 840 q 956 799 882 819 q 1088 746 1029 778 q 1181 671 1147 714 q 1212 615 1200 646 q 1228 553 1224 583 q 1230 496 1232 522 q 1219 456 1228 469 m 729 606 l 729 688 q 685 678 711 682 q 632 674 660 674 q 578 678 604 674 q 535 688 553 682 l 535 606 l 729 606 m 1174 481 q 1186 503 1182 482 q 1184 558 1190 525 q 1158 627 1178 590 q 1100 696 1139 664 q 1013 740 1069 719 q 890 774 957 760 q 755 797 824 789 q 632 804 686 804 q 490 797 561 804 q 356 774 418 789 q 243 740 293 760 q 163 696 193 719 q 103 628 122 665 q 78 558 85 590 q 76 504 72 526 q 89 481 81 482 q 145 482 115 478 q 203 494 175 486 q 254 513 231 501 q 294 535 278 524 q 300 556 303 540 q 292 590 297 571 q 284 630 286 608 q 290 671 282 651 q 346 715 301 699 q 482 731 390 731 q 513 728 497 731 q 546 722 528 725 q 589 714 569 717 q 632 711 608 711 q 675 714 656 711 q 718 722 694 717 q 751 728 736 725 q 781 731 765 731 q 915 715 872 731 q 974 671 958 699 q 979 630 982 651 q 972 590 976 608 q 963 556 967 571 q 968 535 960 540 q 1008 513 983 524 q 1060 494 1032 501 q 1118 482 1089 486 q 1174 481 1147 478 m 1078 13 q 1084 24 1082 13 q 1085 49 1086 35 q 1079 78 1085 64 q 1063 100 1074 93 q 1060 141 1063 117 q 1049 192 1057 165 q 1030 244 1042 218 q 1000 286 1018 269 q 947 337 969 315 q 908 377 925 358 q 881 415 892 396 q 860 457 869 433 q 828 585 835 526 q 825 689 821 644 l 768 689 l 768 569 l 496 569 l 496 689 l 438 689 q 435 585 442 644 q 404 457 429 526 q 383 415 394 433 q 354 377 371 396 q 315 337 338 358 q 263 286 293 315 q 233 244 244 269 q 213 192 221 218 q 203 141 206 165 q 200 100 200 117 q 183 78 189 93 q 177 49 178 64 q 179 24 176 35 q 186 13 182 13 l 1078 13 m 857 286 q 839 199 857 240 q 790 128 821 158 q 719 79 760 97 q 632 61 678 61 q 545 79 586 61 q 474 128 504 97 q 425 199 443 158 q 407 286 407 240 q 425 373 407 332 q 474 444 443 414 q 545 493 504 475 q 632 511 586 511 q 719 493 678 511 q 790 444 760 475 q 839 373 821 414 q 857 286 857 332 m 813 286 q 799 356 813 324 q 760 414 785 389 q 702 453 735 439 q 632 467 669 467 q 562 453 594 467 q 504 414 529 439 q 465 356 479 389 q 451 286 451 324 q 465 216 451 249 q 504 159 479 183 q 562 121 529 135 q 632 107 594 107 q 702 121 669 107 q 760 159 735 135 q 799 216 785 183 q 813 286 813 249 z "},"☎":{"ha":1264,"x_min":32,"x_max":1232,"o":"m 1219 456 q 1192 438 1211 442 q 1147 437 1172 435 q 1092 446 1121 439 q 1038 460 1064 453 q 960 491 994 472 q 919 535 925 510 q 920 560 917 544 q 929 590 924 575 q 939 620 935 606 q 942 644 943 635 q 914 682 936 672 q 865 696 892 692 q 861 624 861 664 q 881 519 861 585 q 903 458 890 483 q 933 411 917 432 q 967 374 949 390 q 1008 339 986 357 q 1063 277 1043 310 q 1092 213 1082 244 q 1103 153 1101 181 q 1106 104 1106 125 q 1123 88 1117 100 q 1133 58 1129 75 q 1136 24 1136 42 q 1135 -7 1136 7 q 1121 -24 1133 -19 q 1088 -29 1108 -29 l 176 -29 q 143 -24 156 -29 q 129 -7 131 -19 q 128 24 128 7 q 131 58 128 42 q 141 88 135 75 q 158 104 147 100 q 160 153 158 125 q 172 213 163 181 q 201 277 182 244 q 256 339 221 310 q 297 374 278 357 q 331 411 315 390 q 360 458 347 432 q 383 519 374 483 q 402 624 401 585 q 399 696 403 664 q 350 682 372 692 q 322 644 328 672 q 324 620 319 635 q 333 590 328 606 q 343 560 339 575 q 344 535 347 544 q 304 491 339 510 q 226 460 269 472 q 172 446 200 453 q 117 437 143 439 q 72 438 92 435 q 44 456 53 442 q 34 496 36 469 q 36 553 32 522 q 52 616 40 585 q 83 672 64 647 q 176 747 117 715 q 308 800 235 779 q 465 831 382 821 q 632 840 549 840 q 799 831 715 840 q 956 800 882 821 q 1088 747 1029 779 q 1181 672 1147 715 q 1212 616 1200 647 q 1228 553 1224 585 q 1230 496 1232 522 q 1219 456 1228 469 m 740 610 l 740 700 q 692 690 721 694 q 632 686 663 686 q 572 690 601 686 q 524 700 543 694 l 524 610 l 740 610 m 836 289 q 820 368 836 331 q 776 433 804 406 q 711 477 749 461 q 632 493 674 493 q 553 477 590 493 q 488 433 515 461 q 444 368 460 406 q 428 289 428 331 q 444 210 428 247 q 488 145 460 172 q 553 102 515 118 q 632 86 590 86 q 711 102 674 86 q 776 145 749 118 q 820 210 804 172 q 836 289 836 247 z "},"☜":{"ha":1264,"x_min":86,"x_max":1176,"o":"m 1176 256 l 1071 256 l 1071 285 l 1031 285 q 941 243 994 263 q 797 208 888 224 q 735 203 772 204 q 660 201 699 201 q 587 203 622 201 q 529 208 551 206 q 481 222 504 213 q 453 254 458 231 q 456 281 450 271 q 474 299 463 292 q 438 311 454 299 q 421 344 422 324 q 424 369 419 360 q 436 386 429 379 q 401 399 417 389 q 386 432 386 408 q 413 475 386 463 q 500 488 439 488 l 496 499 q 436 501 463 500 q 383 502 410 501 q 326 504 356 503 q 258 508 297 506 q 199 511 229 510 q 143 518 168 513 q 102 535 118 524 q 86 568 86 547 q 99 596 86 586 q 133 610 111 606 q 185 617 156 615 q 250 622 215 619 q 313 625 269 624 q 411 627 356 626 q 528 628 467 628 q 649 629 590 629 q 738 628 693 629 q 827 621 783 628 q 912 597 871 614 q 989 547 953 581 q 1033 540 1011 542 q 1072 539 1056 538 l 1072 583 l 1176 583 l 1176 256 m 1072 301 l 1072 515 q 1042 515 1061 514 q 1011 519 1024 517 l 1014 508 q 1014 494 1017 494 q 1004 501 1011 493 q 973 533 993 515 q 924 569 953 550 q 867 592 903 583 q 792 604 831 600 q 719 609 754 608 q 667 607 685 610 q 621 595 647 604 q 575 574 594 586 q 558 557 564 567 q 544 536 551 547 q 518 503 533 513 q 522 490 513 496 q 561 496 532 485 q 586 510 575 501 q 606 527 597 519 q 619 540 614 535 q 628 540 625 544 q 622 519 635 532 q 651 513 633 515 q 679 514 668 511 q 721 531 707 521 q 738 536 735 542 q 735 520 740 529 q 718 504 729 511 q 755 469 726 492 q 828 432 783 447 q 879 419 856 422 q 919 413 903 415 q 946 409 936 411 q 956 401 956 407 q 943 396 956 397 q 912 396 931 394 q 872 401 893 397 q 835 408 851 404 q 783 431 806 418 q 742 456 760 443 q 713 481 725 469 q 696 501 701 493 q 680 497 689 497 q 664 496 671 496 q 628 500 644 497 q 606 506 613 503 l 585 488 q 646 478 621 488 q 675 453 671 469 q 676 419 681 433 q 660 396 671 404 q 703 357 699 386 q 699 328 706 338 q 682 313 693 319 q 726 274 722 304 q 720 240 731 251 q 708 228 710 228 q 757 228 728 224 q 853 241 811 232 q 929 261 896 250 q 989 286 963 272 q 1038 314 1015 300 q 1045 318 1042 318 q 1047 313 1049 318 l 1044 301 l 1072 301 m 596 607 q 437 606 528 607 q 251 601 346 604 q 147 594 185 599 q 110 568 110 589 q 142 541 110 546 q 251 531 174 536 q 396 524 338 526 q 511 519 454 521 l 540 564 q 564 590 551 579 q 596 607 576 600 m 1154 278 l 1154 560 l 1093 560 l 1093 278 l 1154 278 m 681 343 q 672 372 682 364 q 642 382 663 379 q 610 383 632 383 q 562 383 588 383 q 513 383 536 383 q 476 382 489 382 q 453 371 463 381 q 444 347 444 361 q 479 319 444 325 q 512 317 486 318 q 565 315 538 315 q 614 315 592 315 q 638 315 636 315 q 665 322 651 315 q 681 343 679 328 m 704 269 q 688 290 703 285 q 661 294 674 294 q 579 296 624 296 q 504 293 535 296 q 483 281 489 292 q 479 260 476 271 q 487 244 481 251 q 504 235 493 238 q 584 227 540 228 q 663 229 628 226 q 704 269 708 232 m 649 439 q 642 454 649 447 q 621 463 636 461 q 524 467 569 465 q 435 463 479 468 q 414 451 421 460 q 408 432 407 443 q 415 414 408 422 q 436 406 422 406 q 483 404 457 404 q 535 404 510 404 q 584 406 561 404 q 622 408 607 407 q 641 417 633 411 q 649 439 649 424 z "},"☞":{"ha":1264,"x_min":86,"x_max":1176,"o":"m 1176 568 q 1160 535 1176 547 q 1119 518 1144 524 q 1064 511 1094 513 q 1004 508 1033 510 q 936 504 965 506 q 880 502 907 503 q 826 501 853 501 q 767 499 800 500 l 763 488 q 850 475 824 488 q 876 432 876 463 q 861 399 876 408 q 826 386 846 389 q 838 369 833 379 q 842 344 843 360 q 824 311 840 324 q 789 299 808 299 q 806 281 800 292 q 810 254 813 271 q 781 222 804 231 q 733 208 758 213 q 676 203 711 206 q 602 201 640 201 q 527 203 564 201 q 465 208 490 204 q 322 243 375 224 q 232 285 268 263 l 192 285 l 192 256 l 86 256 l 86 583 l 190 583 l 190 539 q 229 540 207 538 q 274 547 251 542 q 351 597 310 581 q 435 621 392 614 q 524 628 479 628 q 614 629 569 629 q 734 628 672 629 q 851 627 796 628 q 950 625 907 626 q 1013 622 993 624 q 1077 617 1047 619 q 1129 610 1107 615 q 1164 596 1151 606 q 1176 568 1176 586 m 744 503 q 718 536 729 513 q 705 557 711 547 q 688 574 699 567 q 642 595 668 586 q 596 607 615 604 q 542 609 576 610 q 470 604 508 608 q 396 592 432 600 q 339 569 360 583 q 290 533 310 550 q 258 501 269 515 q 249 494 251 493 q 249 508 246 494 l 251 519 q 220 515 239 517 q 190 515 201 514 l 190 301 l 218 301 l 215 313 q 217 317 213 318 q 225 314 221 317 q 333 262 268 286 q 506 228 397 238 q 553 228 533 224 q 541 241 550 229 q 536 274 532 253 q 581 313 540 304 q 563 328 569 319 q 560 357 557 338 q 603 396 567 386 q 587 419 592 404 q 588 453 582 433 q 617 478 593 469 q 678 488 642 488 l 657 506 q 634 500 650 503 q 599 496 618 497 q 583 497 592 496 q 567 501 574 497 q 549 481 561 493 q 520 456 538 469 q 480 431 503 443 q 428 408 457 418 q 390 401 411 404 q 351 396 369 397 q 319 396 332 394 q 307 401 307 397 q 317 409 307 407 q 343 413 326 411 q 383 419 360 415 q 435 432 407 422 q 508 469 479 447 q 544 504 536 492 q 528 520 533 511 q 525 536 522 529 q 542 531 528 542 q 583 514 556 521 q 612 513 594 511 q 640 519 629 515 q 633 531 635 525 q 635 540 631 536 q 643 540 638 544 q 657 527 649 535 q 676 510 665 519 q 701 496 688 501 q 740 490 731 485 q 744 503 750 496 m 1153 568 q 1115 594 1153 589 q 1011 601 1078 599 q 826 606 917 604 q 667 607 735 607 q 699 590 686 600 q 722 564 711 579 l 751 519 q 867 524 808 521 q 1011 531 925 526 q 1121 541 1089 536 q 1153 568 1153 546 m 169 278 l 169 560 l 108 560 l 108 278 l 169 278 m 818 347 q 809 371 818 361 q 786 382 800 381 q 750 383 774 382 q 701 383 726 383 q 653 383 675 383 q 621 382 631 383 q 591 372 601 379 q 582 343 581 364 q 597 322 583 328 q 625 315 611 315 q 649 315 626 315 q 698 315 671 315 q 751 317 725 315 q 783 319 776 318 q 818 347 818 325 m 783 260 q 780 281 786 271 q 758 293 774 292 q 683 296 728 296 q 601 294 639 296 q 574 290 589 294 q 558 269 560 285 q 600 229 554 232 q 678 227 635 226 q 758 235 722 228 q 776 244 769 238 q 783 260 782 251 m 854 432 q 849 451 856 443 q 828 463 842 460 q 738 467 783 468 q 642 463 693 465 q 620 454 626 461 q 614 439 614 447 q 622 417 614 424 q 640 408 629 411 q 678 406 656 407 q 727 404 701 404 q 779 404 753 404 q 826 406 806 404 q 847 414 840 406 q 854 432 854 422 z "},"¶":{"ha":811,"x_min":44,"x_max":700,"o":"m 394 485 l 325 485 q 219 501 269 485 q 129 549 168 517 q 67 628 90 581 q 44 738 44 675 q 62 835 44 789 q 117 917 79 882 q 218 974 156 953 q 372 994 281 994 l 700 994 l 700 -169 l 607 -169 l 607 913 l 488 913 l 488 -169 l 394 -169 l 394 485 z "},"†":{"ha":685,"x_min":56,"x_max":629,"o":"m 285 574 l 56 574 l 56 683 l 285 683 l 285 964 l 400 964 l 400 683 l 629 683 l 629 574 l 400 574 l 400 -126 l 285 -126 l 285 574 z "},"‡":{"ha":685,"x_min":56,"x_max":629,"o":"m 56 264 l 285 264 l 285 574 l 56 574 l 56 683 l 285 683 l 285 964 l 400 964 l 400 683 l 629 683 l 629 574 l 400 574 l 400 264 l 629 264 l 629 154 l 400 154 l 400 -126 l 285 -126 l 285 154 l 56 154 l 56 264 z "},"↕":{"ha":1264,"x_min":392,"x_max":872,"o":"m 672 768 l 672 188 l 849 290 l 872 269 l 632 -19 l 392 269 l 415 290 l 592 188 l 592 768 l 415 664 l 392 685 l 632 974 l 872 685 l 849 664 l 672 768 z "},"↗":{"ha":1264,"x_min":140,"x_max":1122,"o":"m 140 43 l 947 850 l 750 900 l 749 932 l 1122 967 l 1088 593 l 1056 594 l 1006 792 l 197 -15 l 140 43 z "},"↙":{"ha":1264,"x_min":140,"x_max":1124,"o":"m 1124 913 l 315 106 l 513 54 l 515 22 l 140 -12 l 175 363 l 207 360 l 258 163 l 1067 969 l 1124 913 z "},"↖":{"ha":1264,"x_min":140,"x_max":1122,"o":"m 1065 -15 l 257 792 l 207 594 l 175 593 l 140 967 l 514 932 l 513 900 l 315 850 l 1122 43 l 1065 -15 z "},"↘":{"ha":1264,"x_min":140,"x_max":1124,"o":"m 197 969 l 1006 163 l 1057 360 l 1089 363 l 1124 -12 l 749 22 l 751 54 l 949 106 l 140 913 l 197 969 z "},"♭":{"ha":718,"x_min":138,"x_max":581,"o":"m 475 318 q 468 388 475 356 q 449 443 461 419 q 417 481 436 467 q 376 494 399 494 q 309 478 338 494 q 262 437 281 461 q 234 384 243 413 q 225 331 225 356 l 225 33 q 310 53 265 36 q 391 103 354 69 q 451 189 428 136 q 475 318 475 242 m 581 369 q 560 231 581 292 q 507 127 540 171 q 429 53 474 83 q 335 5 385 24 q 235 -23 286 -14 q 138 -35 183 -32 l 138 889 l 225 889 l 225 433 q 247 478 233 456 q 283 521 260 501 q 339 553 306 540 q 419 565 372 565 q 482 551 453 565 q 533 512 511 538 q 568 450 556 486 q 581 369 581 414 z "},"♩":{"ha":539,"x_min":138,"x_max":400,"o":"m 400 160 q 391 61 400 100 q 351 -14 382 22 q 307 -55 332 -36 q 255 -83 282 -74 q 202 -90 228 -93 q 158 -65 176 -86 q 138 -18 139 -44 q 149 35 138 8 q 183 84 161 61 q 229 122 204 107 q 347 163 281 153 l 347 919 l 400 919 l 400 160 z "},"♪":{"ha":749,"x_min":82,"x_max":665,"o":"m 665 471 q 653 385 665 429 q 611 297 640 342 q 542 216 583 256 q 463 154 500 176 q 442 152 447 144 q 449 171 438 160 q 490 215 467 189 q 535 276 514 242 q 572 351 557 310 q 586 439 586 392 q 560 517 586 485 q 496 572 533 549 q 417 608 458 594 q 344 632 375 622 l 344 160 q 335 61 344 100 q 296 -14 326 22 q 251 -55 276 -36 q 199 -83 226 -74 q 147 -90 172 -93 q 103 -65 121 -86 q 83 -18 83 -44 q 94 35 82 8 q 127 84 106 61 q 174 122 149 107 q 292 163 225 153 l 292 857 q 293 894 292 875 q 304 913 294 913 q 322 906 314 913 q 347 879 331 899 q 386 835 365 858 q 444 781 407 813 q 547 686 504 729 q 615 606 589 643 q 653 535 642 568 q 665 471 665 503 z "},"♬":{"ha":963,"x_min":75,"x_max":886,"o":"m 831 675 l 831 756 l 349 653 l 349 572 l 831 675 m 886 265 q 860 175 886 217 q 793 100 833 133 q 752 72 775 85 q 706 56 729 60 q 662 56 683 51 q 625 82 640 61 q 614 119 613 97 q 625 163 615 140 q 651 205 635 185 q 685 239 667 225 q 759 277 725 268 q 831 292 793 286 l 831 544 l 349 440 l 349 131 q 322 40 349 82 q 256 -35 296 -1 q 215 -62 238 -50 q 169 -79 192 -75 q 124 -78 146 -83 q 88 -53 103 -74 q 76 -16 75 -37 q 88 28 78 6 q 113 70 97 50 q 147 104 129 90 q 222 142 188 133 q 293 157 256 151 l 293 776 l 886 896 l 886 265 z "},"㉿":{"ha":1250,"x_min":42,"x_max":1222,"o":"m 1222 418 q 1180 190 1222 297 q 1060 2 1138 82 q 873 -125 982 -78 q 631 -172 764 -172 q 423 -137 518 -172 q 254 -42 328 -103 q 129 103 181 19 q 56 288 78 188 l 164 289 q 225 143 185 210 q 324 28 265 76 q 460 -47 383 -19 q 631 -74 538 -74 q 826 -37 738 -74 q 978 61 914 -1 q 1078 208 1042 124 q 1121 389 1115 292 l 878 389 l 878 489 l 1218 489 q 1222 418 1222 453 m 1075 614 q 1006 734 1047 679 q 908 828 964 789 q 783 888 853 867 q 631 910 714 910 q 447 878 531 910 q 302 790 364 846 q 200 656 240 733 q 146 489 160 579 l 315 489 l 315 389 l 42 389 l 42 418 q 85 646 42 539 q 205 833 128 753 q 390 960 282 913 q 631 1007 499 1007 q 822 978 735 1007 q 978 899 908 950 q 1100 774 1049 847 q 1185 614 1151 701 l 1075 614 m 683 486 l 942 115 l 803 115 l 607 407 l 518 317 l 518 115 l 407 115 l 407 739 l 518 739 l 518 451 l 788 739 l 931 739 l 683 486 z "},"㈜":{"ha":1264,"x_min":32,"x_max":1232,"o":"m 158 381 q 200 67 158 222 q 349 -236 242 -89 l 236 -236 q 82 44 132 -112 q 32 388 32 201 l 32 443 q 82 785 32 629 q 236 1064 132 940 l 349 1064 q 202 772 246 925 q 158 450 158 618 l 158 381 m 1106 450 q 1062 772 1106 618 q 915 1064 1018 925 l 1028 1064 q 1182 785 1132 940 q 1232 443 1232 629 l 1232 388 q 1182 44 1232 201 q 1028 -236 1132 -112 l 915 -236 q 1064 67 1022 -89 q 1106 381 1106 222 l 1106 450 m 938 836 l 938 744 l 683 744 l 683 721 q 687 696 683 710 q 717 661 690 682 q 803 609 744 640 q 975 531 863 578 l 929 442 q 781 508 838 481 q 694 553 725 535 q 649 582 663 571 q 631 600 636 593 q 611 582 624 593 q 567 553 599 571 q 481 508 536 535 q 332 442 425 481 q 308 486 319 464 q 286 531 297 508 q 458 609 399 578 q 544 661 518 640 q 574 695 571 682 q 578 721 578 708 l 578 744 l 325 744 l 325 836 l 938 836 m 1044 376 l 1044 285 l 685 285 l 685 -12 l 578 -12 l 578 285 l 218 285 l 218 376 l 1044 376 z "},"№":{"ha":1250,"x_min":92,"x_max":1185,"o":"m 250 965 l 486 322 q 509 255 496 294 q 533 144 522 215 l 533 965 l 656 965 l 656 -36 l 497 -36 l 258 607 q 234 682 247 638 q 214 785 221 726 l 214 -36 l 92 -36 l 92 965 l 250 965 m 947 711 q 1121 645 1057 711 q 1185 454 1185 579 l 1185 393 q 1121 201 1185 268 q 947 135 1057 135 q 775 201 839 135 q 711 393 711 268 l 711 454 q 775 645 711 579 q 947 711 839 711 m 947 239 q 1037 278 1006 239 q 1068 403 1068 318 l 1068 443 q 1037 567 1068 528 q 947 607 1006 607 q 858 567 889 607 q 828 443 828 528 l 828 403 q 858 278 828 318 q 947 239 889 239 m 750 71 l 1146 71 l 1146 -36 l 750 -36 l 750 71 z "},"㏇":{"ha":1250,"x_min":44,"x_max":1246,"o":"m 1150 72 l 1246 72 l 1246 -36 l 1150 -36 l 1150 72 m 896 -51 q 677 56 746 -51 q 608 385 608 163 l 608 544 q 678 872 608 764 q 896 981 747 981 q 1114 872 1044 981 q 1183 544 1183 764 l 1183 385 q 1115 56 1183 163 q 896 -51 1046 -51 m 896 863 q 775 784 810 863 q 740 529 740 706 l 740 400 q 775 145 740 224 q 896 67 810 67 q 1017 145 982 67 q 1051 400 1051 224 l 1051 529 q 1017 784 1051 706 q 896 863 982 863 m 625 60 q 500 -28 565 -6 q 363 -51 435 -51 q 122 56 199 -51 q 44 389 44 163 l 44 540 q 67 738 44 654 q 130 875 89 821 q 228 955 171 929 q 358 981 286 981 q 492 959 431 981 q 607 886 553 938 l 531 793 q 440 849 481 839 q 358 860 399 860 q 283 842 317 860 q 226 785 250 825 q 189 683 201 746 q 176 526 176 619 l 176 403 q 226 147 176 225 q 363 69 275 69 q 461 88 415 69 q 546 153 507 106 l 625 60 z "},"™":{"ha":1007,"x_min":28,"x_max":942,"o":"m 161 883 l 28 883 l 28 965 l 400 965 l 400 883 l 267 883 l 267 513 l 161 513 l 161 883 m 447 965 l 575 965 l 692 704 l 696 704 l 817 965 l 942 965 l 942 513 l 843 513 l 843 832 l 842 832 l 733 601 l 651 601 l 540 840 l 538 840 l 538 513 l 447 513 l 447 965 z "},"㏂":{"ha":1264,"x_min":26,"x_max":1243,"o":"m 367 -36 l 269 -36 l 269 33 q 233 -24 258 -3 q 164 -46 208 -46 q 67 2 108 -46 q 26 154 26 50 l 26 194 q 74 358 26 299 q 219 418 122 418 l 253 418 l 253 513 q 240 590 253 561 q 188 619 226 619 q 142 609 164 619 q 96 571 121 599 l 31 651 q 98 703 58 679 q 193 726 138 726 q 264 717 232 726 q 319 683 296 707 q 354 619 342 660 q 367 519 367 579 l 367 -36 m 254 317 l 221 317 q 143 189 143 317 l 143 164 q 152 88 143 119 q 193 56 161 56 q 221 66 210 56 q 240 93 232 76 q 251 131 247 110 q 254 172 254 151 l 254 317 m 508 713 l 610 713 l 610 635 q 648 697 619 668 q 724 726 676 726 q 792 707 760 726 q 839 629 824 688 q 885 698 854 669 q 969 726 917 726 q 1078 683 1035 726 q 1122 539 1122 639 l 1122 -36 l 1006 -36 l 1006 489 q 994 583 1006 551 q 942 615 983 615 q 890 579 906 615 q 874 486 874 543 l 874 -36 l 757 -36 l 757 501 q 742 591 757 567 q 694 615 726 615 q 642 580 658 615 q 625 478 625 544 l 625 -36 l 508 -36 l 508 713 m 1147 72 l 1243 72 l 1243 -36 l 1147 -36 l 1147 72 m 389 72 l 485 72 l 485 -36 l 389 -36 l 389 72 z "},"㏘":{"ha":1264,"x_min":38,"x_max":1246,"o":"m 154 -333 l 38 -333 l 38 713 l 146 713 l 146 635 q 183 701 157 676 q 249 726 208 726 q 365 652 332 726 q 399 419 399 578 l 399 260 q 390 114 399 172 q 363 19 381 56 q 317 -32 344 -17 q 250 -47 289 -47 q 190 -29 214 -47 q 154 15 165 -11 l 154 -333 m 522 713 l 624 713 l 624 635 q 661 697 633 668 q 736 726 689 726 q 806 704 772 726 q 850 629 840 682 q 894 698 861 669 q 972 726 928 726 q 1081 683 1038 726 q 1125 539 1125 639 l 1125 -36 l 1008 -36 l 1008 490 q 996 584 1008 553 q 949 615 983 615 q 900 583 915 615 q 885 490 885 551 l 885 -36 l 760 -36 l 760 503 q 745 592 760 568 q 701 615 731 615 q 656 584 672 615 q 639 482 639 553 l 639 -36 l 522 -36 l 522 713 m 282 406 q 269 570 282 525 q 221 615 256 615 q 187 602 200 615 q 167 567 174 589 q 157 514 160 544 q 154 450 154 483 l 154 213 q 168 103 154 146 q 224 61 182 61 q 249 68 238 61 q 267 97 260 75 q 278 158 274 119 q 282 263 282 197 l 282 406 m 401 72 l 497 72 l 497 -36 l 401 -36 l 401 72 m 1150 72 l 1246 72 l 1246 -36 l 1150 -36 l 1150 72 z "},"℡":{"ha":1472,"x_min":11,"x_max":1461,"o":"m 975 713 l 975 597 l 689 597 l 689 411 l 946 411 l 946 296 l 689 296 l 689 79 l 985 79 l 985 -36 l 554 -36 l 554 713 l 975 713 m 267 -36 l 267 850 l 11 850 l 11 965 l 657 965 l 657 850 l 401 850 l 401 -36 l 267 -36 m 1192 713 l 1192 79 l 1461 79 l 1461 -36 l 1057 -36 l 1057 713 l 1192 713 z "},"！":{"ha":1264,"x_min":553,"x_max":711,"o":"m 553 67 l 711 67 l 711 -93 l 553 -93 l 553 67 m 574 210 l 554 1019 l 710 1019 l 690 210 l 574 210 z "},"＂":{"ha":1264,"x_min":446,"x_max":817,"o":"m 460 678 l 446 1019 l 590 1019 l 576 678 l 460 678 m 686 678 l 672 1019 l 817 1019 l 803 678 l 686 678 z "},"＃":{"ha":1264,"x_min":261,"x_max":1003,"o":"m 960 364 l 960 243 l 803 243 l 764 -36 l 653 -36 l 692 243 l 510 243 l 472 -36 l 360 -36 l 399 243 l 261 243 l 261 364 l 415 364 l 444 572 l 304 572 l 304 693 l 463 693 l 500 965 l 611 965 l 574 693 l 754 693 l 792 965 l 904 965 l 865 693 l 1003 693 l 1003 572 l 849 572 l 819 364 l 960 364 m 738 572 l 556 572 l 526 364 l 708 364 l 738 572 z "},"＄":{"ha":1264,"x_min":279,"x_max":985,"o":"m 593 -29 q 420 6 504 -24 q 279 82 336 36 l 349 186 q 462 122 397 149 q 593 88 526 94 l 593 421 q 474 456 528 436 q 381 507 419 476 q 320 581 342 538 q 299 688 299 625 l 299 713 q 317 801 299 760 q 372 876 335 843 q 463 931 408 910 q 593 958 518 953 l 593 1043 l 678 1043 l 678 960 q 828 932 760 956 q 946 871 897 908 l 879 774 q 678 844 785 836 l 678 524 q 824 474 765 500 q 919 416 883 449 q 969 344 954 383 q 985 254 985 304 l 985 233 q 962 124 985 171 q 899 44 939 76 q 801 -6 858 13 q 678 -28 744 -24 l 678 -129 l 593 -129 l 593 -29 m 850 244 q 843 293 850 271 q 817 334 836 315 q 764 369 797 353 q 678 400 731 386 l 678 88 q 807 135 764 97 q 850 224 850 172 l 850 244 m 432 690 q 474 600 432 631 q 593 546 515 569 l 593 843 q 470 797 508 835 q 432 714 432 758 l 432 690 z "},"％":{"ha":1264,"x_min":100,"x_max":1163,"o":"m 269 -35 l 868 965 l 992 965 l 394 -35 l 269 -35 m 326 981 q 492 918 432 981 q 553 746 553 856 l 553 688 q 492 515 553 578 q 326 453 432 453 q 160 515 221 453 q 100 688 100 578 l 100 746 q 160 918 100 856 q 326 981 221 981 m 326 547 q 444 690 444 547 l 444 743 q 326 886 444 886 q 208 743 208 886 l 208 690 q 326 547 208 547 m 936 481 q 1102 418 1042 481 q 1163 246 1163 356 l 1163 188 q 1102 15 1163 78 q 936 -47 1042 -47 q 770 15 831 -47 q 710 188 710 78 l 710 246 q 770 418 710 356 q 936 481 831 481 m 936 47 q 1054 190 1054 47 l 1054 243 q 936 386 1054 386 q 818 243 818 386 l 818 190 q 936 47 818 47 z "},"＆":{"ha":1264,"x_min":196,"x_max":1068,"o":"m 529 68 q 651 91 596 68 q 749 154 707 114 l 514 435 q 429 385 465 408 q 370 339 393 363 q 336 290 347 315 q 325 233 325 264 l 325 211 q 340 156 325 182 q 383 110 356 131 q 448 79 411 90 q 529 68 485 68 m 440 756 q 450 715 440 736 q 474 672 460 694 q 508 627 489 650 q 544 583 526 604 q 618 633 590 610 q 661 677 646 656 q 682 718 676 699 q 688 756 688 738 l 688 771 q 651 837 688 810 q 564 864 615 864 q 473 835 506 864 q 440 771 440 807 l 440 756 m 994 501 q 907 156 994 290 l 1068 -35 l 910 -35 l 828 63 q 688 -24 765 4 q 532 -51 610 -51 l 524 -51 q 402 -36 461 -51 q 297 11 343 -21 q 224 92 251 43 q 196 207 196 140 l 196 239 q 210 326 196 286 q 255 401 225 367 q 329 467 285 436 q 435 528 374 497 q 392 578 414 553 q 354 631 371 604 q 326 688 338 658 q 315 751 315 718 l 315 776 q 331 853 315 817 q 378 919 347 890 q 456 964 410 947 q 564 981 503 981 q 668 963 622 981 q 747 915 714 944 q 797 850 779 886 q 814 776 814 814 l 814 750 q 805 685 814 717 q 774 622 796 653 q 714 558 751 590 q 619 493 676 526 l 822 256 q 857 357 846 300 q 868 501 868 414 l 994 501 z "},"＇":{"ha":1264,"x_min":557,"x_max":707,"o":"m 571 678 l 557 1019 l 707 1019 l 693 678 l 571 678 z "},"（":{"ha":1264,"x_min":900,"x_max":1232,"o":"m 1042 381 q 1083 67 1042 222 q 1232 -236 1125 -89 l 1104 -236 q 950 44 1000 -112 q 900 388 900 201 l 900 443 q 950 785 900 629 q 1104 1064 1000 940 l 1232 1064 q 1085 772 1129 925 q 1042 450 1042 618 l 1042 381 z "},"）":{"ha":1264,"x_min":32,"x_max":364,"o":"m 222 450 q 178 772 222 618 q 32 1064 135 925 l 160 1064 q 314 785 264 940 q 364 443 364 629 l 364 388 q 314 44 364 201 q 160 -236 264 -112 l 32 -236 q 181 67 139 -89 q 222 381 222 222 l 222 450 z "},"＊":{"ha":1264,"x_min":365,"x_max":897,"o":"m 422 556 l 365 663 l 558 744 l 365 825 l 422 932 l 588 817 l 572 1015 l 692 1015 l 675 817 l 842 932 l 897 825 l 704 744 l 897 663 l 842 556 l 675 671 l 692 474 l 572 474 l 589 671 l 422 556 z "},"＋":{"ha":1264,"x_min":282,"x_max":982,"o":"m 694 793 l 694 500 l 982 500 l 982 383 l 694 383 l 694 71 l 569 71 l 569 383 l 282 383 l 282 500 l 569 500 l 569 793 l 694 793 z "},"，":{"ha":1264,"x_min":522,"x_max":740,"o":"m 581 74 l 740 74 l 633 -243 l 522 -243 l 581 74 z "},"－":{"ha":1264,"x_min":476,"x_max":929,"o":"m 476 522 l 929 522 l 929 406 l 476 406 l 476 522 z "},"．":{"ha":1264,"x_min":553,"x_max":711,"o":"m 553 67 l 711 67 l 711 -93 l 553 -93 l 553 67 z "},"／":{"ha":1264,"x_min":353,"x_max":910,"o":"m 910 1067 l 485 -178 l 353 -178 l 776 1067 l 910 1067 z "},"０":{"ha":1264,"x_min":278,"x_max":986,"o":"m 986 388 q 899 62 986 175 q 632 -51 813 -51 q 365 63 453 -51 q 278 388 278 176 l 278 543 q 367 867 278 754 q 632 981 456 981 q 898 867 810 981 q 986 543 986 754 l 986 388 m 846 544 q 830 696 846 636 q 785 790 814 756 q 717 839 756 825 q 632 853 678 853 q 549 839 588 853 q 481 790 510 825 q 435 695 451 754 q 418 544 418 636 l 418 386 q 435 234 418 294 q 481 139 451 174 q 549 90 510 104 q 632 76 588 76 q 717 90 678 76 q 785 139 756 104 q 830 233 814 174 q 846 386 846 293 l 846 544 z "},"１":{"ha":1264,"x_min":413,"x_max":850,"o":"m 713 -36 l 713 804 l 478 665 l 413 776 l 735 965 l 850 965 l 850 -36 l 713 -36 z "},"２":{"ha":1264,"x_min":296,"x_max":968,"o":"m 669 485 q 738 567 713 532 q 775 628 763 601 q 791 677 788 656 q 794 718 794 699 l 794 729 q 748 823 794 789 q 622 857 701 857 q 566 851 594 857 q 510 828 538 844 q 456 783 482 811 q 404 711 429 754 l 299 779 q 343 847 317 811 q 408 912 369 882 q 498 961 446 942 q 619 981 550 981 q 754 962 696 981 q 852 910 813 943 q 912 830 892 876 q 932 729 932 783 l 932 715 q 889 561 932 633 q 778 417 846 489 l 465 83 l 968 83 l 968 -36 l 296 -36 l 296 79 l 669 485 z "},"３":{"ha":1264,"x_min":296,"x_max":967,"o":"m 326 831 q 376 889 349 861 q 438 937 403 917 q 517 969 474 957 q 618 981 561 981 q 743 963 688 981 q 838 912 799 944 q 899 833 878 879 q 921 731 921 786 l 921 717 q 914 654 921 688 q 889 590 907 621 q 840 533 871 560 q 764 490 810 507 q 916 410 865 472 q 967 260 967 347 l 967 239 q 947 131 967 183 q 884 38 926 79 q 775 -27 842 -3 q 617 -51 708 -51 q 448 -24 529 -51 q 296 60 367 3 l 364 169 q 494 95 438 117 q 617 74 551 74 q 711 87 671 74 q 778 122 751 100 q 817 174 804 144 q 829 238 829 204 l 829 256 q 813 338 829 306 q 769 390 797 371 q 703 418 742 410 q 622 426 665 426 l 499 426 l 499 546 l 617 546 q 696 560 664 546 q 747 599 728 575 q 776 653 767 622 q 785 715 785 683 l 785 726 q 772 784 785 760 q 736 825 758 808 q 683 850 714 842 q 619 858 653 858 q 511 835 557 858 q 425 758 465 811 l 326 831 z "},"４":{"ha":1264,"x_min":243,"x_max":1021,"o":"m 879 603 l 879 296 l 1021 296 l 1021 179 l 879 179 l 879 -36 l 743 -36 l 743 179 l 243 179 l 243 282 l 714 965 l 865 965 l 404 296 l 743 296 l 743 603 l 879 603 z "},"５":{"ha":1264,"x_min":288,"x_max":976,"o":"m 976 265 q 957 153 976 210 q 896 51 938 97 q 788 -23 854 6 q 628 -51 721 -51 q 442 -24 525 -51 q 288 60 358 3 l 356 169 q 494 93 428 113 q 631 74 560 74 q 724 90 685 74 q 790 134 764 107 q 827 196 815 161 q 839 265 839 231 l 839 282 q 786 431 839 382 q 638 481 733 481 q 524 457 574 481 q 442 401 475 433 l 336 401 l 368 965 l 911 965 l 911 847 l 493 847 l 478 535 q 563 578 511 560 q 678 596 615 596 q 804 572 749 596 q 898 505 860 547 q 956 406 936 463 q 976 286 976 350 l 976 265 z "},"６":{"ha":1264,"x_min":286,"x_max":976,"o":"m 878 796 q 776 839 831 824 q 663 854 722 854 q 569 837 611 854 q 495 779 526 819 q 445 672 464 739 q 422 507 426 606 q 458 549 435 529 q 512 585 481 569 q 581 611 543 601 q 661 621 619 621 q 785 599 728 621 q 885 535 843 576 q 952 434 928 493 q 976 301 976 375 l 976 271 q 951 140 976 199 q 882 38 926 81 q 774 -28 838 -4 q 635 -51 711 -51 q 376 53 465 -51 q 286 361 286 158 l 286 413 q 315 686 286 576 q 394 861 343 796 q 515 953 444 926 q 671 981 586 981 q 806 964 739 981 q 931 913 874 947 l 878 796 m 426 285 q 481 131 426 188 q 629 74 535 74 q 783 126 726 74 q 839 278 839 179 l 839 296 q 782 447 839 396 q 633 499 725 499 q 549 483 588 499 q 484 442 511 468 q 442 381 457 417 q 426 304 426 346 l 426 285 z "},"７":{"ha":1264,"x_min":285,"x_max":978,"o":"m 582 -36 l 432 -36 l 829 846 l 285 846 l 285 965 l 978 965 l 978 860 l 582 -36 z "},"８":{"ha":1264,"x_min":297,"x_max":967,"o":"m 465 693 q 513 576 465 618 q 632 535 561 535 q 751 576 703 535 q 799 693 799 618 l 799 708 q 753 819 799 779 q 632 860 707 860 q 511 819 557 860 q 465 708 465 779 l 465 693 m 439 231 q 491 116 439 160 q 633 72 543 72 q 774 116 724 72 q 825 231 825 160 l 825 246 q 771 371 825 328 q 633 414 717 414 q 558 403 593 414 q 496 372 522 393 q 454 319 469 350 q 439 246 439 288 l 439 231 m 297 247 q 310 326 297 289 q 347 392 324 363 q 402 444 371 422 q 469 478 433 467 q 362 574 397 513 q 326 699 326 635 l 326 718 q 347 819 326 772 q 406 903 367 867 q 501 960 444 939 q 632 981 558 981 q 761 960 704 981 q 857 903 818 939 q 917 819 896 867 q 938 718 938 772 l 938 699 q 903 575 938 635 q 794 478 868 515 q 917 393 868 456 q 967 247 967 331 l 967 224 q 944 113 967 164 q 878 26 921 63 q 773 -31 835 -10 q 632 -51 711 -51 q 491 -31 553 -51 q 386 26 429 -10 q 320 113 343 63 q 297 224 297 164 l 297 247 z "},"９":{"ha":1264,"x_min":286,"x_max":976,"o":"m 385 136 q 486 92 432 108 q 600 75 540 75 q 695 92 651 75 q 770 148 739 108 q 819 253 801 188 q 840 417 838 318 q 804 374 828 394 q 749 338 781 354 q 681 313 718 322 q 601 303 643 303 q 477 325 535 303 q 377 389 419 347 q 310 490 335 431 q 286 622 286 549 l 286 653 q 311 785 286 725 q 381 888 336 844 q 488 956 425 932 q 628 981 551 981 q 886 878 796 981 q 976 574 976 776 l 976 522 q 951 247 976 357 q 877 71 926 138 q 756 -24 828 4 q 592 -51 685 -51 q 456 -33 524 -51 q 332 19 389 -15 l 385 136 m 836 642 q 782 797 836 739 q 633 856 728 856 q 480 801 536 856 q 424 649 424 747 l 424 631 q 482 478 424 531 q 629 425 540 425 q 713 440 675 425 q 778 483 751 456 q 821 545 806 510 q 836 622 836 581 l 836 642 z "},"：":{"ha":1264,"x_min":553,"x_max":711,"o":"m 553 67 l 711 67 l 711 -93 l 553 -93 l 553 67 m 553 761 l 711 761 l 711 601 l 553 601 l 553 761 z "},"；":{"ha":1264,"x_min":522,"x_max":740,"o":"m 567 761 l 725 761 l 725 601 l 567 601 l 567 761 m 581 74 l 740 74 l 633 -243 l 522 -243 l 581 74 z "},"＜":{"ha":1264,"x_min":304,"x_max":960,"o":"m 457 442 l 960 182 l 960 43 l 304 390 l 304 500 l 960 847 l 960 710 l 457 450 l 457 442 z "},"＝":{"ha":1264,"x_min":311,"x_max":953,"o":"m 311 650 l 953 650 l 953 532 l 311 532 l 311 650 m 311 357 l 953 357 l 953 239 l 311 239 l 311 357 z "},"＞":{"ha":1264,"x_min":304,"x_max":960,"o":"m 807 450 l 304 710 l 304 847 l 960 500 l 960 390 l 304 43 l 304 182 l 807 442 l 807 450 z "},"？":{"ha":1264,"x_min":325,"x_max":938,"o":"m 536 196 l 536 260 q 542 322 536 294 q 562 375 547 349 q 601 431 576 401 q 664 497 626 460 q 727 560 701 535 q 769 608 753 586 q 792 652 785 629 q 799 708 799 675 l 799 726 q 759 819 799 779 q 633 858 719 858 q 509 831 565 858 q 408 758 453 804 l 325 854 q 453 947 379 913 q 631 981 528 981 q 857 911 776 981 q 938 728 938 842 l 938 708 q 923 618 938 657 q 884 546 908 579 q 828 483 860 513 q 765 424 797 454 q 726 383 742 401 q 699 344 710 364 q 683 303 688 325 q 678 256 678 282 l 678 196 l 536 196 m 529 67 l 688 67 l 688 -93 l 529 -93 l 529 67 z "},"＠":{"ha":1264,"x_min":11,"x_max":1251,"o":"m 994 56 q 888 84 939 56 q 815 175 836 113 l 814 175 q 776 119 801 142 q 722 83 751 97 q 661 64 692 69 q 606 58 631 58 q 403 133 472 58 q 333 335 333 208 l 333 443 q 401 645 333 571 q 585 719 468 719 q 708 696 663 719 q 774 639 754 672 l 774 711 l 904 711 l 904 274 q 928 188 904 215 q 996 161 951 161 q 1057 174 1031 161 q 1101 217 1083 188 q 1129 295 1119 247 q 1139 413 1139 343 l 1139 428 q 1105 636 1139 544 q 1004 792 1071 728 q 840 891 938 857 q 617 925 743 925 q 418 890 508 925 q 263 790 328 856 q 163 628 199 724 q 126 411 126 532 l 126 388 q 162 159 126 258 q 264 -8 197 60 q 427 -110 331 -75 q 644 -146 524 -146 q 851 -123 749 -146 q 1040 -56 954 -100 l 1079 -153 q 883 -226 992 -200 q 649 -251 774 -251 q 381 -207 499 -251 q 181 -79 263 -162 q 55 122 99 4 q 11 386 11 240 l 11 413 q 53 659 11 546 q 174 854 96 772 q 365 983 253 936 q 617 1029 476 1029 q 889 985 771 1029 q 1088 863 1007 942 q 1210 674 1168 783 q 1251 432 1251 564 l 1251 414 q 1240 290 1251 353 q 1199 174 1228 226 q 1120 89 1169 122 q 994 56 1071 56 m 471 357 q 506 231 471 278 q 615 185 540 185 q 672 192 644 185 q 720 215 699 199 q 754 260 742 232 q 767 329 767 288 l 767 451 q 759 505 767 479 q 733 551 751 531 q 686 583 715 571 q 615 594 657 594 q 509 557 547 594 q 471 421 471 519 l 471 357 z "},"Ａ":{"ha":1264,"x_min":192,"x_max":1071,"o":"m 1071 -36 l 926 -36 l 821 258 l 438 258 l 332 -36 l 192 -36 l 564 965 l 697 965 l 1071 -36 m 479 376 l 779 376 l 696 611 q 676 665 685 642 q 661 709 668 688 q 647 754 654 731 q 629 813 639 778 q 611 753 618 778 q 597 708 604 729 q 583 665 590 688 q 564 611 575 642 l 479 376 z "},"Ｂ":{"ha":1264,"x_min":272,"x_max":992,"o":"m 272 965 l 628 965 q 946 721 946 965 l 946 692 q 938 627 946 658 q 910 569 929 596 q 860 523 892 543 q 785 492 829 503 q 934 422 876 478 q 992 263 992 367 l 992 228 q 913 34 992 104 q 671 -36 835 -36 l 272 -36 l 272 965 m 410 83 l 619 83 q 722 90 678 83 q 794 113 765 96 q 836 158 822 129 q 850 231 850 186 l 850 261 q 838 339 850 307 q 794 392 825 371 q 714 422 764 413 q 589 431 664 431 l 410 431 l 410 83 m 410 847 l 410 543 l 588 543 q 680 549 639 543 q 749 571 721 554 q 791 617 776 588 q 806 693 806 646 l 806 718 q 792 788 806 763 q 751 827 779 814 q 679 844 722 840 q 578 847 636 847 l 410 847 z "},"Ｃ":{"ha":1264,"x_min":254,"x_max":1010,"o":"m 1010 76 q 846 -24 935 4 q 656 -51 757 -51 q 492 -24 565 -51 q 365 58 418 3 q 283 196 313 114 q 254 389 254 278 l 254 540 q 283 732 254 650 q 366 869 313 814 q 493 953 419 925 q 656 981 567 981 q 838 955 760 981 q 986 874 915 929 l 915 761 q 785 835 847 817 q 656 853 724 853 q 551 833 599 853 q 467 774 503 814 q 413 671 432 733 q 393 522 393 608 l 393 407 q 413 258 393 321 q 467 156 432 196 q 551 96 503 115 q 656 76 599 76 q 800 99 728 76 q 935 182 872 121 l 1010 76 z "},"Ｄ":{"ha":1264,"x_min":256,"x_max":1008,"o":"m 588 965 q 901 855 794 965 q 1008 536 1008 744 l 1008 393 q 904 74 1008 185 q 588 -36 800 -36 l 256 -36 l 256 965 l 588 965 m 393 86 l 575 86 q 696 103 642 86 q 788 158 750 121 q 847 256 826 196 q 868 400 868 315 l 868 529 q 847 674 868 614 q 788 772 826 733 q 696 827 750 810 q 575 844 642 844 l 393 844 l 393 86 z "},"Ｅ":{"ha":1264,"x_min":315,"x_max":949,"o":"m 939 965 l 939 847 l 453 847 l 453 536 l 910 536 l 910 418 l 453 418 l 453 82 l 949 82 l 949 -36 l 315 -36 l 315 965 l 939 965 z "},"Ｆ":{"ha":1264,"x_min":322,"x_max":942,"o":"m 942 965 l 942 847 l 460 847 l 460 513 l 913 513 l 913 394 l 460 394 l 460 -36 l 322 -36 l 322 965 l 942 965 z "},"Ｇ":{"ha":1264,"x_min":247,"x_max":1015,"o":"m 1015 39 q 859 -29 949 -7 q 675 -51 769 -51 q 496 -24 575 -51 q 362 58 417 3 q 277 196 307 114 q 247 389 247 278 l 247 540 q 276 732 247 650 q 360 869 306 814 q 491 953 414 925 q 664 981 568 981 q 843 956 761 981 q 996 875 925 931 l 925 764 q 797 835 860 815 q 664 856 735 856 q 459 776 533 856 q 385 522 385 696 l 385 407 q 465 153 385 233 q 679 74 544 74 q 787 84 736 74 q 878 114 838 94 l 878 396 l 656 396 l 656 514 l 1015 514 l 1015 39 z "},"Ｈ":{"ha":1264,"x_min":261,"x_max":1001,"o":"m 1001 965 l 1001 -36 l 864 -36 l 864 425 l 399 425 l 399 -36 l 261 -36 l 261 965 l 399 965 l 399 547 l 864 547 l 864 965 l 1001 965 z "},"Ｉ":{"ha":1264,"x_min":563,"x_max":700,"o":"m 700 965 l 700 -36 l 563 -36 l 563 965 l 700 965 z "},"Ｊ":{"ha":1264,"x_min":371,"x_max":893,"o":"m 893 239 q 871 100 893 156 q 810 10 849 44 q 718 -37 771 -24 q 603 -51 665 -51 q 484 -32 549 -51 q 371 31 419 -12 l 436 139 q 519 90 481 104 q 607 76 558 76 q 720 120 685 76 q 756 268 756 164 l 756 965 l 893 965 l 893 239 z "},"Ｋ":{"ha":1264,"x_min":247,"x_max":1015,"o":"m 589 532 l 1015 -36 l 840 -36 l 494 432 l 385 314 l 385 -36 l 247 -36 l 247 965 l 385 965 l 385 486 l 824 965 l 992 965 l 589 532 z "},"Ｌ":{"ha":1264,"x_min":324,"x_max":940,"o":"m 461 965 l 461 82 l 940 82 l 940 -36 l 324 -36 l 324 965 l 461 965 z "},"Ｍ":{"ha":1264,"x_min":156,"x_max":1108,"o":"m 338 686 q 325 716 331 701 q 314 746 319 731 q 301 781 308 761 q 286 825 294 800 l 286 -36 l 156 -36 l 156 965 l 358 965 l 636 310 l 907 965 l 1108 965 l 1108 -36 l 976 -36 l 976 825 q 963 778 969 797 q 952 744 957 760 q 942 715 947 729 q 929 686 936 701 l 690 131 l 574 131 l 338 686 z "},"Ｎ":{"ha":1264,"x_min":258,"x_max":1004,"o":"m 417 965 l 806 290 q 840 227 821 265 q 876 144 858 189 l 876 965 l 1004 965 l 1004 -36 l 846 -36 l 457 636 q 423 701 442 664 q 386 783 404 739 l 386 -36 l 258 -36 l 258 965 l 417 965 z "},"Ｏ":{"ha":1264,"x_min":225,"x_max":1039,"o":"m 632 -51 q 467 -24 542 -51 q 339 58 393 3 q 255 196 285 114 q 225 389 225 278 l 225 540 q 255 732 225 650 q 339 869 285 814 q 468 953 393 925 q 632 981 543 981 q 796 953 721 981 q 925 869 871 925 q 1009 732 979 814 q 1039 540 1039 650 l 1039 389 q 1009 196 1039 278 q 925 58 979 114 q 796 -24 871 3 q 632 -51 721 -51 m 632 856 q 524 837 574 856 q 440 778 475 818 q 384 676 404 739 q 364 525 364 613 l 364 404 q 384 253 364 317 q 440 151 404 190 q 524 92 475 111 q 632 74 574 74 q 740 92 690 74 q 824 151 789 111 q 880 253 860 190 q 900 404 900 317 l 900 525 q 880 676 900 613 q 824 778 860 739 q 740 837 789 818 q 632 856 690 856 z "},"Ｐ":{"ha":1264,"x_min":286,"x_max":976,"o":"m 286 965 l 644 965 q 792 944 729 965 q 895 884 854 922 q 956 793 936 846 q 976 679 976 740 l 976 650 q 955 535 976 589 q 892 442 933 482 q 788 378 850 401 q 644 354 726 354 l 424 354 l 424 -36 l 286 -36 l 286 965 m 424 846 l 424 474 l 621 474 q 838 653 838 474 l 838 678 q 785 805 838 764 q 636 846 733 846 l 424 846 z "},"Ｑ":{"ha":1264,"x_min":217,"x_max":1047,"o":"m 618 -51 q 454 -24 528 -51 q 328 58 381 3 q 246 196 275 114 q 217 389 217 278 l 217 540 q 246 732 217 650 q 328 869 275 814 q 456 953 382 925 q 618 981 529 981 q 781 953 707 981 q 908 869 854 925 q 990 732 961 814 q 1019 540 1019 650 l 1019 389 q 996 213 1019 289 q 929 82 972 136 l 1047 -35 l 965 -119 l 840 4 q 618 -51 746 -51 m 618 856 q 513 837 561 856 q 429 778 464 818 q 375 676 394 739 q 356 525 356 613 l 356 404 q 375 253 356 317 q 429 151 394 190 q 513 92 464 111 q 618 74 561 74 q 684 80 653 74 q 743 101 715 86 l 618 226 l 700 311 l 829 182 q 867 276 854 222 q 881 404 881 331 l 881 525 q 861 676 881 613 q 807 778 842 739 q 724 837 772 818 q 618 856 676 856 z "},"Ｒ":{"ha":1264,"x_min":275,"x_max":988,"o":"m 413 -36 l 275 -36 l 275 965 l 638 965 q 774 944 714 965 q 874 888 833 924 q 935 801 914 851 q 957 692 957 751 l 957 656 q 913 506 957 571 q 789 408 869 440 l 988 -36 l 839 -36 l 658 382 l 636 382 l 413 382 l 413 -36 m 413 499 l 604 499 q 770 542 721 499 q 819 660 819 586 l 819 688 q 771 804 819 761 q 618 847 722 847 l 413 847 l 413 499 z "},"Ｓ":{"ha":1264,"x_min":279,"x_max":985,"o":"m 632 74 q 792 117 739 74 q 846 219 846 160 l 846 242 q 835 300 846 275 q 797 344 824 325 q 729 380 771 364 q 626 408 688 396 q 494 444 556 424 q 389 495 433 464 q 319 573 344 526 q 293 688 293 619 l 293 713 q 314 812 293 764 q 378 897 335 860 q 485 958 421 935 q 636 981 550 981 q 803 958 728 981 q 942 893 878 936 l 876 786 q 764 840 821 824 q 638 857 707 857 q 487 815 543 857 q 431 714 431 774 l 431 692 q 446 633 431 657 q 490 590 461 608 q 563 559 519 572 q 661 533 606 546 q 816 485 754 513 q 915 424 878 458 q 969 346 953 389 q 985 251 985 303 l 985 226 q 958 106 985 157 q 883 19 931 54 q 770 -34 836 -17 q 628 -51 704 -51 q 431 -17 521 -51 q 279 67 342 17 l 349 179 q 413 139 376 158 q 486 105 449 119 q 562 82 524 90 q 632 74 600 74 z "},"Ｔ":{"ha":1264,"x_min":257,"x_max":1006,"o":"m 563 -36 l 563 847 l 257 847 l 257 965 l 1006 965 l 1006 847 l 700 847 l 700 -36 l 563 -36 z "},"Ｕ":{"ha":1264,"x_min":260,"x_max":1004,"o":"m 1004 965 l 1004 365 q 979 172 1004 251 q 907 43 954 93 q 790 -29 860 -7 q 632 -51 721 -51 q 474 -29 543 -51 q 357 43 404 -7 q 285 172 310 93 q 260 365 260 251 l 260 965 l 397 965 l 397 382 q 411 238 397 297 q 454 142 425 179 q 528 89 483 106 q 632 72 572 72 q 736 89 692 72 q 810 142 781 106 q 853 238 839 179 q 867 382 867 297 l 867 965 l 1004 965 z "},"Ｖ":{"ha":1264,"x_min":192,"x_max":1071,"o":"m 342 965 l 632 138 l 929 965 l 1071 965 l 693 -36 l 564 -36 l 192 965 l 342 965 z "},"Ｗ":{"ha":1264,"x_min":-6,"x_max":1271,"o":"m 1271 965 l 994 -36 l 857 -36 l 635 782 l 408 -36 l 268 -36 l -6 965 l 139 965 l 344 147 l 568 965 l 701 965 l 925 147 l 1133 965 l 1271 965 z "},"Ｘ":{"ha":1264,"x_min":218,"x_max":1044,"o":"m 721 481 l 1044 -36 l 882 -36 l 628 393 l 374 -36 l 218 -36 l 542 486 l 239 965 l 403 965 l 639 571 l 874 965 l 1028 965 l 721 481 z "},"Ｙ":{"ha":1264,"x_min":219,"x_max":1043,"o":"m 701 367 l 701 -36 l 564 -36 l 564 367 l 219 965 l 372 965 l 635 497 l 890 965 l 1043 965 l 701 367 z "},"Ｚ":{"ha":1264,"x_min":247,"x_max":1015,"o":"m 989 864 l 414 83 l 1015 83 l 1015 -36 l 247 -36 l 247 76 l 815 846 l 281 846 l 281 965 l 989 965 l 989 864 z "},"［":{"ha":1264,"x_min":842,"x_max":1208,"o":"m 1208 -236 l 842 -236 l 842 1064 l 1208 1064 l 1208 944 l 978 944 l 978 -117 l 1208 -117 l 1208 -236 z "},"￦":{"ha":1264,"x_min":17,"x_max":1249,"o":"m 17 557 l 158 557 l 58 965 l 196 965 l 285 557 l 475 557 l 578 965 l 701 965 l 799 557 l 983 557 l 1071 965 l 1203 965 l 1103 557 l 1249 557 l 1249 472 l 1082 472 l 960 -36 l 835 -36 l 715 472 l 560 472 l 435 -36 l 304 -36 l 179 472 l 17 472 l 17 557 m 374 147 l 454 472 l 303 472 l 374 147 m 896 147 l 965 472 l 818 472 l 896 147 m 581 557 l 696 557 l 640 799 l 581 557 z "},"］":{"ha":1264,"x_min":56,"x_max":422,"o":"m 56 -117 l 286 -117 l 286 944 l 56 944 l 56 1064 l 422 1064 l 422 -236 l 56 -236 l 56 -117 z "},"＾":{"ha":1264,"x_min":332,"x_max":932,"o":"m 801 557 l 632 894 l 463 557 l 332 557 l 569 1006 l 696 1006 l 932 557 l 801 557 z "},"＿":{"ha":1264,"x_min":285,"x_max":979,"o":"m 979 -194 l 285 -194 l 285 -104 l 979 -104 l 979 -194 z "},"｀":{"ha":1264,"x_min":475,"x_max":788,"o":"m 664 785 l 475 990 l 636 990 l 788 785 l 664 785 z "},"ａ":{"ha":1264,"x_min":331,"x_max":933,"o":"m 581 -47 q 398 10 465 -47 q 331 167 331 67 l 331 204 q 396 363 331 301 q 607 424 461 424 l 800 424 l 800 468 q 763 581 800 544 q 643 618 726 618 q 527 597 576 618 q 425 542 478 576 l 358 642 q 483 709 414 681 q 644 738 553 738 q 761 722 708 738 q 852 674 814 706 q 912 598 890 643 q 933 496 933 553 l 933 -36 l 804 -36 l 804 56 l 803 56 q 773 17 792 35 q 732 -12 754 0 q 666 -38 701 -29 q 581 -47 631 -47 m 800 310 l 610 310 q 497 279 531 310 q 463 194 463 249 l 463 175 q 501 94 463 119 q 594 69 540 69 q 681 81 644 69 q 749 117 718 93 q 788 165 776 138 q 800 235 800 192 l 800 310 z "},"ｂ":{"ha":1264,"x_min":307,"x_max":956,"o":"m 442 636 q 537 715 478 693 q 658 738 596 738 q 879 653 803 738 q 956 414 956 569 l 956 279 q 933 141 956 201 q 872 39 911 81 q 776 -25 832 -3 q 654 -47 721 -47 q 517 -17 568 -47 q 440 53 465 13 l 438 53 l 438 -36 l 307 -36 l 307 1014 l 442 1014 l 442 636 m 440 235 q 455 176 440 206 q 497 123 469 146 q 560 85 524 100 q 640 71 596 71 q 774 131 726 71 q 822 299 822 190 l 822 392 q 774 560 822 500 q 640 619 725 619 q 563 606 599 619 q 499 567 526 592 q 456 506 472 542 q 440 426 440 471 l 440 235 z "},"ｃ":{"ha":1264,"x_min":326,"x_max":936,"o":"m 654 738 q 809 714 749 738 q 917 654 869 690 l 853 553 q 755 605 800 592 q 654 618 710 618 q 582 606 617 618 q 521 566 547 593 q 478 497 494 539 q 463 397 463 456 l 463 301 q 478 197 463 240 q 522 126 494 153 q 584 86 549 99 q 657 74 619 74 q 781 93 732 74 q 871 143 831 113 l 936 40 q 828 -20 896 7 q 656 -47 760 -47 q 412 44 497 -47 q 326 300 326 136 l 326 396 q 350 541 326 478 q 416 648 374 604 q 519 715 458 692 q 654 738 579 738 z "},"ｄ":{"ha":1264,"x_min":307,"x_max":956,"o":"m 824 58 q 733 -24 792 0 q 603 -47 674 -47 q 383 37 458 -47 q 307 276 307 121 l 307 411 q 329 549 307 488 q 391 651 351 610 q 486 715 431 693 q 608 738 542 738 q 747 708 696 738 q 821 644 797 678 l 821 1014 l 956 1014 l 956 -36 l 826 -36 l 826 58 l 824 58 m 822 458 q 808 517 822 488 q 766 569 793 546 q 702 606 739 592 q 622 619 665 619 q 488 560 536 619 q 440 392 440 500 l 440 299 q 489 131 440 190 q 622 71 538 71 q 700 84 664 71 q 763 122 736 97 q 806 183 790 147 q 822 263 822 218 l 822 458 z "},"ｅ":{"ha":1264,"x_min":310,"x_max":954,"o":"m 636 622 q 559 608 594 622 q 498 567 524 593 q 458 505 472 542 q 443 425 443 468 l 443 406 l 824 406 l 824 431 q 774 570 824 518 q 636 622 724 622 m 936 36 q 817 -23 886 1 q 643 -47 747 -47 q 512 -27 572 -47 q 406 35 451 -7 q 335 144 361 78 q 310 303 310 211 l 310 389 q 334 540 310 475 q 402 649 358 606 q 506 715 446 693 q 636 738 565 738 q 868 649 782 738 q 954 397 954 560 l 954 296 l 443 296 l 443 290 q 500 126 443 182 q 649 69 557 69 q 777 88 724 69 q 879 138 831 106 l 936 36 z "},"ｆ":{"ha":1264,"x_min":390,"x_max":872,"o":"m 515 608 l 390 608 l 390 724 l 515 724 l 515 799 q 572 968 515 914 q 736 1022 628 1022 q 810 1017 772 1022 q 872 1003 849 1011 l 851 893 q 749 907 801 907 q 711 903 729 907 q 680 887 693 899 q 658 853 667 875 q 650 793 650 831 l 650 724 l 850 724 l 850 608 l 650 608 l 650 -36 l 515 -36 l 515 608 z "},"ｇ":{"ha":1264,"x_min":307,"x_max":956,"o":"m 956 -26 q 617 -346 956 -346 q 475 -324 539 -346 q 364 -265 411 -301 l 425 -160 q 513 -206 463 -187 q 621 -224 564 -224 q 770 -176 719 -224 q 821 -26 821 -128 l 821 67 q 731 -10 789 13 q 603 -33 672 -33 q 383 51 458 -33 q 307 290 307 135 l 307 411 q 329 549 307 488 q 391 651 351 610 q 486 715 431 693 q 608 738 542 738 q 747 708 696 738 q 821 644 797 678 l 821 724 l 956 724 l 956 -26 m 822 458 q 808 517 822 488 q 766 569 793 546 q 702 606 739 592 q 622 619 665 619 q 488 560 536 619 q 440 392 440 500 l 440 313 q 489 144 440 204 q 622 85 538 85 q 700 98 664 85 q 763 136 736 111 q 806 197 790 161 q 822 276 822 232 l 822 458 z "},"ｈ":{"ha":1264,"x_min":318,"x_max":944,"o":"m 944 -36 l 810 -36 l 810 436 q 769 575 810 532 q 644 618 729 618 q 576 606 610 618 q 515 572 542 594 q 470 514 488 549 q 453 435 453 479 l 453 -36 l 318 -36 l 318 1014 l 453 1014 l 453 632 q 544 710 488 683 q 678 738 600 738 q 782 721 733 738 q 867 671 831 704 q 924 586 903 638 q 944 467 944 535 l 944 -36 z "},"ｉ":{"ha":1264,"x_min":560,"x_max":703,"o":"m 699 724 l 699 -36 l 564 -36 l 564 724 l 699 724 m 703 996 l 703 849 l 560 849 l 560 996 l 703 996 z "},"ｊ":{"ha":1264,"x_min":451,"x_max":813,"o":"m 813 996 l 813 849 l 669 849 l 669 996 l 813 996 m 808 -122 q 752 -292 808 -237 q 588 -346 696 -346 q 513 -340 551 -346 q 451 -326 475 -335 l 472 -217 q 575 -231 522 -231 q 613 -226 594 -231 q 644 -210 631 -222 q 665 -176 657 -199 q 674 -117 674 -154 l 674 724 l 808 724 l 808 -122 z "},"ｋ":{"ha":1264,"x_min":306,"x_max":957,"o":"m 639 419 l 957 -36 l 788 -36 l 546 325 l 440 218 l 440 -36 l 306 -36 l 306 1014 l 440 1014 l 440 382 l 765 724 l 939 724 l 639 419 z "},"ｌ":{"ha":1264,"x_min":564,"x_max":699,"o":"m 699 1014 l 699 -36 l 564 -36 l 564 1014 l 699 1014 z "},"ｍ":{"ha":1264,"x_min":110,"x_max":1153,"o":"m 1153 -36 l 1018 -36 l 1018 419 q 875 615 1018 615 q 812 605 843 615 q 756 573 781 594 q 715 517 731 551 q 699 438 699 483 l 699 -36 l 564 -36 l 564 419 q 421 615 564 615 q 358 606 389 615 q 301 575 326 596 q 260 522 276 554 q 244 444 244 489 l 244 -36 l 110 -36 l 110 724 l 243 724 l 243 621 l 244 621 q 317 704 267 671 q 447 738 368 738 q 580 705 524 738 q 665 611 636 672 q 756 702 701 667 q 901 738 811 738 q 1086 666 1019 738 q 1153 463 1153 594 l 1153 -36 z "},"ｎ":{"ha":1264,"x_min":318,"x_max":944,"o":"m 944 -36 l 810 -36 l 810 436 q 769 575 810 532 q 644 618 729 618 q 576 606 610 618 q 515 572 542 594 q 470 514 488 549 q 453 435 453 479 l 453 -36 l 318 -36 l 318 724 l 449 724 l 449 628 l 450 628 q 542 709 485 681 q 678 738 599 738 q 782 721 733 738 q 867 671 831 704 q 924 586 903 638 q 944 467 944 535 l 944 -36 z "},"ｏ":{"ha":1264,"x_min":293,"x_max":971,"o":"m 632 738 q 880 647 789 738 q 971 392 971 557 l 971 299 q 880 43 971 133 q 632 -47 789 -47 q 384 43 475 -47 q 293 299 293 133 l 293 392 q 384 648 293 558 q 632 738 475 738 m 632 71 q 778 130 722 71 q 835 310 835 189 l 835 381 q 778 560 835 501 q 632 619 722 619 q 485 560 542 619 q 429 381 429 501 l 429 310 q 485 130 429 189 q 632 71 542 71 z "},"ｐ":{"ha":1264,"x_min":307,"x_max":956,"o":"m 438 629 q 531 713 471 688 q 660 738 592 738 q 880 651 804 738 q 956 414 956 565 l 956 279 q 933 140 956 200 q 872 38 911 79 q 776 -26 832 -4 q 651 -47 719 -47 q 516 -17 567 -47 q 442 47 465 14 l 442 -333 l 307 -333 l 307 724 l 438 724 l 438 629 m 440 235 q 455 176 440 206 q 497 123 469 146 q 560 85 524 100 q 640 71 596 71 q 774 131 726 71 q 822 299 822 190 l 822 392 q 774 560 822 500 q 640 619 725 619 q 563 606 599 619 q 499 567 526 592 q 456 506 472 542 q 440 426 440 471 l 440 235 z "},"ｑ":{"ha":1264,"x_min":307,"x_max":956,"o":"m 821 -333 l 821 53 q 731 -24 789 -1 q 603 -47 672 -47 q 383 37 458 -47 q 307 276 307 121 l 307 411 q 329 549 307 488 q 391 651 351 610 q 486 715 431 693 q 608 738 542 738 q 747 708 696 738 q 821 644 797 678 l 821 724 l 956 724 l 956 -333 l 821 -333 m 822 458 q 808 517 822 488 q 766 569 793 546 q 702 606 739 592 q 622 619 665 619 q 488 560 536 619 q 440 392 440 500 l 440 299 q 489 131 440 190 q 622 71 538 71 q 700 84 664 71 q 763 122 736 97 q 806 183 790 147 q 822 263 822 218 l 822 458 z "},"ｒ":{"ha":1264,"x_min":404,"x_max":858,"o":"m 818 592 q 776 605 799 600 q 725 610 753 610 q 653 595 688 610 q 594 553 619 581 q 554 489 569 526 q 539 407 539 451 l 539 -36 l 404 -36 l 404 724 l 535 724 l 535 603 l 536 603 q 623 702 569 667 q 760 738 676 738 q 858 722 810 738 l 818 592 z "},"ｓ":{"ha":1264,"x_min":335,"x_max":929,"o":"m 635 69 q 751 96 710 69 q 793 168 793 122 l 793 179 q 786 219 793 203 q 760 249 779 236 q 707 272 740 261 q 619 293 674 282 q 508 324 557 306 q 426 367 460 342 q 376 429 393 393 q 358 515 358 465 l 358 532 q 375 608 358 571 q 426 674 392 646 q 515 720 461 703 q 642 738 568 738 q 787 720 719 738 q 911 663 854 703 l 851 561 q 762 606 814 589 q 651 622 710 622 q 530 597 567 622 q 493 531 493 571 l 493 518 q 531 452 493 474 q 657 414 568 431 q 778 383 726 401 q 863 338 829 365 q 913 274 896 311 q 929 183 929 236 l 929 165 q 909 82 929 121 q 851 15 889 43 q 760 -31 814 -14 q 640 -47 707 -47 q 467 -22 544 -47 q 335 44 389 3 l 397 150 q 507 92 449 115 q 635 69 565 69 z "},"ｔ":{"ha":1264,"x_min":393,"x_max":871,"o":"m 518 608 l 393 608 l 393 724 l 518 724 l 518 915 l 653 915 l 653 724 l 853 724 l 853 608 l 653 608 l 653 176 q 660 120 653 142 q 680 88 667 99 q 711 72 693 76 q 750 68 729 68 q 850 86 800 68 l 871 -22 q 808 -40 847 -32 q 729 -47 769 -47 q 569 7 621 -47 q 518 176 518 61 l 518 608 z "},"ｕ":{"ha":1264,"x_min":321,"x_max":942,"o":"m 321 724 l 456 724 l 456 251 q 494 113 456 156 q 618 69 533 69 q 686 81 653 69 q 747 116 719 93 q 790 174 774 139 q 807 253 807 208 l 807 724 l 942 724 l 942 -36 l 811 -36 l 811 60 l 810 60 q 719 -22 775 7 q 585 -50 664 -50 q 481 -33 529 -50 q 398 17 433 -17 q 342 101 363 50 q 321 221 321 151 l 321 724 z "},"ｖ":{"ha":1264,"x_min":288,"x_max":976,"o":"m 636 90 l 835 724 l 976 724 l 719 -36 l 547 -36 l 288 724 l 433 724 l 633 90 l 636 90 z "},"ｗ":{"ha":1264,"x_min":122,"x_max":1140,"o":"m 631 556 l 478 -36 l 319 -36 l 122 724 l 264 724 l 403 104 l 406 104 l 567 724 l 703 724 l 863 104 l 865 104 l 1007 724 l 1140 724 l 946 -36 l 788 -36 l 633 556 l 631 556 z "},"ｘ":{"ha":1264,"x_min":294,"x_max":968,"o":"m 718 358 l 968 -36 l 806 -36 l 629 269 l 449 -36 l 294 -36 l 549 358 l 307 724 l 469 724 l 638 443 l 808 724 l 958 724 l 718 358 z "},"ｙ":{"ha":1264,"x_min":285,"x_max":979,"o":"m 638 117 l 838 724 l 979 724 l 585 -350 l 463 -307 l 561 -47 l 285 724 l 431 724 l 632 117 l 638 117 z "},"ｚ":{"ha":1264,"x_min":328,"x_max":936,"o":"m 915 619 l 499 81 l 936 81 l 936 -36 l 328 -36 l 328 61 l 750 606 l 356 606 l 356 724 l 915 724 l 915 619 z "},"｛":{"ha":1264,"x_min":696,"x_max":1208,"o":"m 696 490 q 808 517 772 492 q 843 601 843 542 l 843 863 q 898 1015 843 965 q 1060 1064 953 1064 l 1208 1064 l 1208 944 l 1082 944 q 1001 920 1022 944 q 979 825 979 896 l 979 601 q 975 550 979 576 q 958 500 971 524 q 923 458 946 476 q 864 431 900 439 q 922 405 899 422 q 957 364 944 388 q 974 313 969 340 q 979 260 979 286 l 979 -7 q 985 -65 979 -43 q 1002 -97 990 -86 q 1033 -112 1014 -108 q 1082 -117 1053 -117 l 1208 -117 l 1208 -236 l 1060 -236 q 898 -191 953 -236 q 843 -44 843 -146 l 843 258 q 808 345 843 319 q 696 372 772 371 l 696 490 z "},"｜":{"ha":1264,"x_min":567,"x_max":697,"o":"m 697 -236 l 567 -236 l 567 1063 l 697 1063 l 697 -236 z "},"｝":{"ha":1264,"x_min":56,"x_max":568,"o":"m 568 372 q 456 345 492 371 q 421 258 421 319 l 421 -44 q 366 -191 421 -146 q 204 -236 311 -236 l 56 -236 l 56 -117 l 182 -117 q 231 -112 211 -117 q 262 -97 250 -108 q 279 -65 274 -86 q 285 -7 285 -43 l 285 260 q 290 313 285 286 q 307 364 294 340 q 342 405 319 388 q 400 431 364 422 q 341 458 364 439 q 306 500 318 476 q 289 550 293 524 q 285 601 285 576 l 285 825 q 263 920 285 896 q 182 944 242 944 l 56 944 l 56 1064 l 204 1064 q 366 1015 311 1064 q 421 863 421 965 l 421 601 q 456 517 421 542 q 568 490 492 492 l 568 372 z "},"‾":{"ha":1264,"x_min":7,"x_max":1257,"o":"m 1257 1004 l 7 1004 l 7 1058 l 1257 1058 l 1257 1004 z "},"ㄱ":{"ha":1264,"x_min":215,"x_max":1019,"o":"m 890 81 l 890 638 l 215 638 l 215 757 l 1019 757 l 1019 81 l 890 81 z "},"ㄲ":{"ha":1264,"x_min":158,"x_max":1083,"o":"m 649 757 l 1083 757 l 1083 81 l 954 81 l 954 638 l 649 638 l 649 757 m 607 81 l 478 81 l 478 638 l 158 638 l 158 757 l 607 757 l 607 81 z "},"ㄳ":{"ha":1264,"x_min":181,"x_max":1206,"o":"m 454 81 l 454 632 l 181 632 l 181 751 l 582 751 l 582 81 l 454 81 m 911 338 q 894 300 910 326 q 860 244 879 274 q 833 207 847 225 q 801 167 819 189 q 760 119 783 146 q 703 60 736 93 l 615 146 q 674 208 649 181 q 719 258 699 235 q 753 302 739 282 q 781 342 768 322 q 827 429 808 385 q 846 543 846 474 l 846 763 l 976 763 l 976 543 q 981 481 976 508 q 993 431 985 454 q 1013 387 1001 408 q 1040 342 1025 365 q 1068 301 1053 321 q 1103 259 1083 282 q 1147 209 1122 236 q 1206 147 1172 182 l 1122 60 q 1021 171 1056 129 q 964 244 986 213 q 929 299 944 272 q 913 338 914 326 l 911 338 z "},"ㄴ":{"ha":1264,"x_min":243,"x_max":1061,"o":"m 375 767 l 375 200 l 1061 200 l 1061 81 l 243 81 l 243 767 l 375 767 z "},"ㄵ":{"ha":1264,"x_min":213,"x_max":1128,"o":"m 851 338 q 842 303 849 322 q 808 243 835 283 q 786 209 797 226 q 759 171 775 192 q 721 122 743 150 q 665 57 699 94 l 572 133 q 626 196 603 168 q 666 247 649 224 q 697 290 683 269 q 724 331 711 310 q 753 385 742 361 q 772 433 765 410 q 782 481 779 456 q 785 539 785 506 l 785 649 l 611 649 l 611 761 l 1086 761 l 1086 649 l 914 649 l 914 539 q 917 481 914 506 q 926 433 919 456 q 945 385 933 410 q 976 331 957 361 q 1002 291 989 311 q 1033 247 1015 271 q 1074 196 1051 224 q 1128 133 1097 168 l 1039 54 q 986 118 1008 90 q 947 168 964 146 q 919 208 931 190 q 896 243 907 226 q 863 303 869 283 q 853 338 856 322 l 851 338 m 342 182 l 363 182 q 461 185 408 182 q 565 196 514 189 l 575 78 q 461 66 517 69 q 347 63 406 63 l 213 63 l 213 750 l 342 750 l 342 182 z "},"ㄶ":{"ha":1264,"x_min":201,"x_max":1089,"o":"m 1053 242 q 1038 167 1053 203 q 994 105 1024 132 q 923 62 965 78 q 826 46 881 46 q 731 62 772 46 q 660 105 689 78 q 615 167 631 132 q 600 242 600 203 l 600 321 q 615 395 600 360 q 660 458 631 431 q 731 501 689 485 q 826 517 772 517 q 923 501 881 517 q 994 458 965 485 q 1038 395 1024 431 q 1053 321 1053 360 l 1053 242 m 331 182 l 372 182 q 471 185 418 182 q 575 196 524 189 l 585 78 q 471 66 526 69 q 357 63 415 63 l 201 63 l 201 750 l 331 750 l 331 182 m 1089 568 l 558 568 l 558 674 l 767 674 l 767 792 l 886 792 l 886 674 l 1089 674 l 1089 568 m 933 310 q 927 347 933 328 q 908 383 921 367 q 874 408 894 399 q 826 418 854 418 q 778 408 799 418 q 745 383 758 399 q 726 347 732 367 q 719 310 719 328 l 719 253 q 726 215 719 233 q 745 180 732 196 q 778 154 758 164 q 826 144 799 144 q 874 154 854 144 q 908 180 894 164 q 927 215 921 196 q 933 253 933 233 l 933 310 z "},"ㄷ":{"ha":1264,"x_min":235,"x_max":1040,"o":"m 235 78 l 235 760 l 1033 760 l 1033 640 l 364 640 l 364 197 l 1040 197 l 1040 78 l 235 78 z "},"ㄸ":{"ha":1264,"x_min":204,"x_max":1086,"o":"m 664 78 l 664 760 l 1082 760 l 1082 640 l 793 640 l 793 197 l 1086 197 l 1086 78 l 664 78 m 204 78 l 204 760 l 622 760 l 622 640 l 333 640 l 333 197 l 625 197 l 625 78 l 204 78 z "},"ㄹ":{"ha":1264,"x_min":240,"x_max":1068,"o":"m 240 63 l 240 482 l 921 482 l 921 657 l 240 657 l 240 774 l 1049 774 l 1049 364 l 369 364 l 369 181 l 1068 181 l 1068 63 l 240 63 z "},"ㄺ":{"ha":1264,"x_min":200,"x_max":1090,"o":"m 961 79 l 961 646 l 653 646 l 653 765 l 1090 765 l 1090 79 l 961 79 m 200 79 l 200 479 l 490 479 l 490 647 l 200 647 l 200 765 l 617 765 l 617 364 l 326 364 l 326 197 l 632 197 l 632 79 l 200 79 z "},"ㄻ":{"ha":1264,"x_min":183,"x_max":1093,"o":"m 183 78 l 183 478 l 467 478 l 467 643 l 183 643 l 183 761 l 594 761 l 594 363 l 311 363 l 311 196 l 606 196 l 606 78 l 183 78 m 964 642 l 783 642 l 783 197 l 964 197 l 964 642 m 654 78 l 654 761 l 1093 761 l 1093 78 l 654 78 z "},"ㄼ":{"ha":1264,"x_min":179,"x_max":1099,"o":"m 969 408 l 785 408 l 785 197 l 969 197 l 969 408 m 656 78 l 656 761 l 785 761 l 785 526 l 969 526 l 969 761 l 1099 761 l 1099 78 l 656 78 m 179 78 l 179 478 l 465 478 l 465 643 l 179 643 l 179 761 l 593 761 l 593 363 l 307 363 l 307 196 l 603 196 l 603 78 l 179 78 z "},"ㄽ":{"ha":1264,"x_min":181,"x_max":1182,"o":"m 888 338 q 871 300 886 326 q 836 244 856 274 q 810 207 824 225 q 778 167 796 189 q 736 119 760 146 q 679 60 713 93 l 603 135 l 603 78 l 181 78 l 181 478 l 465 478 l 465 643 l 181 643 l 181 761 l 593 761 l 593 363 l 307 363 l 307 196 l 603 196 l 603 157 q 698 262 663 221 q 757 342 733 303 q 803 429 785 385 q 822 543 822 474 l 822 763 l 953 763 l 953 543 q 957 481 953 508 q 969 431 961 454 q 990 387 978 408 q 1017 342 1001 365 q 1044 301 1029 321 q 1079 259 1060 282 q 1124 209 1099 236 q 1182 147 1149 182 l 1099 60 q 997 171 1032 129 q 940 244 963 213 q 906 299 921 272 q 889 338 890 326 l 888 338 z "},"ㄾ":{"ha":1264,"x_min":186,"x_max":1078,"o":"m 186 78 l 186 478 l 460 478 l 460 643 l 186 643 l 186 761 l 588 761 l 588 363 l 313 363 l 313 196 l 599 196 l 599 78 l 186 78 m 646 78 l 646 760 l 1071 760 l 1071 640 l 775 640 l 775 478 l 1058 478 l 1058 361 l 775 361 l 775 197 l 1078 197 l 1078 78 l 646 78 z "},"ㄿ":{"ha":1264,"x_min":174,"x_max":1089,"o":"m 1083 656 l 1007 656 l 1007 192 l 1089 192 l 1089 78 l 610 78 l 610 192 l 690 192 l 690 656 l 615 656 l 615 767 l 1083 767 l 1083 656 m 174 78 l 174 476 l 436 476 l 436 646 l 174 646 l 174 761 l 560 761 l 560 364 l 299 364 l 299 192 l 578 192 l 578 78 l 174 78 m 807 192 l 890 192 l 890 656 l 807 656 l 807 192 z "},"ㅀ":{"ha":1264,"x_min":167,"x_max":1103,"o":"m 564 365 l 293 365 l 293 186 l 582 186 l 582 74 l 167 74 l 167 475 l 438 475 l 438 647 l 167 647 l 167 760 l 564 760 l 564 365 m 1074 242 q 1059 167 1074 203 q 1015 105 1044 132 q 944 62 986 78 q 847 46 901 46 q 751 62 793 46 q 681 105 710 78 q 636 167 651 132 q 621 242 621 203 l 621 321 q 636 395 621 360 q 681 458 651 431 q 751 501 710 485 q 847 517 793 517 q 944 501 901 517 q 1015 458 986 485 q 1059 395 1044 431 q 1074 321 1074 360 l 1074 242 m 1103 568 l 592 568 l 592 674 l 788 674 l 788 792 l 907 792 l 907 674 l 1103 674 l 1103 568 m 954 310 q 948 347 954 328 q 928 383 942 367 q 895 408 915 399 q 847 418 875 418 q 799 408 819 418 q 766 383 779 399 q 747 347 753 367 q 740 310 740 328 l 740 253 q 747 215 740 233 q 766 180 753 196 q 799 154 779 164 q 847 144 819 144 q 895 154 875 144 q 928 180 915 164 q 948 215 942 196 q 954 253 954 233 l 954 310 z "},"ㅁ":{"ha":1264,"x_min":229,"x_max":1035,"o":"m 906 643 l 358 643 l 358 197 l 906 197 l 906 643 m 229 78 l 229 763 l 1035 763 l 1035 78 l 229 78 z "},"ㅂ":{"ha":1264,"x_min":229,"x_max":1035,"o":"m 906 407 l 358 407 l 358 196 l 906 196 l 906 407 m 229 76 l 229 774 l 358 774 l 358 525 l 906 525 l 906 774 l 1035 774 l 1035 76 l 229 76 z "},"ㅃ":{"ha":1264,"x_min":186,"x_max":1078,"o":"m 953 401 l 797 401 l 797 197 l 953 197 l 953 401 m 467 401 l 311 401 l 311 197 l 467 197 l 467 401 m 186 78 l 186 772 l 311 772 l 311 519 l 467 519 l 467 772 l 590 772 l 590 78 l 186 78 m 674 78 l 674 772 l 797 772 l 797 519 l 953 519 l 953 772 l 1078 772 l 1078 78 l 674 78 z "},"ㅄ":{"ha":1264,"x_min":175,"x_max":1182,"o":"m 888 338 q 871 300 886 326 q 836 244 856 274 q 810 207 824 225 q 778 167 796 189 q 736 119 760 146 q 679 60 713 93 l 596 142 l 596 78 l 175 78 l 175 772 l 304 772 l 304 519 l 468 519 l 468 772 l 596 772 l 596 150 q 653 210 628 183 q 697 259 678 236 q 730 302 715 282 q 757 342 744 322 q 803 429 785 385 q 822 543 822 474 l 822 774 l 953 774 l 953 543 q 957 481 953 508 q 969 431 961 454 q 990 387 978 408 q 1017 342 1001 365 q 1044 301 1029 321 q 1079 259 1060 282 q 1124 209 1099 236 q 1182 147 1149 182 l 1099 60 q 997 171 1032 129 q 940 244 963 213 q 906 299 921 272 q 889 338 890 326 l 888 338 m 468 401 l 304 401 l 304 197 l 468 197 l 468 401 z "},"ㅅ":{"ha":1264,"x_min":163,"x_max":1103,"o":"m 632 383 q 592 331 622 361 q 515 264 561 300 q 385 168 458 219 q 233 68 313 117 l 163 171 q 303 262 243 221 q 407 336 363 303 q 494 411 463 379 q 543 474 526 443 q 564 538 560 504 q 568 619 568 572 l 568 786 l 697 786 l 697 619 q 701 538 697 572 q 722 474 706 504 q 771 411 739 443 q 858 336 803 379 q 963 262 903 303 q 1103 171 1022 221 l 1032 69 q 880 169 953 118 q 750 265 807 221 q 674 332 704 301 q 633 383 643 363 l 632 383 z "},"ㅆ":{"ha":1264,"x_min":68,"x_max":1196,"o":"m 933 788 l 933 569 q 942 468 933 511 q 980 382 951 425 q 1060 287 1008 339 q 1196 156 1111 235 l 1114 68 q 952 222 1011 157 q 868 326 893 286 q 784 225 844 290 q 632 71 724 160 q 480 225 540 160 q 396 326 419 290 q 312 222 371 286 q 150 68 253 157 l 68 156 q 204 287 153 235 q 284 382 256 339 q 322 468 313 425 q 331 569 331 511 l 331 788 l 460 788 l 460 569 q 465 475 460 511 q 487 406 469 439 q 538 334 504 372 q 632 233 572 296 q 726 334 692 296 q 777 406 760 372 q 799 475 794 439 q 804 569 804 511 l 804 788 l 933 788 z "},"ㅇ":{"ha":1264,"x_min":232,"x_max":1032,"o":"m 232 458 q 262 585 232 526 q 345 688 292 644 q 472 756 399 731 q 632 781 546 781 q 791 756 718 781 q 917 688 864 731 q 1001 585 971 644 q 1032 458 1032 526 l 1032 393 q 1001 266 1032 325 q 917 164 971 207 q 791 96 864 121 q 632 71 718 71 q 472 96 546 71 q 345 164 399 121 q 262 266 292 207 q 232 393 232 325 l 232 458 m 632 657 q 521 641 571 657 q 435 597 471 625 q 381 533 400 569 q 361 454 361 496 l 361 397 q 381 319 361 356 q 435 254 400 282 q 521 210 471 226 q 632 194 571 194 q 742 210 693 194 q 827 254 792 226 q 882 319 863 282 q 901 397 901 356 l 901 454 q 882 533 901 496 q 827 597 863 569 q 742 641 792 625 q 632 657 693 657 z "},"ㅈ":{"ha":1264,"x_min":163,"x_max":1103,"o":"m 1047 653 l 697 653 l 697 615 q 701 534 697 568 q 722 469 706 500 q 771 407 739 439 q 858 332 803 375 q 963 258 903 299 q 1103 167 1022 217 l 1032 65 q 880 165 953 114 q 750 261 807 217 q 674 328 704 297 q 633 379 643 358 l 632 379 q 592 326 622 357 q 515 260 561 296 q 385 164 458 215 q 233 64 313 113 l 163 167 q 303 258 243 217 q 407 332 363 299 q 494 407 463 375 q 543 469 526 439 q 564 534 560 500 q 568 615 568 568 l 568 653 l 217 653 l 217 772 l 1047 772 l 1047 653 z "},"ㅉ":{"ha":1264,"x_min":97,"x_max":1167,"o":"m 632 85 q 489 230 546 168 q 408 328 432 292 q 332 231 386 292 q 178 83 278 171 l 97 169 q 232 300 182 249 q 308 393 282 351 q 340 475 333 435 q 347 569 347 515 l 347 654 l 168 654 l 168 772 l 1096 772 l 1096 654 l 917 654 l 917 569 q 924 475 917 515 q 956 393 931 435 q 1032 300 982 351 q 1167 169 1082 249 l 1086 83 q 933 231 989 171 q 856 328 878 292 q 775 230 832 292 q 632 85 718 168 m 632 247 q 718 340 686 304 q 767 408 750 376 q 788 476 783 440 q 792 569 792 513 l 792 654 l 472 654 l 472 569 q 476 476 472 513 q 497 408 481 440 q 546 340 514 376 q 632 247 578 304 z "},"ㅊ":{"ha":1264,"x_min":167,"x_max":1099,"o":"m 1061 599 l 697 599 q 702 522 697 554 q 724 460 707 490 q 772 400 740 431 q 858 328 804 369 q 960 256 903 294 q 1099 167 1018 217 l 1028 65 q 878 163 949 114 q 750 257 807 213 q 674 323 704 293 q 633 374 643 353 l 632 374 q 592 322 622 351 q 515 256 561 292 q 388 162 458 211 q 238 64 317 113 l 167 167 q 305 256 247 217 q 407 328 363 294 q 492 400 461 369 q 540 460 524 431 q 563 522 557 490 q 568 599 568 554 l 203 599 l 203 717 l 568 717 l 568 864 l 697 864 l 697 717 l 1061 717 l 1061 599 z "},"ㅋ":{"ha":1264,"x_min":211,"x_max":1040,"o":"m 1040 68 l 908 68 l 908 343 l 215 333 l 211 450 l 908 458 l 908 654 l 231 654 l 231 772 l 1040 772 l 1040 68 z "},"ㅌ":{"ha":1264,"x_min":238,"x_max":1060,"o":"m 238 76 l 238 760 l 1049 760 l 1049 642 l 365 642 l 365 478 l 1036 478 l 1036 360 l 365 360 l 365 194 l 1060 194 l 1060 76 l 238 76 z "},"ㅍ":{"ha":1264,"x_min":179,"x_max":1085,"o":"m 1085 75 l 179 75 l 179 193 l 367 193 l 367 639 l 192 639 l 192 757 l 1072 757 l 1072 639 l 897 639 l 897 193 l 1085 193 l 1085 75 m 496 193 l 768 193 l 768 639 l 496 639 l 496 193 z "},"ㅎ":{"ha":1264,"x_min":196,"x_max":1068,"o":"m 632 17 q 483 33 550 17 q 369 79 417 49 q 294 154 321 110 q 268 256 268 199 l 268 294 q 294 394 268 350 q 369 470 321 439 q 483 517 417 501 q 632 533 550 533 q 780 517 713 533 q 895 470 847 501 q 969 394 943 439 q 996 294 996 350 l 996 256 q 969 154 996 199 q 895 79 943 110 q 780 33 847 49 q 632 17 713 17 m 1068 599 l 196 599 l 196 715 l 568 715 l 568 875 l 697 875 l 697 715 l 1068 715 l 1068 599 m 632 415 q 456 381 517 415 q 396 288 396 347 l 396 263 q 456 169 396 203 q 632 135 517 135 q 808 169 747 135 q 868 263 868 203 l 868 288 q 808 381 868 347 q 632 415 747 415 z "},"ㅏ":{"ha":1264,"x_min":533,"x_max":933,"o":"m 933 450 l 671 450 l 671 -194 l 533 -194 l 533 1086 l 671 1086 l 671 569 l 933 569 l 933 450 z "},"ㅐ":{"ha":1264,"x_min":415,"x_max":849,"o":"m 849 -194 l 714 -194 l 714 450 l 550 450 l 550 -132 l 415 -132 l 415 1060 l 550 1060 l 550 569 l 714 569 l 714 1086 l 849 1086 l 849 -194 z "},"ㅑ":{"ha":1264,"x_min":432,"x_max":832,"o":"m 832 600 l 569 600 l 569 408 l 832 408 l 832 289 l 569 289 l 569 -194 l 432 -194 l 432 1086 l 569 1086 l 569 719 l 832 719 l 832 600 z "},"ㅒ":{"ha":1264,"x_min":415,"x_max":849,"o":"m 849 -194 l 714 -194 l 714 289 l 550 289 l 550 -132 l 415 -132 l 415 1060 l 550 1060 l 550 719 l 714 719 l 714 1086 l 849 1086 l 849 -194 m 550 407 l 714 407 l 714 601 l 550 601 l 550 407 z "},"ㅓ":{"ha":1264,"x_min":432,"x_max":832,"o":"m 694 -194 l 694 450 l 432 450 l 432 569 l 694 569 l 694 1086 l 832 1086 l 832 -194 l 694 -194 z "},"ㅔ":{"ha":1264,"x_min":331,"x_max":933,"o":"m 544 1060 l 679 1060 l 679 -132 l 544 -132 l 544 451 l 331 451 l 331 571 l 544 571 l 544 1060 m 933 -194 l 799 -194 l 799 1086 l 933 1086 l 933 -194 z "},"ㅕ":{"ha":1264,"x_min":432,"x_max":832,"o":"m 694 -194 l 694 289 l 432 289 l 432 408 l 694 408 l 694 600 l 432 600 l 432 719 l 694 719 l 694 1086 l 832 1086 l 832 -194 l 694 -194 z "},"ㅖ":{"ha":1264,"x_min":331,"x_max":933,"o":"m 331 411 l 544 411 l 544 604 l 331 604 l 331 724 l 544 724 l 544 1060 l 679 1060 l 679 -132 l 544 -132 l 544 292 l 331 292 l 331 411 m 933 -194 l 799 -194 l 799 1086 l 933 1086 l 933 -194 z "},"ㅗ":{"ha":1264,"x_min":44,"x_max":1219,"o":"m 1219 206 l 1219 89 l 44 89 l 44 206 l 563 206 l 563 681 l 701 681 l 701 206 l 1219 206 z "},"ㅘ":{"ha":1264,"x_min":21,"x_max":1243,"o":"m 918 -194 l 918 1086 l 1054 1086 l 1054 601 l 1243 601 l 1243 482 l 1054 482 l 1054 -194 l 918 -194 m 849 103 q 684 89 763 94 q 513 80 606 83 q 303 75 421 76 q 21 74 185 74 l 21 193 q 196 193 117 193 q 343 196 275 193 l 343 568 l 479 568 l 479 199 q 666 208 582 203 q 838 222 750 214 l 849 103 z "},"ㅙ":{"ha":1264,"x_min":71,"x_max":1193,"o":"m 1193 -194 l 1058 -194 l 1058 469 l 938 469 l 938 -160 l 803 -160 l 803 1064 l 938 1064 l 938 589 l 1058 589 l 1058 1086 l 1193 1086 l 1193 -194 m 761 108 q 458 97 628 100 q 71 93 289 93 l 71 213 l 329 213 l 329 567 l 469 567 l 469 214 q 623 219 553 217 q 756 225 693 221 l 761 108 z "},"ㅚ":{"ha":1264,"x_min":104,"x_max":1160,"o":"m 1024 -194 l 1024 1086 l 1160 1086 l 1160 -194 l 1024 -194 m 954 107 q 774 92 867 99 q 578 82 681 86 q 358 76 475 78 q 104 74 240 74 l 104 193 q 279 192 197 192 q 436 194 361 193 l 436 568 l 576 568 l 576 199 q 765 208 676 201 q 942 222 854 214 l 954 107 z "},"ㅛ":{"ha":1264,"x_min":44,"x_max":1219,"o":"m 1219 206 l 1219 89 l 44 89 l 44 206 l 372 206 l 372 681 l 511 681 l 511 206 l 754 206 l 754 681 l 893 681 l 893 206 l 1219 206 z "},"ㅜ":{"ha":1264,"x_min":44,"x_max":1219,"o":"m 44 335 l 44 451 l 1219 451 l 1219 335 l 701 335 l 701 -142 l 563 -142 l 563 335 l 44 335 z "},"ㅝ":{"ha":1264,"x_min":103,"x_max":1160,"o":"m 1024 -194 l 1024 86 l 743 86 l 743 204 l 1024 204 l 1024 1086 l 1160 1086 l 1160 -194 l 1024 -194 m 431 -154 l 431 331 q 275 328 356 329 q 103 328 194 328 l 103 447 q 356 449 240 447 q 572 453 471 450 q 764 463 674 457 q 940 476 854 468 l 951 361 q 767 345 861 351 q 569 335 674 339 l 569 -154 l 431 -154 z "},"ㅞ":{"ha":1264,"x_min":72,"x_max":1192,"o":"m 811 1064 l 946 1064 l 946 -158 l 811 -158 l 811 125 l 592 125 l 592 240 l 811 240 l 811 1064 m 1192 -194 l 1057 -194 l 1057 1086 l 1192 1086 l 1192 -194 m 344 -112 l 344 325 q 217 324 283 324 q 72 324 151 324 l 72 442 q 266 442 181 442 q 429 444 351 443 q 582 449 507 446 q 744 457 657 451 l 750 343 q 610 333 675 336 q 481 328 546 331 l 481 -112 l 344 -112 z "},"ㅟ":{"ha":1264,"x_min":107,"x_max":1156,"o":"m 1019 -194 l 1019 1086 l 1156 1086 l 1156 -194 l 1019 -194 m 446 -156 l 446 290 q 285 288 369 288 q 107 288 201 288 l 107 407 q 359 408 244 407 q 574 413 474 410 q 763 422 674 417 q 939 436 853 428 l 950 321 q 774 305 863 311 q 586 294 686 299 l 586 -156 l 446 -156 z "},"ㅠ":{"ha":1264,"x_min":44,"x_max":1219,"o":"m 44 335 l 44 451 l 1219 451 l 1219 335 l 893 335 l 893 -142 l 754 -142 l 754 335 l 510 335 l 510 -142 l 371 -142 l 371 335 l 44 335 z "},"ㅡ":{"ha":1264,"x_min":44,"x_max":1219,"o":"m 1219 247 l 1219 131 l 44 131 l 44 247 l 1219 247 z "},"ㅢ":{"ha":1264,"x_min":107,"x_max":1156,"o":"m 950 140 q 771 126 863 132 q 577 115 679 119 q 359 109 475 111 q 107 107 243 107 l 107 226 q 359 228 244 226 q 574 233 474 229 q 763 242 674 236 q 938 256 851 247 l 950 140 m 1019 -194 l 1019 1086 l 1156 1086 l 1156 -194 l 1019 -194 z "},"ㅣ":{"ha":1264,"x_min":563,"x_max":700,"o":"m 563 -194 l 563 1086 l 700 1086 l 700 -194 l 563 -194 z "},"ㅥ":{"ha":1264,"x_min":190,"x_max":1074,"o":"m 781 757 l 781 200 l 1074 200 l 1074 81 l 653 81 l 653 757 l 781 757 m 319 757 l 319 200 l 613 200 l 613 81 l 190 81 l 190 757 l 319 757 z "},"ㅦ":{"ha":1264,"x_min":189,"x_max":1074,"o":"m 650 81 l 650 758 l 1060 758 l 1060 639 l 778 639 l 778 200 l 1074 200 l 1074 81 l 650 81 m 318 757 l 318 200 l 613 200 l 613 81 l 189 81 l 189 757 l 318 757 z "},"ㅧ":{"ha":1264,"x_min":132,"x_max":1126,"o":"m 832 332 q 815 294 831 321 q 781 239 800 268 q 754 201 768 219 q 722 162 740 183 q 681 114 704 140 q 624 54 657 88 l 540 136 l 540 79 l 132 79 l 132 756 l 261 756 l 261 199 l 540 199 l 540 144 q 597 204 572 178 q 641 253 622 231 q 674 297 660 276 q 701 336 689 317 q 748 424 729 379 q 767 538 767 468 l 767 757 l 897 757 l 897 538 q 901 476 897 503 q 914 426 906 449 q 934 381 922 403 q 961 336 946 360 q 989 296 974 315 q 1024 253 1004 276 q 1068 203 1043 231 q 1126 142 1093 176 l 1043 54 q 942 165 976 124 q 885 239 907 207 q 850 294 865 267 q 833 332 835 321 l 832 332 z "},"ㅨ":{"ha":1264,"x_min":176,"x_max":1086,"o":"m 306 757 l 306 200 l 569 200 l 569 81 l 176 81 l 176 757 l 306 757 m 933 196 l 840 501 l 746 196 l 933 196 m 1086 81 l 593 81 l 840 824 l 1086 81 z "},"ㅩ":{"ha":1264,"x_min":57,"x_max":1218,"o":"m 746 119 l 746 79 l 619 79 l 619 646 l 428 646 l 428 765 l 746 765 l 746 194 q 863 367 829 296 q 883 417 875 394 q 894 460 890 439 q 899 501 897 481 q 900 550 900 522 l 900 763 l 1028 763 l 1028 550 q 1029 501 1028 522 q 1034 460 1031 481 q 1045 417 1038 439 q 1065 367 1053 394 q 1119 273 1086 322 q 1218 151 1153 224 l 1131 71 q 1046 177 1079 129 q 992 261 1013 225 q 974 295 981 281 q 965 321 968 310 q 956 294 963 310 q 940 261 950 278 q 886 176 919 222 q 800 71 853 129 l 746 119 m 57 79 l 57 479 l 258 479 l 258 647 l 57 647 l 57 765 l 385 765 l 385 364 l 182 364 l 182 197 l 436 197 l 436 79 l 57 79 z "},"ㅪ":{"ha":1264,"x_min":201,"x_max":1063,"o":"m 672 81 l 672 758 l 1049 758 l 1049 639 l 800 639 l 800 200 l 1063 200 l 1063 81 l 672 81 m 201 78 l 201 478 l 475 478 l 475 643 l 201 643 l 201 761 l 601 761 l 601 363 l 329 363 l 329 196 l 613 196 l 613 78 l 201 78 z "},"ㅫ":{"ha":1264,"x_min":63,"x_max":1192,"o":"m 761 122 l 761 78 l 421 78 l 421 772 l 542 772 l 542 514 l 640 514 l 640 772 l 761 772 l 761 176 q 820 274 797 232 q 861 353 843 317 q 893 456 886 410 q 900 557 900 503 l 900 763 l 1028 763 l 1028 557 q 1035 456 1028 503 q 1067 353 1042 410 q 1118 256 1088 308 q 1192 142 1149 203 l 1100 68 q 1035 165 1058 126 q 994 240 1011 204 q 976 278 985 260 q 965 308 968 297 q 955 276 963 296 q 939 240 947 257 q 898 165 921 203 q 831 68 875 126 l 761 122 m 63 79 l 63 479 l 244 479 l 244 647 l 63 647 l 63 765 l 368 765 l 368 364 l 185 364 l 185 197 l 388 197 l 388 79 l 63 79 m 640 399 l 542 399 l 542 194 l 640 194 l 640 399 z "},"ㅬ":{"ha":1264,"x_min":169,"x_max":1094,"o":"m 169 81 l 169 478 l 444 478 l 444 643 l 169 643 l 169 761 l 572 761 l 572 363 l 297 363 l 297 199 l 582 199 l 582 81 l 169 81 m 942 196 l 849 501 l 754 196 l 942 196 m 1094 81 l 601 81 l 849 824 l 1094 81 z "},"ㅭ":{"ha":1264,"x_min":178,"x_max":1085,"o":"m 1085 643 l 635 643 l 635 761 l 1085 761 l 1085 643 m 178 81 l 178 478 l 460 478 l 460 643 l 178 643 l 178 761 l 588 761 l 588 363 l 306 363 l 306 199 l 618 199 l 618 81 l 178 81 m 1085 257 q 1073 187 1085 222 q 1035 122 1061 151 q 967 74 1010 93 q 864 56 925 56 q 760 74 803 56 q 691 122 718 93 q 652 187 664 151 q 640 257 640 222 l 640 325 q 652 395 640 360 q 691 460 664 431 q 760 508 718 489 q 864 526 803 526 q 967 508 925 526 q 1035 460 1010 489 q 1073 395 1061 431 q 1085 325 1085 360 l 1085 257 m 963 317 q 938 388 963 358 q 864 417 914 417 q 789 388 815 417 q 763 317 763 358 l 763 265 q 789 194 763 224 q 864 165 815 165 q 938 194 914 165 q 963 265 963 224 l 963 317 z "},"ㅮ":{"ha":1264,"x_min":194,"x_max":1069,"o":"m 943 408 l 792 408 l 792 197 l 943 197 l 943 408 m 468 642 l 321 642 l 321 197 l 468 197 l 468 642 m 665 78 l 665 761 l 792 761 l 792 526 l 943 526 l 943 761 l 1069 761 l 1069 78 l 665 78 m 194 78 l 194 761 l 594 761 l 594 78 l 194 78 z "},"ㅯ":{"ha":1264,"x_min":136,"x_max":1139,"o":"m 844 332 q 828 294 843 321 q 793 239 813 268 q 767 201 781 219 q 735 162 753 183 q 693 114 717 140 q 636 54 669 88 l 558 131 l 558 78 l 136 78 l 136 761 l 558 761 l 558 150 q 655 256 619 214 q 714 336 690 297 q 760 424 742 379 q 779 538 779 468 l 779 757 l 910 757 l 910 538 q 914 476 910 503 q 926 426 918 449 q 947 381 935 403 q 974 336 958 360 q 1001 296 986 315 q 1036 253 1017 276 q 1081 203 1056 231 q 1139 142 1106 176 l 1056 54 q 954 165 989 124 q 897 239 919 207 q 863 294 878 267 q 846 332 847 321 l 844 332 m 431 642 l 263 642 l 263 197 l 431 197 l 431 642 z "},"ㅰ":{"ha":1264,"x_min":160,"x_max":1103,"o":"m 454 642 l 286 642 l 286 197 l 454 197 l 454 642 m 160 78 l 160 761 l 582 761 l 582 78 l 160 78 m 949 193 l 856 500 l 763 193 l 949 193 m 1103 78 l 610 78 l 856 821 l 1103 78 z "},"ㅱ":{"ha":1264,"x_min":304,"x_max":958,"o":"m 831 804 l 431 804 l 431 515 l 831 515 l 831 804 m 304 397 l 304 922 l 958 922 l 958 397 l 304 397 m 871 119 q 856 57 871 88 q 810 2 840 26 q 735 -37 779 -22 q 632 -53 690 -53 q 530 -37 574 -53 q 456 2 486 -22 q 410 57 425 26 q 394 119 394 88 l 394 161 q 410 223 394 192 q 456 278 425 254 q 530 318 486 303 q 632 333 574 333 q 735 318 690 333 q 810 278 779 303 q 856 223 840 254 q 871 161 871 192 l 871 119 m 747 153 q 715 210 747 189 q 632 231 682 231 q 551 210 583 231 q 518 153 518 189 l 518 128 q 551 71 518 92 q 632 50 583 50 q 715 71 682 50 q 747 128 747 92 l 747 153 z "},"ㅲ":{"ha":1264,"x_min":193,"x_max":1071,"o":"m 492 400 l 321 400 l 321 199 l 492 199 l 492 400 m 943 78 l 943 642 l 675 642 l 675 761 l 1071 761 l 1071 78 l 943 78 m 193 79 l 193 761 l 321 761 l 321 518 l 492 518 l 492 761 l 618 761 l 618 79 l 193 79 z "},"ㅳ":{"ha":1264,"x_min":197,"x_max":1065,"o":"m 476 400 l 324 400 l 324 199 l 476 199 l 476 400 m 675 81 l 675 758 l 1051 758 l 1051 639 l 804 639 l 804 200 l 1065 200 l 1065 81 l 675 81 m 197 79 l 197 761 l 324 761 l 324 518 l 476 518 l 476 761 l 603 761 l 603 79 l 197 79 z "},"ㅴ":{"ha":1264,"x_min":111,"x_max":1150,"o":"m 460 115 l 460 78 l 111 78 l 111 761 l 233 761 l 233 514 l 339 514 l 339 761 l 460 761 l 460 199 q 572 367 539 299 q 592 417 585 394 q 603 460 600 439 q 608 501 607 481 q 610 550 610 522 l 610 763 l 738 763 l 738 550 q 739 501 738 522 q 744 460 740 481 q 755 417 747 439 q 775 367 763 394 q 829 273 796 322 q 928 151 863 224 l 840 71 q 756 177 789 129 q 701 261 722 225 q 684 295 690 281 q 675 321 678 310 q 666 294 672 310 q 650 261 660 278 q 596 176 629 222 q 510 71 563 129 l 460 115 m 1024 79 l 1024 642 l 818 642 l 818 761 l 1150 761 l 1150 79 l 1024 79 m 339 399 l 233 399 l 233 194 l 339 194 l 339 399 z "},"ㅵ":{"ha":1264,"x_min":113,"x_max":1147,"o":"m 446 122 l 446 78 l 113 78 l 113 761 l 229 761 l 229 514 l 331 514 l 331 761 l 446 761 l 446 176 q 505 274 482 232 q 546 353 528 317 q 578 456 571 410 q 585 557 585 503 l 585 763 l 713 763 l 713 557 q 719 456 713 503 q 751 353 726 410 q 849 182 786 275 l 849 761 l 1132 761 l 1132 642 l 974 642 l 974 200 l 1147 200 l 1147 81 l 849 81 l 849 119 l 785 68 q 719 165 743 126 q 679 240 696 204 q 661 278 669 260 q 650 308 653 297 q 640 276 647 296 q 624 240 632 257 q 583 165 606 203 q 515 68 560 126 l 446 122 m 331 194 l 331 399 l 229 399 l 229 194 l 331 194 z "},"ㅶ":{"ha":1264,"x_min":161,"x_max":1114,"o":"m 844 338 q 832 300 842 322 q 801 243 822 278 q 781 211 792 228 q 756 173 771 194 q 719 123 742 151 q 665 57 697 94 l 578 128 l 578 78 l 161 78 l 161 761 l 289 761 l 289 518 l 450 518 l 450 761 l 578 761 l 578 139 q 670 256 636 207 q 728 347 704 306 q 751 395 742 374 q 767 438 761 417 q 775 483 772 460 q 778 539 778 507 l 778 649 l 618 649 l 618 761 l 1065 761 l 1065 649 l 907 649 l 907 539 q 909 485 907 508 q 917 440 911 461 q 933 397 922 419 q 960 347 943 375 q 1017 256 983 307 q 1114 133 1051 204 l 1025 54 q 973 118 994 90 q 936 168 951 146 q 910 208 921 190 q 889 243 899 226 q 858 301 868 279 q 846 338 849 322 l 844 338 m 450 400 l 289 400 l 289 197 l 450 197 l 450 400 z "},"ㅷ":{"ha":1264,"x_min":196,"x_max":1067,"o":"m 475 400 l 322 400 l 322 199 l 475 199 l 475 400 m 674 79 l 674 758 l 1054 758 l 1054 639 l 801 639 l 801 479 l 1046 479 l 1046 360 l 801 360 l 801 199 l 1067 199 l 1067 79 l 674 79 m 196 79 l 196 761 l 322 761 l 322 518 l 475 518 l 475 761 l 601 761 l 601 79 l 196 79 z "},"ㅸ":{"ha":1264,"x_min":310,"x_max":953,"o":"m 825 654 l 436 654 l 436 538 l 825 538 l 825 654 m 310 418 l 310 922 l 436 922 l 436 772 l 825 772 l 825 922 l 953 922 l 953 418 l 310 418 m 875 119 q 860 57 875 88 q 816 2 846 26 q 740 -37 786 -22 q 632 -53 694 -53 q 524 -37 569 -53 q 449 2 478 -22 q 405 57 419 26 q 390 119 390 88 l 390 161 q 405 223 390 192 q 449 278 419 254 q 524 318 478 303 q 632 333 569 333 q 740 318 694 333 q 816 278 786 303 q 860 223 846 254 q 875 161 875 192 l 875 119 m 747 153 q 715 210 747 189 q 632 231 682 231 q 551 210 583 231 q 518 153 518 189 l 518 128 q 551 71 518 92 q 632 50 583 50 q 715 71 682 50 q 747 128 747 92 l 747 153 z "},"ㅹ":{"ha":1264,"x_min":260,"x_max":1004,"o":"m 260 403 l 260 901 l 376 901 l 376 750 l 489 750 l 489 901 l 604 901 l 604 403 l 260 403 m 489 639 l 376 639 l 376 514 l 489 514 l 489 639 m 660 403 l 660 901 l 776 901 l 776 750 l 888 750 l 888 901 l 1004 901 l 1004 403 l 660 403 m 888 639 l 776 639 l 776 514 l 888 514 l 888 639 m 875 119 q 860 57 875 88 q 816 2 846 26 q 740 -37 786 -22 q 632 -53 694 -53 q 524 -37 569 -53 q 449 2 478 -22 q 405 57 419 26 q 390 119 390 88 l 390 161 q 405 223 390 192 q 449 278 419 254 q 524 318 478 303 q 632 333 569 333 q 740 318 694 333 q 816 278 786 303 q 860 223 846 254 q 875 161 875 192 l 875 119 m 747 153 q 715 210 747 189 q 632 231 682 231 q 551 210 583 231 q 518 153 518 189 l 518 128 q 551 71 518 92 q 632 50 583 50 q 715 71 682 50 q 747 128 747 92 l 747 153 z "},"ㅺ":{"ha":1264,"x_min":169,"x_max":1092,"o":"m 963 81 l 963 639 l 651 639 l 651 758 l 1092 758 l 1092 81 l 963 81 m 468 338 q 451 300 467 326 q 417 244 436 274 q 390 207 404 225 q 356 167 375 189 q 314 119 338 146 q 257 60 290 93 l 169 146 q 228 208 203 181 q 274 258 254 235 q 309 302 293 282 q 338 342 325 322 q 384 429 365 385 q 403 543 403 474 l 403 763 l 533 763 l 533 543 q 538 481 533 508 q 550 431 542 454 q 570 387 558 408 q 597 342 582 365 q 661 258 624 301 q 765 147 699 215 l 682 60 q 579 171 615 129 q 521 244 543 213 q 486 299 501 272 q 469 338 471 326 l 468 338 z "},"ㅻ":{"ha":1264,"x_min":133,"x_max":1121,"o":"m 425 338 q 408 300 424 326 q 374 244 393 274 q 347 207 361 225 q 316 167 333 189 q 276 119 299 146 q 221 60 253 93 l 133 142 q 190 205 165 176 q 233 257 214 233 q 266 301 251 281 q 294 342 281 322 q 342 429 324 385 q 360 543 360 474 l 360 763 l 490 763 l 490 543 q 494 481 490 508 q 506 431 499 454 q 526 387 514 408 q 554 342 538 365 q 581 303 567 322 q 612 261 594 283 q 651 213 629 239 q 703 156 674 188 l 703 757 l 832 757 l 832 200 l 1121 200 l 1121 81 l 703 81 l 703 131 l 632 60 q 576 122 600 94 q 534 171 551 149 q 503 210 517 193 q 478 244 489 228 q 443 299 458 272 q 426 338 428 326 l 425 338 z "},"ㅼ":{"ha":1264,"x_min":133,"x_max":1115,"o":"m 425 338 q 408 300 424 326 q 374 244 393 274 q 347 207 361 225 q 316 167 333 189 q 276 119 299 146 q 221 60 253 93 l 133 142 q 190 205 165 176 q 233 257 214 233 q 266 301 251 281 q 294 342 281 322 q 342 429 324 385 q 360 543 360 474 l 360 763 l 490 763 l 490 543 q 494 481 490 508 q 506 431 499 454 q 526 387 514 408 q 554 342 538 365 q 581 303 567 322 q 612 261 594 283 q 651 213 629 239 q 703 156 674 188 l 703 758 l 1103 758 l 1103 639 l 832 639 l 832 200 l 1115 200 l 1115 81 l 703 81 l 703 131 l 632 60 q 576 122 600 94 q 534 171 551 149 q 503 210 517 193 q 478 244 489 228 q 443 299 458 272 q 426 338 428 326 l 425 338 z "},"ㅽ":{"ha":1264,"x_min":133,"x_max":1119,"o":"m 425 338 q 408 300 424 326 q 374 244 393 274 q 347 207 361 225 q 316 167 333 189 q 276 119 299 146 q 221 60 253 93 l 133 142 q 190 205 165 176 q 233 257 214 233 q 266 301 251 281 q 294 342 281 322 q 342 429 324 385 q 360 543 360 474 l 360 763 l 490 763 l 490 543 q 494 481 490 508 q 506 431 499 454 q 526 387 514 408 q 554 342 538 365 q 582 302 568 322 q 613 260 596 282 q 653 213 631 239 q 704 154 675 186 l 704 761 l 832 761 l 832 518 l 993 518 l 993 761 l 1119 761 l 1119 78 l 704 78 l 704 132 l 632 60 q 576 122 600 94 q 534 171 551 149 q 503 210 517 193 q 478 244 489 228 q 443 299 458 272 q 426 338 428 326 l 425 338 m 993 400 l 832 400 l 832 197 l 993 197 l 993 400 z "},"ㅾ":{"ha":1264,"x_min":133,"x_max":1128,"o":"m 851 338 q 842 303 849 322 q 808 243 835 283 q 786 208 797 226 q 758 167 775 190 q 715 115 740 144 q 650 44 689 86 q 584 113 611 83 q 537 167 557 143 q 503 210 517 192 q 478 244 489 228 q 443 299 458 272 q 426 338 428 326 l 425 338 q 408 300 424 326 q 374 244 393 274 q 347 207 361 225 q 316 167 333 189 q 276 119 299 146 q 221 60 253 93 l 133 142 q 190 205 165 176 q 233 257 214 233 q 266 301 251 281 q 294 342 281 322 q 342 429 324 385 q 360 543 360 474 l 360 763 l 490 763 l 490 543 q 494 481 490 508 q 506 431 499 454 q 526 387 514 408 q 554 342 538 365 q 594 285 574 314 q 646 219 614 256 q 690 277 671 251 q 724 331 708 303 q 753 385 742 361 q 772 433 765 410 q 782 481 779 456 q 785 539 785 506 l 785 649 l 611 649 l 611 761 l 1086 761 l 1086 649 l 914 649 l 914 539 q 917 481 914 506 q 926 433 919 456 q 945 385 933 410 q 976 331 957 361 q 1002 291 989 311 q 1033 247 1015 271 q 1074 196 1051 224 q 1128 133 1097 168 l 1039 54 q 986 118 1008 90 q 947 168 964 146 q 919 208 931 190 q 896 243 907 226 q 863 303 869 283 q 853 338 856 322 l 851 338 z "},"ㅿ":{"ha":1264,"x_min":301,"x_max":963,"o":"m 963 92 l 301 92 l 631 886 l 963 92 m 778 206 q 744 288 763 240 q 704 387 725 336 q 664 486 683 438 q 631 572 644 535 l 488 206 l 778 206 z "},"ㆀ":{"ha":1264,"x_min":140,"x_max":1122,"o":"m 374 772 q 548 697 486 772 q 610 472 610 622 l 610 363 q 547 138 610 213 q 374 63 485 63 q 203 138 265 63 q 140 363 140 213 l 140 472 q 203 697 140 622 q 374 772 265 772 m 374 175 q 456 221 428 175 q 483 375 483 267 l 483 460 q 456 613 483 568 q 374 658 428 658 q 294 613 321 658 q 267 460 267 568 l 267 375 q 294 221 267 267 q 374 175 321 175 m 886 772 q 1060 697 999 772 q 1122 472 1122 622 l 1122 363 q 1060 138 1122 213 q 886 63 997 63 q 715 138 778 63 q 653 363 653 213 l 653 472 q 715 697 653 622 q 886 772 778 772 m 886 175 q 968 221 940 175 q 996 375 996 267 l 996 460 q 968 613 996 568 q 886 658 940 658 q 806 613 833 658 q 779 460 779 568 l 779 375 q 806 221 779 267 q 886 175 833 175 z "},"ㆁ":{"ha":1264,"x_min":275,"x_max":988,"o":"m 631 -24 q 478 4 544 -24 q 367 76 413 32 q 299 176 322 121 q 275 288 275 232 l 275 383 q 294 483 275 433 q 351 574 314 532 q 442 647 388 617 q 567 686 496 676 l 567 913 l 694 913 l 694 686 q 820 647 765 676 q 912 574 875 617 q 968 483 949 532 q 988 383 988 433 l 988 288 q 964 176 988 232 q 895 76 940 121 q 783 4 850 32 q 631 -24 717 -24 m 631 575 q 539 559 581 575 q 468 516 497 543 q 422 451 439 489 q 406 369 406 413 l 406 301 q 422 221 406 258 q 468 156 439 183 q 539 113 497 129 q 631 97 581 97 q 722 113 681 97 q 794 156 764 129 q 840 221 824 183 q 857 301 857 258 l 857 369 q 840 451 857 413 q 794 516 824 489 q 722 559 764 543 q 631 575 681 575 z "},"ㆂ":{"ha":1264,"x_min":147,"x_max":1129,"o":"m 839 338 q 822 300 838 326 q 788 244 807 274 q 761 207 775 225 q 730 167 747 189 q 690 119 713 146 q 635 60 667 93 l 549 139 q 371 67 489 67 q 206 128 264 67 q 147 308 147 189 l 147 381 q 189 540 147 481 q 308 615 231 599 l 308 785 l 433 785 l 433 617 q 557 539 514 600 q 600 378 600 478 l 600 311 q 563 158 600 219 q 650 262 618 219 q 708 342 682 304 q 756 429 738 385 q 774 543 774 474 l 774 763 l 904 763 l 904 543 q 908 481 904 508 q 920 431 913 454 q 940 387 928 408 q 968 342 951 365 q 997 301 982 321 q 1030 257 1011 281 q 1073 206 1049 233 q 1129 143 1097 178 l 1046 60 q 990 122 1014 94 q 948 171 965 149 q 917 210 931 193 q 892 244 903 228 q 857 299 872 272 q 840 338 842 326 l 839 338 m 476 367 q 451 476 476 438 q 371 515 426 515 q 295 476 319 515 q 271 367 271 438 l 271 322 q 295 213 271 251 q 371 174 319 174 q 451 213 426 174 q 476 322 476 251 l 476 367 z "},"ㆃ":{"ha":1264,"x_min":176,"x_max":1100,"o":"m 629 311 q 570 129 629 192 q 400 67 511 67 q 235 128 293 67 q 176 308 176 189 l 176 381 q 218 540 176 481 q 338 615 260 599 l 338 785 l 463 785 l 463 617 q 586 539 543 600 q 629 378 629 478 l 629 311 m 1100 78 l 608 78 l 854 821 l 1100 78 m 506 367 q 481 476 506 438 q 400 515 456 515 q 324 476 349 515 q 300 367 300 438 l 300 322 q 324 213 300 251 q 400 174 349 174 q 481 213 456 174 q 506 322 506 251 l 506 367 m 947 193 l 854 500 l 760 193 l 947 193 z "},"ㆄ":{"ha":1264,"x_min":288,"x_max":975,"o":"m 963 817 l 842 817 l 842 532 l 975 532 l 975 418 l 288 418 l 288 532 l 421 532 l 421 817 l 301 817 l 301 931 l 963 931 l 963 817 m 875 119 q 860 57 875 88 q 816 2 846 26 q 740 -37 786 -22 q 632 -53 694 -53 q 524 -37 569 -53 q 449 2 478 -22 q 405 57 419 26 q 390 119 390 88 l 390 161 q 405 223 390 192 q 449 278 419 254 q 524 318 478 303 q 632 333 569 333 q 740 318 694 333 q 816 278 786 303 q 860 223 846 254 q 875 161 875 192 l 875 119 m 718 532 l 718 817 l 544 817 l 544 532 l 718 532 m 747 153 q 715 210 747 189 q 632 231 682 231 q 551 210 583 231 q 518 153 518 189 l 518 128 q 551 71 518 92 q 632 50 583 50 q 715 71 682 50 q 747 128 747 92 l 747 153 z "},"ㆅ":{"ha":1264,"x_min":185,"x_max":1079,"o":"m 590 242 q 578 169 590 204 q 542 108 567 135 q 481 64 518 81 q 394 47 444 47 q 308 64 344 47 q 247 108 271 81 q 210 169 222 135 q 199 242 199 204 l 199 324 q 210 396 199 361 q 247 458 222 431 q 308 501 271 485 q 394 518 344 518 q 481 501 444 518 q 542 458 518 485 q 578 396 567 431 q 590 324 590 361 l 590 242 m 1057 242 q 1045 169 1057 204 q 1009 108 1033 135 q 948 64 985 81 q 861 47 911 47 q 774 64 811 47 q 713 108 738 81 q 677 169 689 135 q 665 242 665 204 l 665 324 q 677 396 665 361 q 713 458 689 431 q 774 501 738 485 q 861 518 811 518 q 948 501 911 518 q 1009 458 985 485 q 1045 396 1033 431 q 1057 324 1057 361 l 1057 242 m 1079 571 l 651 571 l 651 674 l 806 674 l 806 792 l 924 792 l 924 674 l 1079 674 l 1079 571 m 613 571 l 185 571 l 185 674 l 339 674 l 339 792 l 457 792 l 457 674 l 613 674 l 613 571 m 474 313 q 471 347 474 328 q 459 382 468 365 q 435 410 450 399 q 394 421 419 421 q 354 410 369 421 q 330 382 339 399 q 318 347 321 365 q 315 313 315 328 l 315 253 q 318 219 315 238 q 330 183 321 200 q 354 156 339 167 q 394 144 369 144 q 435 156 419 144 q 459 183 450 167 q 471 219 468 200 q 474 253 474 238 l 474 313 m 940 313 q 938 347 940 328 q 926 382 935 365 q 901 410 917 399 q 861 421 886 421 q 821 410 836 421 q 797 382 806 399 q 785 347 788 365 q 782 313 782 328 l 782 253 q 785 219 782 238 q 797 183 788 200 q 821 156 806 167 q 861 144 836 144 q 901 156 886 144 q 926 183 917 167 q 938 219 935 200 q 940 253 940 238 l 940 313 z "},"ㆆ":{"ha":1264,"x_min":285,"x_max":978,"o":"m 978 774 l 285 774 l 285 892 l 978 892 l 978 774 m 631 4 q 501 26 561 4 q 398 86 442 47 q 330 178 354 125 q 306 297 306 232 l 306 361 q 330 479 306 425 q 398 573 354 533 q 501 634 442 613 q 631 656 561 656 q 760 634 701 656 q 863 573 819 613 q 931 479 907 533 q 956 361 956 425 l 956 297 q 931 178 956 232 q 863 86 907 125 q 760 26 819 47 q 631 4 701 4 m 631 539 q 482 488 536 539 q 428 354 428 438 l 428 304 q 482 171 428 221 q 631 121 536 121 q 780 171 726 121 q 833 304 833 221 l 833 354 q 780 488 833 438 q 631 539 726 539 z "},"ㆇ":{"ha":1264,"x_min":21,"x_max":1243,"o":"m 1243 314 l 1054 314 l 1054 -194 l 918 -194 l 918 1086 l 1054 1086 l 1054 746 l 1243 746 l 1243 626 l 1054 626 l 1054 433 l 1243 433 l 1243 314 m 849 103 q 684 89 763 94 q 513 80 606 83 q 303 75 421 76 q 21 74 185 74 l 21 193 l 207 193 l 207 568 l 340 568 l 340 194 l 511 200 l 511 568 l 644 568 l 644 207 q 741 214 693 210 q 838 222 789 218 l 849 103 z "},"ㆈ":{"ha":1264,"x_min":71,"x_max":1193,"o":"m 1193 -194 l 1058 -194 l 1058 318 l 938 318 l 938 -160 l 803 -160 l 803 1064 l 938 1064 l 938 746 l 1058 746 l 1058 1086 l 1193 1086 l 1193 -194 m 761 108 q 458 97 628 100 q 71 93 289 93 l 71 213 l 204 213 l 204 567 l 336 567 l 336 213 l 478 215 l 478 567 l 610 567 l 610 218 q 685 221 650 219 q 756 225 721 222 l 761 108 m 938 431 l 1058 431 l 1058 633 l 938 633 l 938 431 z "},"ㆉ":{"ha":1264,"x_min":104,"x_max":1160,"o":"m 954 107 q 774 92 867 99 q 578 82 681 86 q 358 76 475 78 q 104 74 240 74 l 104 193 q 208 192 158 193 q 307 193 258 192 l 307 568 l 440 568 l 440 194 q 525 197 485 196 q 606 200 565 197 l 606 568 l 739 568 l 739 206 q 942 222 840 211 l 954 107 m 1024 -194 l 1024 1086 l 1160 1086 l 1160 -194 l 1024 -194 z "},"ㆊ":{"ha":1264,"x_min":103,"x_max":1160,"o":"m 293 -154 l 293 364 l 103 364 l 103 483 q 356 485 240 483 q 572 490 471 486 q 764 499 674 493 q 940 513 854 504 l 951 397 q 825 385 889 390 q 693 376 761 381 l 693 -154 l 557 -154 l 557 371 q 494 368 525 369 q 429 367 463 367 l 429 -154 l 293 -154 m 1024 -194 l 1024 -14 l 786 -14 l 786 97 l 1024 97 l 1024 192 l 786 192 l 786 303 l 1024 303 l 1024 1086 l 1160 1086 l 1160 -194 l 1024 -194 z "},"ㆋ":{"ha":1264,"x_min":72,"x_max":1192,"o":"m 439 -112 l 439 368 l 336 365 l 336 -112 l 203 -112 l 203 365 l 72 365 l 72 483 q 266 484 181 483 q 429 486 351 485 q 582 490 507 488 q 744 499 657 493 l 750 385 q 572 372 653 376 l 572 -112 l 439 -112 m 813 1064 l 947 1064 l 947 -158 l 813 -158 l 813 -14 l 654 -14 l 654 99 l 813 99 l 813 193 l 654 193 l 654 306 l 813 306 l 813 1064 m 1192 -194 l 1057 -194 l 1057 1086 l 1192 1086 l 1192 -194 z "},"ㆌ":{"ha":1264,"x_min":103,"x_max":1160,"o":"m 296 -154 l 296 364 l 103 364 l 103 483 q 356 485 240 483 q 572 490 471 486 q 764 499 674 493 q 940 513 854 504 l 951 397 q 844 387 899 392 q 733 379 790 382 l 733 -154 l 597 -154 l 597 372 q 516 369 557 369 q 432 367 475 368 l 432 -154 l 296 -154 m 1024 -194 l 1024 1086 l 1160 1086 l 1160 -194 l 1024 -194 z "},"ㆍ":{"ha":1264,"x_min":542,"x_max":722,"o":"m 632 371 q 567 397 592 371 q 542 458 542 422 q 567 523 542 497 q 632 549 592 549 q 697 523 674 549 q 722 458 721 497 q 698 397 722 422 q 632 371 674 371 z "},"ㆎ":{"ha":1264,"x_min":360,"x_max":903,"o":"m 450 371 q 385 397 410 371 q 360 458 360 422 q 385 523 360 497 q 450 549 410 549 q 515 523 492 549 q 540 458 539 497 q 516 397 540 422 q 450 371 492 371 m 767 -194 l 767 1086 l 903 1086 l 903 -194 l 767 -194 z "},"ⅰ":{"ha":1264,"x_min":560,"x_max":703,"o":"m 699 724 l 699 -36 l 564 -36 l 564 724 l 699 724 m 703 996 l 703 849 l 560 849 l 560 996 l 703 996 z "},"ⅱ":{"ha":1264,"x_min":385,"x_max":879,"o":"m 524 724 l 524 -36 l 389 -36 l 389 724 l 524 724 m 528 996 l 528 849 l 385 849 l 385 996 l 528 996 m 875 724 l 875 -36 l 740 -36 l 740 724 l 875 724 m 879 996 l 879 849 l 736 849 l 736 996 l 879 996 z "},"ⅲ":{"ha":1264,"x_min":243,"x_max":1021,"o":"m 382 724 l 382 -36 l 247 -36 l 247 724 l 382 724 m 386 996 l 386 849 l 243 849 l 243 996 l 386 996 m 700 724 l 700 -36 l 565 -36 l 565 724 l 700 724 m 704 996 l 704 849 l 561 849 l 561 996 l 704 996 m 1017 724 l 1017 -36 l 882 -36 l 882 724 l 1017 724 m 1021 996 l 1021 849 l 878 849 l 878 996 l 1021 996 z "},"ⅳ":{"ha":1264,"x_min":290,"x_max":1071,"o":"m 782 94 l 932 724 l 1071 724 l 865 -36 l 693 -36 l 485 724 l 628 724 l 779 94 l 782 94 m 429 724 l 429 -36 l 294 -36 l 294 724 l 429 724 m 433 996 l 433 849 l 290 849 l 290 996 l 433 996 z "},"ⅴ":{"ha":1264,"x_min":288,"x_max":976,"o":"m 636 90 l 835 724 l 976 724 l 719 -36 l 547 -36 l 288 724 l 433 724 l 633 90 l 636 90 z "},"ⅵ":{"ha":1264,"x_min":193,"x_max":974,"o":"m 490 94 l 640 724 l 779 724 l 574 -36 l 401 -36 l 193 724 l 336 724 l 488 94 l 490 94 m 969 724 l 969 -36 l 835 -36 l 835 724 l 969 724 m 974 996 l 974 849 l 831 849 l 831 996 l 974 996 z "},"ⅶ":{"ha":1264,"x_min":108,"x_max":1122,"o":"m 396 94 l 538 724 l 674 724 l 476 -36 l 310 -36 l 108 724 l 249 724 l 393 94 l 396 94 m 865 724 l 865 -36 l 733 -36 l 733 724 l 865 724 m 869 996 l 869 849 l 729 849 l 729 996 l 869 996 m 1118 724 l 1118 -36 l 986 -36 l 986 724 l 1118 724 m 1122 996 l 1122 849 l 982 849 l 982 996 l 1122 996 z "},"ⅷ":{"ha":1264,"x_min":64,"x_max":1194,"o":"m 338 108 l 468 724 l 601 724 l 413 -36 l 257 -36 l 64 724 l 201 724 l 335 108 l 338 108 m 768 724 l 768 -36 l 644 -36 l 644 724 l 768 724 m 772 996 l 772 849 l 640 849 l 640 996 l 772 996 m 979 724 l 979 -36 l 856 -36 l 856 724 l 979 724 m 983 996 l 983 849 l 851 849 l 851 996 l 983 996 m 1190 724 l 1190 -36 l 1067 -36 l 1067 724 l 1190 724 m 1194 996 l 1194 849 l 1063 849 l 1063 996 l 1194 996 z "},"ⅸ":{"ha":1264,"x_min":290,"x_max":1108,"o":"m 886 358 l 1108 -36 l 958 -36 l 796 269 l 636 -36 l 490 -36 l 717 358 l 503 724 l 653 724 l 807 443 l 957 724 l 1099 724 l 886 358 m 429 724 l 429 -36 l 294 -36 l 294 724 l 429 724 m 433 996 l 433 849 l 290 849 l 290 996 l 433 996 z "},"ⅹ":{"ha":1264,"x_min":294,"x_max":968,"o":"m 718 358 l 968 -36 l 806 -36 l 629 269 l 449 -36 l 294 -36 l 549 358 l 307 724 l 469 724 l 638 443 l 808 724 l 958 724 l 718 358 z "},"Ⅰ":{"ha":1264,"x_min":563,"x_max":700,"o":"m 700 965 l 700 -36 l 563 -36 l 563 965 l 700 965 z "},"Ⅱ":{"ha":1264,"x_min":394,"x_max":869,"o":"m 532 965 l 532 -36 l 394 -36 l 394 965 l 532 965 m 869 965 l 869 -36 l 732 -36 l 732 965 l 869 965 z "},"Ⅲ":{"ha":1264,"x_min":235,"x_max":1028,"o":"m 372 965 l 372 -36 l 235 -36 l 235 965 l 372 965 m 701 965 l 701 -36 l 564 -36 l 564 965 l 701 965 m 1028 965 l 1028 -36 l 890 -36 l 890 965 l 1028 965 z "},"Ⅳ":{"ha":1264,"x_min":239,"x_max":1167,"o":"m 588 965 l 807 138 l 1026 965 l 1167 965 l 871 -36 l 733 -36 l 442 965 l 588 965 m 376 965 l 376 -36 l 239 -36 l 239 965 l 376 965 z "},"Ⅴ":{"ha":1264,"x_min":192,"x_max":1071,"o":"m 342 965 l 632 138 l 929 965 l 1071 965 l 693 -36 l 564 -36 l 192 965 l 342 965 z "},"Ⅵ":{"ha":1264,"x_min":97,"x_max":1025,"o":"m 243 965 l 463 138 l 682 965 l 822 965 l 526 -36 l 389 -36 l 97 965 l 243 965 m 1025 965 l 1025 -36 l 888 -36 l 888 965 l 1025 965 z "},"Ⅶ":{"ha":1264,"x_min":36,"x_max":1131,"o":"m 176 965 l 376 138 l 571 965 l 707 965 l 447 -36 l 303 -36 l 36 965 l 176 965 m 889 965 l 889 -36 l 761 -36 l 761 965 l 889 965 m 1131 965 l 1131 -36 l 1003 -36 l 1003 965 l 1131 965 z "},"Ⅷ":{"ha":1264,"x_min":46,"x_max":1181,"o":"m 181 965 l 314 138 l 442 965 l 572 965 l 385 -36 l 240 -36 l 46 965 l 181 965 m 744 965 l 744 -36 l 624 -36 l 624 965 l 744 965 m 963 965 l 963 -36 l 842 -36 l 842 965 l 963 965 m 1181 965 l 1181 -36 l 1060 -36 l 1060 965 l 1181 965 z "},"Ⅸ":{"ha":1264,"x_min":258,"x_max":1176,"o":"m 899 479 l 1176 -36 l 1018 -36 l 807 392 l 603 -36 l 451 -36 l 724 488 l 472 965 l 626 965 l 819 571 l 1008 965 l 1156 965 l 899 479 m 393 965 l 393 -36 l 258 -36 l 258 965 l 393 965 z "},"Ⅹ":{"ha":1264,"x_min":218,"x_max":1044,"o":"m 721 481 l 1044 -36 l 882 -36 l 628 393 l 374 -36 l 218 -36 l 542 486 l 239 965 l 403 965 l 639 571 l 874 965 l 1028 965 l 721 481 z "},"Α":{"ha":935,"x_min":28,"x_max":907,"o":"m 907 -36 l 763 -36 l 657 258 l 274 258 l 168 -36 l 28 -36 l 400 965 l 533 965 l 907 -36 m 315 376 l 615 376 l 532 611 q 513 665 521 642 q 497 709 504 688 q 483 754 490 731 q 465 813 475 778 q 447 753 454 778 q 433 708 440 729 q 419 665 426 688 q 400 611 411 642 l 315 376 z "},"Β":{"ha":882,"x_min":114,"x_max":833,"o":"m 114 965 l 469 965 q 788 721 788 965 l 788 692 q 779 627 788 658 q 752 569 771 596 q 702 523 733 543 q 626 492 671 503 q 776 422 718 478 q 833 263 833 367 l 833 228 q 755 34 833 104 q 513 -36 676 -36 l 114 -36 l 114 965 m 251 83 l 461 83 q 563 90 519 83 q 635 113 607 96 q 678 158 664 129 q 692 231 692 186 l 692 261 q 679 339 692 307 q 636 392 667 371 q 556 422 606 413 q 431 431 506 431 l 251 431 l 251 83 m 251 847 l 251 543 l 429 543 q 522 549 481 543 q 590 571 563 554 q 633 617 618 588 q 647 693 647 646 l 647 718 q 634 788 647 763 q 592 827 621 814 q 521 844 564 840 q 419 847 478 847 l 251 847 z "},"Γ":{"ha":744,"x_min":114,"x_max":731,"o":"m 114 -36 l 114 965 l 731 965 l 731 850 l 251 850 l 251 -36 l 114 -36 z "},"Δ":{"ha":932,"x_min":28,"x_max":904,"o":"m 396 965 l 539 965 l 904 -36 l 28 -36 l 396 965 m 722 79 l 468 817 l 208 79 l 722 79 z "},"Ε":{"ha":831,"x_min":114,"x_max":747,"o":"m 738 965 l 738 847 l 251 847 l 251 536 l 708 536 l 708 418 l 251 418 l 251 82 l 747 82 l 747 -36 l 114 -36 l 114 965 l 738 965 z "},"Ζ":{"ha":851,"x_min":36,"x_max":804,"o":"m 778 864 l 203 83 l 804 83 l 804 -36 l 36 -36 l 36 76 l 604 846 l 69 846 l 69 965 l 778 965 l 778 864 z "},"Η":{"ha":968,"x_min":114,"x_max":854,"o":"m 854 965 l 854 -36 l 717 -36 l 717 425 l 251 425 l 251 -36 l 114 -36 l 114 965 l 251 965 l 251 547 l 717 547 l 717 965 l 854 965 z "}}}
